{"glyphs":{"0":{"ha":694,"x_min":69,"x_max":625,"o":"m 417 451 q 382 417 417 417 l 313 417 q 278 451 278 417 l 278 521 q 313 556 278 556 l 382 556 q 417 521 417 556 l 417 451 m 592 694 q 625 661 625 694 l 625 311 q 592 278 625 278 l 590 278 q 558 285 572 278 l 549 275 q 556 243 556 261 l 556 174 q 521 139 556 139 l 519 139 q 489 146 503 139 l 479 136 q 486 106 486 122 l 486 35 q 451 0 486 0 l 243 0 q 208 35 208 0 l 208 106 q 215 136 208 122 l 206 146 q 175 139 192 139 l 174 139 q 139 174 139 139 l 139 243 q 146 275 139 261 l 136 285 q 104 278 122 278 l 103 278 q 69 311 69 278 l 69 661 q 103 694 69 694 l 104 694 q 136 688 122 694 l 146 697 q 139 729 139 711 l 139 799 q 174 833 139 833 l 175 833 q 206 826 192 833 l 215 836 q 208 867 208 850 l 208 938 q 243 972 208 972 l 451 972 q 486 938 486 972 l 486 867 q 479 836 486 850 l 489 826 q 519 833 503 833 l 521 833 q 556 799 556 833 l 556 729 q 549 697 556 711 l 558 688 q 590 694 572 694 l 592 694 m 451 278 q 483 271 469 278 l 493 281 q 486 313 486 294 l 486 660 q 493 692 486 678 l 483 701 q 451 694 469 694 q 417 729 417 694 l 417 799 q 424 831 417 817 l 414 840 q 382 833 400 833 l 313 833 q 281 840 294 833 l 271 831 q 278 799 278 817 l 278 729 q 243 694 278 694 q 211 701 225 694 l 201 692 q 208 660 208 678 l 208 313 q 201 281 208 294 l 211 271 q 243 278 225 278 q 278 243 278 278 l 278 174 q 271 142 278 156 l 281 132 q 313 139 294 139 l 382 139 q 414 132 400 139 l 424 142 q 417 174 417 156 l 417 243 q 451 278 417 278 z "},"1":{"ha":694,"x_min":69,"x_max":625,"o":"m 208 590 q 174 556 208 556 l 104 556 q 69 590 69 556 l 69 661 q 103 694 69 694 l 104 694 q 136 688 122 694 l 146 697 q 139 729 139 711 l 139 799 q 174 833 139 833 l 175 833 q 206 826 192 833 l 215 836 q 208 867 208 850 l 208 938 q 243 972 208 972 l 382 972 q 417 938 417 972 l 417 174 q 410 142 417 156 l 419 132 q 451 139 433 139 l 590 139 q 625 104 625 139 l 625 35 q 590 0 625 0 l 104 0 q 69 35 69 0 l 69 104 q 104 139 69 139 l 243 139 q 275 132 261 139 l 285 142 q 278 174 278 156 l 278 661 q 285 692 278 678 l 275 701 q 244 694 261 694 l 242 694 q 211 701 225 694 l 201 692 q 208 661 208 678 l 208 590 z "},"2":{"ha":694,"x_min":69,"x_max":625,"o":"m 590 139 q 625 104 625 139 l 625 35 q 590 0 625 0 l 104 0 q 69 35 69 0 l 69 383 q 103 417 69 417 l 104 417 q 136 410 122 417 l 146 419 q 139 451 139 433 l 139 521 q 174 556 139 556 l 451 556 q 483 549 469 556 l 493 558 q 486 590 486 572 l 486 799 q 493 831 486 817 l 483 840 q 451 833 469 833 l 243 833 q 211 840 225 833 l 201 831 q 208 799 208 817 l 208 729 q 174 694 208 694 l 104 694 q 69 729 69 694 l 69 800 q 103 833 69 833 l 104 833 q 136 826 122 833 l 146 836 q 139 868 139 850 l 139 938 q 174 972 139 972 l 521 972 q 556 938 556 972 l 556 868 q 549 836 556 850 l 558 826 q 590 833 572 833 l 592 833 q 625 800 625 833 l 625 589 q 592 556 625 556 l 590 556 q 558 563 572 556 l 549 553 q 556 521 556 539 l 556 451 q 521 417 556 417 l 243 417 q 211 424 225 417 l 201 414 q 208 382 208 400 l 208 174 q 201 142 208 156 l 211 132 q 243 139 225 139 l 590 139 z "},"3":{"ha":694,"x_min":69,"x_max":625,"o":"m 625 383 l 625 172 q 592 139 625 139 l 590 139 q 558 146 572 139 l 549 136 q 556 104 556 122 l 556 35 q 521 0 556 0 l 174 0 q 139 35 139 0 l 139 104 q 146 136 139 122 l 136 146 q 104 139 122 139 l 103 139 q 69 172 69 139 l 69 243 q 104 278 69 278 l 174 278 q 208 243 208 278 l 208 174 q 201 142 208 156 l 211 132 q 243 139 225 139 l 451 139 q 483 132 469 139 l 493 142 q 486 174 486 156 l 486 382 q 493 414 486 400 l 483 424 q 451 417 469 417 l 243 417 q 208 451 208 417 l 208 521 q 243 556 208 556 l 451 556 q 483 549 469 556 l 493 558 q 486 590 486 572 l 486 799 q 493 831 486 817 l 483 840 q 451 833 469 833 l 243 833 q 211 840 225 833 l 201 831 q 208 799 208 817 l 208 729 q 174 694 208 694 l 104 694 q 69 729 69 694 l 69 800 q 103 833 69 833 l 104 833 q 136 826 122 833 l 146 836 q 139 868 139 850 l 139 938 q 174 972 139 972 l 521 972 q 556 938 556 972 l 556 868 q 549 836 556 850 l 558 826 q 590 833 572 833 l 592 833 q 625 800 625 833 l 625 589 q 592 556 625 556 l 590 556 q 558 563 572 556 l 549 553 q 556 521 556 539 l 556 451 q 549 419 556 433 l 558 410 q 590 417 572 417 l 592 417 q 625 383 625 417 z "},"4":{"ha":694,"x_min":69,"x_max":625,"o":"m 347 661 l 347 589 q 314 556 347 556 l 313 556 q 281 563 294 556 l 271 553 q 278 521 278 539 l 278 451 q 271 419 278 433 l 281 410 q 313 417 294 417 l 451 417 q 483 410 469 417 l 493 419 q 486 451 486 433 l 486 660 q 521 694 486 694 l 590 694 q 625 660 625 694 l 625 35 q 590 0 625 0 l 521 0 q 486 35 486 0 l 486 243 q 493 275 486 261 l 483 285 q 451 278 469 278 l 104 278 q 69 313 69 278 l 69 383 q 103 417 69 417 l 104 417 q 136 410 122 417 l 146 419 q 139 451 139 433 l 139 521 q 174 556 139 556 l 175 556 q 206 549 192 556 l 215 558 q 208 589 208 572 l 208 660 q 243 694 208 694 l 244 694 q 275 688 261 694 l 285 697 q 278 728 278 711 l 278 799 q 313 833 278 833 l 314 833 q 344 826 331 833 l 354 836 q 347 867 347 850 l 347 938 q 382 972 347 972 l 451 972 q 486 938 486 972 l 486 867 q 453 833 486 833 l 451 833 q 419 840 433 833 l 410 831 q 417 799 417 817 l 417 729 q 382 694 417 694 l 381 694 q 350 701 364 694 l 340 692 q 347 661 347 678 z "},"5":{"ha":694,"x_min":69,"x_max":625,"o":"m 104 417 q 69 451 69 417 l 69 938 q 104 972 69 972 l 590 972 q 625 938 625 972 l 625 868 q 590 833 625 833 l 243 833 q 211 840 225 833 l 201 831 q 208 799 208 817 l 208 590 q 201 558 208 572 l 211 549 q 243 556 225 556 l 521 556 q 556 521 556 556 l 556 451 q 549 419 556 433 l 558 410 q 590 417 572 417 l 592 417 q 625 383 625 417 l 625 172 q 592 139 625 139 l 590 139 q 558 146 572 139 l 549 136 q 556 104 556 122 l 556 35 q 521 0 556 0 l 174 0 q 139 35 139 0 l 139 104 q 146 136 139 122 l 136 146 q 104 139 122 139 l 103 139 q 69 172 69 139 l 69 243 q 104 278 69 278 l 174 278 q 208 243 208 278 l 208 174 q 201 142 208 156 l 211 132 q 243 139 225 139 l 451 139 q 483 132 469 139 l 493 142 q 486 174 486 156 l 486 382 q 493 414 486 400 l 483 424 q 451 417 469 417 l 104 417 z "},"6":{"ha":694,"x_min":69,"x_max":625,"o":"m 592 417 q 625 383 625 417 l 625 172 q 592 139 625 139 l 590 139 q 558 146 572 139 l 549 136 q 556 104 556 122 l 556 35 q 521 0 556 0 l 174 0 q 139 35 139 0 l 139 104 q 146 136 139 122 l 136 146 q 104 139 122 139 l 103 139 q 69 172 69 139 l 69 800 q 103 833 69 833 l 104 833 q 136 826 122 833 l 146 836 q 139 868 139 850 l 139 938 q 174 972 139 972 l 521 972 q 556 938 556 972 l 556 868 q 549 836 556 850 l 558 826 q 590 833 572 833 l 592 833 q 625 800 625 833 l 625 729 q 590 694 625 694 l 521 694 q 486 729 486 694 l 486 799 q 493 831 486 817 l 483 840 q 451 833 469 833 l 243 833 q 211 840 225 833 l 201 831 q 208 799 208 817 l 208 590 q 201 558 208 572 l 211 549 q 243 556 225 556 l 521 556 q 556 521 556 556 l 556 451 q 549 419 556 433 l 558 410 q 590 417 572 417 l 592 417 m 208 382 l 208 174 q 201 142 208 156 l 211 132 q 243 139 225 139 l 451 139 q 483 132 469 139 l 493 142 q 486 174 486 156 l 486 382 q 493 414 486 400 l 483 424 q 451 417 469 417 l 243 417 q 211 424 225 417 l 201 414 q 208 382 208 400 z "},"7":{"ha":694,"x_min":69,"x_max":625,"o":"m 417 728 l 417 799 q 424 831 417 817 l 414 840 q 382 833 400 833 l 104 833 q 69 868 69 833 l 69 938 q 104 972 69 972 l 590 972 q 625 938 625 972 l 625 867 q 592 833 625 833 l 590 833 q 558 840 572 833 l 549 831 q 556 799 556 817 l 556 729 q 521 694 556 694 l 519 694 q 489 701 503 694 l 479 692 q 486 661 486 678 l 486 590 q 451 556 486 556 l 450 556 q 419 563 433 556 l 410 553 q 417 522 417 539 l 417 35 q 382 0 417 0 l 313 0 q 278 35 278 0 l 278 522 q 311 556 278 556 l 313 556 q 344 549 331 556 l 354 558 q 347 590 347 572 l 347 660 q 381 693 347 693 l 382 693 q 414 686 400 693 l 424 696 q 417 728 417 710 z "},"8":{"ha":694,"x_min":69,"x_max":625,"o":"m 208 799 l 208 590 q 201 558 208 572 l 211 549 q 243 556 225 556 l 451 556 q 483 549 469 556 l 493 558 q 486 590 486 572 l 486 799 q 493 831 486 817 l 483 840 q 451 833 469 833 l 243 833 q 211 840 225 833 l 201 831 q 208 799 208 817 m 208 382 l 208 174 q 201 142 208 156 l 211 132 q 243 139 225 139 l 451 139 q 483 132 469 139 l 493 142 q 486 174 486 156 l 486 382 q 493 414 486 400 l 483 424 q 451 417 469 417 l 243 417 q 211 424 225 417 l 201 414 q 208 382 208 400 m 69 172 l 69 383 q 103 417 69 417 l 104 417 q 136 410 122 417 l 146 419 q 139 451 139 433 l 139 521 q 146 553 139 539 l 136 563 q 104 556 122 556 l 103 556 q 69 589 69 556 l 69 800 q 103 833 69 833 l 104 833 q 136 826 122 833 l 146 836 q 139 868 139 850 l 139 938 q 174 972 139 972 l 521 972 q 556 938 556 972 l 556 868 q 549 836 556 850 l 558 826 q 590 833 572 833 l 592 833 q 625 800 625 833 l 625 589 q 592 556 625 556 l 590 556 q 558 563 572 556 l 549 553 q 556 521 556 539 l 556 451 q 549 419 556 433 l 558 410 q 590 417 572 417 l 592 417 q 625 383 625 417 l 625 172 q 592 139 625 139 l 590 139 q 558 146 572 139 l 549 136 q 556 104 556 122 l 556 35 q 521 0 556 0 l 174 0 q 139 35 139 0 l 139 104 q 146 136 139 122 l 136 146 q 104 139 122 139 l 103 139 q 69 172 69 139 z "},"9":{"ha":694,"x_min":69,"x_max":625,"o":"m 103 556 q 69 589 69 556 l 69 800 q 103 833 69 833 l 104 833 q 136 826 122 833 l 146 836 q 139 868 139 850 l 139 938 q 174 972 139 972 l 521 972 q 556 938 556 972 l 556 868 q 549 836 556 850 l 558 826 q 590 833 572 833 l 592 833 q 625 800 625 833 l 625 172 q 592 139 625 139 l 590 139 q 558 146 572 139 l 549 136 q 556 104 556 122 l 556 35 q 521 0 556 0 l 174 0 q 139 35 139 0 l 139 104 q 146 136 139 122 l 136 146 q 104 139 122 139 l 103 139 q 69 172 69 139 l 69 243 q 104 278 69 278 l 174 278 q 208 243 208 278 l 208 174 q 201 142 208 156 l 211 132 q 243 139 225 139 l 451 139 q 483 132 469 139 l 493 142 q 486 174 486 156 l 486 382 q 493 414 486 400 l 483 424 q 451 417 469 417 l 174 417 q 139 451 139 417 l 139 521 q 146 553 139 539 l 136 563 q 104 556 122 556 l 103 556 m 486 590 l 486 799 q 493 831 486 817 l 483 840 q 451 833 469 833 l 243 833 q 211 840 225 833 l 201 831 q 208 799 208 817 l 208 590 q 201 558 208 572 l 211 549 q 243 556 225 556 l 451 556 q 483 549 469 556 l 493 558 q 486 590 486 572 z "},"―":{"ha":694,"x_min":69,"x_max":625,"o":"m 625 0 l 69 0 l 69 1111 l 625 1111 l 625 0 m 139 1042 l 139 69 l 556 69 l 556 1042 l 139 1042 z "},"‖":{"ha":694,"x_min":69,"x_max":625,"o":"m 625 0 l 69 0 l 69 1111 l 625 1111 l 625 0 m 139 1042 l 139 69 l 556 69 l 556 1042 l 139 1042 z "},"‗":{"ha":694,"x_min":69,"x_max":625,"o":"m 625 0 l 69 0 l 69 1111 l 625 1111 l 625 0 m 139 1042 l 139 69 l 556 69 l 556 1042 l 139 1042 z "},"‚":{"ha":694,"x_min":69,"x_max":625,"o":"m 625 0 l 69 0 l 69 1111 l 625 1111 l 625 0 m 139 1042 l 139 69 l 556 69 l 556 1042 l 139 1042 z "},"‛":{"ha":694,"x_min":69,"x_max":625,"o":"m 625 0 l 69 0 l 69 1111 l 625 1111 l 625 0 m 139 1042 l 139 69 l 556 69 l 556 1042 l 139 1042 z "},"‟":{"ha":694,"x_min":69,"x_max":625,"o":"m 625 0 l 69 0 l 69 1111 l 625 1111 l 625 0 m 139 1042 l 139 69 l 556 69 l 556 1042 l 139 1042 z "},"†":{"ha":694,"x_min":69,"x_max":625,"o":"m 625 0 l 69 0 l 69 1111 l 625 1111 l 625 0 m 139 1042 l 139 69 l 556 69 l 556 1042 l 139 1042 z "},"‡":{"ha":694,"x_min":69,"x_max":625,"o":"m 625 0 l 69 0 l 69 1111 l 625 1111 l 625 0 m 139 1042 l 139 69 l 556 69 l 556 1042 l 139 1042 z "},"‣":{"ha":694,"x_min":69,"x_max":625,"o":"m 625 0 l 69 0 l 69 1111 l 625 1111 l 625 0 m 139 1042 l 139 69 l 556 69 l 556 1042 l 139 1042 z "},"․":{"ha":694,"x_min":69,"x_max":625,"o":"m 625 0 l 69 0 l 69 1111 l 625 1111 l 625 0 m 139 1042 l 139 69 l 556 69 l 556 1042 l 139 1042 z "},"‥":{"ha":694,"x_min":69,"x_max":625,"o":"m 625 0 l 69 0 l 69 1111 l 625 1111 l 625 0 m 139 1042 l 139 69 l 556 69 l 556 1042 l 139 1042 z "}," ":{"ha":694,"x_min":0,"x_max":0,"o":""},"!":{"ha":694,"x_min":208,"x_max":486,"o":"m 382 972 q 417 938 417 972 l 417 451 q 382 417 417 417 l 313 417 q 278 451 278 417 l 278 938 q 313 972 278 972 l 382 972 m 451 278 q 486 243 486 278 l 486 35 q 451 0 486 0 l 243 0 q 208 35 208 0 l 208 243 q 243 278 208 278 l 451 278 z "},"\"":{"ha":694,"x_min":139,"x_max":556,"o":"m 243 972 q 278 938 278 972 l 278 590 q 243 556 278 556 l 174 556 q 139 590 139 556 l 139 938 q 174 972 139 972 l 243 972 m 521 972 q 556 938 556 972 l 556 590 q 521 556 556 556 l 451 556 q 417 590 417 556 l 417 938 q 451 972 417 972 l 521 972 z "},"#":{"ha":694,"x_min":0,"x_max":694,"o":"m 278 521 l 278 451 q 271 419 278 433 l 281 410 q 313 417 294 417 l 382 417 q 414 410 400 417 l 424 419 q 417 451 417 433 l 417 521 q 424 553 417 539 l 414 563 q 382 556 400 556 l 313 556 q 281 563 294 556 l 271 553 q 278 521 278 539 m 69 589 l 69 660 q 104 694 69 694 l 174 694 q 206 688 192 694 l 215 697 q 208 729 208 711 l 208 938 q 243 972 208 972 l 313 972 q 347 938 347 972 l 347 729 q 340 697 347 711 l 350 688 q 382 694 364 694 l 451 694 q 483 688 469 694 l 493 697 q 486 729 486 711 l 486 938 q 521 972 486 972 l 590 972 q 625 938 625 972 l 625 729 q 618 697 625 711 l 628 688 q 660 694 642 694 l 661 694 q 694 661 694 694 l 694 590 q 660 556 694 556 l 590 556 q 558 563 572 556 l 549 553 q 556 521 556 539 l 556 451 q 549 419 556 433 l 558 410 q 590 417 572 417 l 592 417 q 625 383 625 417 l 625 313 q 590 278 625 278 l 521 278 q 489 285 503 278 l 479 275 q 486 243 486 261 l 486 35 q 451 0 486 0 l 382 0 q 347 35 347 0 l 347 243 q 354 275 347 261 l 344 285 q 313 278 331 278 l 243 278 q 211 285 225 278 l 201 275 q 208 243 208 261 l 208 35 q 174 0 208 0 l 104 0 q 69 35 69 0 l 69 243 q 76 275 69 261 l 67 285 q 35 278 53 278 l 33 278 q 0 311 0 278 l 0 382 q 35 417 0 417 l 104 417 q 136 410 122 417 l 146 419 q 139 451 139 433 l 139 521 q 146 553 139 539 l 136 563 q 104 556 122 556 l 103 556 q 69 589 69 556 z "},"$":{"ha":694,"x_min":69,"x_max":625,"o":"m 453 417 l 450 417 q 419 424 433 417 l 410 414 q 417 383 417 400 l 417 313 q 382 278 417 278 l 313 278 q 278 313 278 278 l 278 382 q 285 414 278 400 l 275 424 q 243 417 261 417 l 174 417 q 139 451 139 417 l 139 521 q 146 553 139 539 l 136 563 q 104 556 122 556 l 103 556 q 69 589 69 556 l 69 800 q 103 833 69 833 l 104 833 q 136 826 122 833 l 146 836 q 139 868 139 850 l 139 938 q 174 972 139 972 l 243 972 q 275 965 261 972 l 285 975 q 278 1007 278 989 l 278 1076 q 313 1111 278 1111 l 382 1111 q 417 1076 417 1111 l 417 1007 q 410 975 417 989 l 419 965 q 451 972 433 972 l 521 972 q 556 938 556 972 l 556 868 q 549 836 556 850 l 558 826 q 590 833 572 833 l 592 833 q 625 800 625 833 l 625 729 q 590 694 625 694 l 521 694 q 486 729 486 694 l 486 799 q 493 831 486 817 l 483 840 q 451 833 469 833 l 243 833 q 211 840 225 833 l 201 831 q 208 799 208 817 l 208 589 q 201 558 208 572 l 211 549 q 242 556 225 556 l 244 556 q 275 549 261 556 l 285 558 q 278 589 278 572 l 278 660 q 313 694 278 694 l 382 694 q 417 660 417 694 l 417 590 q 410 558 417 572 l 419 549 q 451 556 433 556 l 521 556 q 556 521 556 556 l 556 451 q 549 419 556 433 l 558 410 q 590 417 572 417 l 592 417 q 625 383 625 417 l 625 172 q 592 139 625 139 l 590 139 q 558 146 572 139 l 549 136 q 556 104 556 122 l 556 35 q 521 0 556 0 l 451 0 q 419 7 433 0 l 410 -3 q 417 -35 417 -17 l 417 -104 q 382 -139 417 -139 l 313 -139 q 278 -104 278 -139 l 278 -35 q 285 -3 278 -17 l 275 7 q 243 0 261 0 l 174 0 q 139 35 139 0 l 139 104 q 146 136 139 122 l 136 146 q 104 139 122 139 l 103 139 q 69 172 69 139 l 69 243 q 104 278 69 278 l 174 278 q 208 243 208 278 l 208 174 q 201 142 208 156 l 211 132 q 243 139 225 139 l 451 139 q 483 132 469 139 l 493 142 q 486 174 486 156 l 486 383 q 493 414 486 400 l 483 424 q 453 417 469 417 z "},"%":{"ha":694,"x_min":0,"x_max":694,"o":"m 314 833 q 347 800 347 833 l 347 728 q 314 694 347 694 l 313 694 q 281 701 294 694 l 271 692 q 278 660 278 678 l 278 590 q 243 556 278 556 l 104 556 q 69 590 69 556 l 69 660 q 76 692 69 678 l 67 701 q 35 694 53 694 l 33 694 q 0 728 0 694 l 0 800 q 33 833 0 833 l 35 833 q 67 826 53 833 l 76 836 q 69 868 69 850 l 69 938 q 104 972 69 972 l 243 972 q 278 938 278 972 l 278 868 q 271 836 278 850 l 281 826 q 313 833 294 833 l 314 833 m 661 278 q 694 244 694 278 l 694 172 q 661 139 694 139 l 660 139 q 628 146 642 139 l 618 136 q 625 104 625 122 l 625 35 q 590 0 625 0 l 451 0 q 417 35 417 0 l 417 104 q 424 136 417 122 l 414 146 q 382 139 400 139 l 381 139 q 347 172 347 139 l 347 244 q 381 278 347 278 l 382 278 q 414 271 400 278 l 424 281 q 417 313 417 294 l 417 382 q 451 417 417 417 l 590 417 q 625 382 625 417 l 625 313 q 618 281 625 294 l 628 271 q 660 278 642 278 l 661 278 m 660 972 q 694 938 694 972 l 694 867 q 661 833 694 833 l 660 833 q 628 840 642 833 l 618 831 q 625 799 625 817 l 625 729 q 590 694 625 694 l 589 694 q 558 701 572 694 l 549 692 q 556 661 556 678 l 556 590 q 521 556 556 556 l 451 556 q 417 590 417 556 l 417 661 q 450 694 417 694 l 451 694 q 483 688 469 694 l 493 697 q 486 729 486 711 l 486 799 q 521 833 486 833 l 522 833 q 553 826 539 833 l 563 836 q 556 867 556 850 l 556 938 q 590 972 556 972 l 660 972 m 69 243 q 104 278 69 278 l 106 278 q 136 271 122 278 l 146 281 q 139 311 139 294 l 139 382 q 174 417 139 417 l 243 417 q 278 382 278 417 l 278 311 q 244 278 278 278 l 243 278 q 211 285 225 278 l 201 275 q 208 243 208 261 l 208 174 q 174 139 208 139 l 172 139 q 142 146 156 139 l 132 136 q 139 106 139 122 l 139 35 q 104 0 139 0 l 35 0 q 0 35 0 0 l 0 106 q 33 139 0 139 l 35 139 q 67 132 53 139 l 76 142 q 69 174 69 156 l 69 243 m 486 244 l 486 172 q 479 142 486 156 l 489 132 q 519 139 503 139 l 522 139 q 553 132 539 139 l 563 142 q 556 172 556 156 l 556 244 q 563 275 556 261 l 553 285 q 522 278 539 278 l 519 278 q 489 285 503 278 l 479 275 q 486 244 486 261 m 139 800 l 139 728 q 132 697 139 711 l 142 688 q 172 694 156 694 l 175 694 q 206 688 192 694 l 215 697 q 208 728 208 711 l 208 800 q 215 831 208 817 l 206 840 q 175 833 192 833 l 172 833 q 142 840 156 833 l 132 831 q 139 800 139 817 z "},"&":{"ha":694,"x_min":69,"x_max":625,"o":"m 208 243 l 208 174 q 201 142 208 156 l 211 132 q 243 139 225 139 l 313 139 q 344 132 331 139 l 354 142 q 347 174 347 156 l 347 243 q 354 275 347 261 l 344 285 q 313 278 331 278 l 243 278 q 211 285 225 278 l 201 275 q 208 243 208 261 m 347 729 l 347 799 q 354 831 347 817 l 344 840 q 313 833 331 833 l 243 833 q 211 840 225 833 l 201 831 q 208 799 208 817 l 208 729 q 201 697 208 711 l 211 688 q 243 694 225 694 l 313 694 q 344 688 331 694 l 354 697 q 347 729 347 711 m 556 382 l 556 311 q 522 278 556 278 l 521 278 q 489 285 503 278 l 479 275 q 486 243 486 261 l 486 174 q 479 142 486 156 l 489 132 q 521 139 503 139 l 590 139 q 625 104 625 139 l 625 35 q 590 0 625 0 l 174 0 q 139 35 139 0 l 139 104 q 146 136 139 122 l 136 146 q 104 139 122 139 l 103 139 q 69 172 69 139 l 69 244 q 103 278 69 278 l 104 278 q 136 271 122 278 l 146 281 q 139 313 139 294 l 139 383 q 172 417 139 417 l 174 417 q 206 410 192 417 l 215 419 q 208 451 208 433 l 208 521 q 215 553 208 539 l 206 563 q 174 556 192 556 l 172 556 q 139 589 139 556 l 139 660 q 146 692 139 678 l 136 701 q 104 694 122 694 l 103 694 q 69 728 69 694 l 69 800 q 103 833 69 833 l 104 833 q 136 826 122 833 l 146 836 q 139 868 139 850 l 139 938 q 174 972 139 972 l 382 972 q 417 938 417 972 l 417 868 q 410 836 417 850 l 419 826 q 451 833 433 833 l 453 833 q 486 800 486 833 l 486 728 q 453 694 486 694 l 451 694 q 419 701 433 694 l 410 692 q 417 660 417 678 l 417 589 q 383 556 417 556 l 382 556 q 350 563 364 556 l 340 553 q 347 521 347 539 l 347 451 q 340 419 347 433 l 350 410 q 382 417 364 417 l 451 417 q 483 410 469 417 l 493 419 q 486 451 486 433 l 486 521 q 521 556 486 556 l 590 556 q 625 521 625 556 l 625 450 q 592 417 625 417 l 590 417 q 558 424 572 417 l 549 414 q 556 382 556 400 z "},"'":{"ha":694,"x_min":278,"x_max":417,"o":"m 382 972 q 417 938 417 972 l 417 590 q 382 556 417 556 l 313 556 q 278 590 278 556 l 278 938 q 313 972 278 972 l 382 972 z "},"(":{"ha":694,"x_min":208,"x_max":486,"o":"m 382 694 q 350 701 364 694 l 340 692 q 347 660 347 678 l 347 313 q 340 281 347 294 l 350 271 q 382 278 364 278 q 417 243 417 278 l 417 174 q 410 142 417 156 l 419 132 q 451 139 433 139 l 453 139 q 486 106 486 139 l 486 35 q 451 0 486 0 l 382 0 q 347 35 347 0 l 347 106 q 354 136 347 122 l 344 146 q 314 139 331 139 l 313 139 q 278 174 278 139 l 278 243 q 285 275 278 261 l 275 285 q 243 278 261 278 l 242 278 q 208 311 208 278 l 208 661 q 242 694 208 694 l 243 694 q 275 688 261 694 l 285 697 q 278 729 278 711 l 278 799 q 313 833 278 833 l 314 833 q 344 826 331 833 l 354 836 q 347 867 347 850 l 347 938 q 382 972 347 972 l 451 972 q 486 938 486 972 l 486 867 q 453 833 486 833 l 451 833 q 419 840 433 833 l 410 831 q 417 799 417 817 l 417 729 q 382 694 417 694 z "},")":{"ha":694,"x_min":208,"x_max":486,"o":"m 313 278 q 344 271 331 278 l 354 281 q 347 313 347 294 l 347 660 q 354 692 347 678 l 344 701 q 313 694 331 694 q 278 729 278 694 l 278 799 q 285 831 278 817 l 275 840 q 243 833 261 833 l 242 833 q 208 867 208 833 l 208 938 q 243 972 208 972 l 313 972 q 347 938 347 972 l 347 867 q 340 836 347 850 l 350 826 q 381 833 364 833 l 382 833 q 417 799 417 833 l 417 729 q 410 697 417 711 l 419 688 q 451 694 433 694 l 453 694 q 486 661 486 694 l 486 311 q 453 278 486 278 l 451 278 q 419 285 433 278 l 410 275 q 417 243 417 261 l 417 174 q 382 139 417 139 l 381 139 q 350 146 364 139 l 340 136 q 347 106 347 122 l 347 35 q 313 0 347 0 l 243 0 q 208 35 208 0 l 208 106 q 242 139 208 139 l 243 139 q 275 132 261 139 l 285 142 q 278 174 278 156 l 278 243 q 313 278 278 278 z "},"*":{"ha":694,"x_min":69,"x_max":625,"o":"m 69 728 l 69 799 q 104 833 69 833 l 174 833 q 208 799 208 833 l 208 728 q 201 697 208 711 l 211 688 q 242 694 225 694 l 244 694 q 275 688 261 694 l 285 697 q 278 728 278 711 l 278 938 q 313 972 278 972 l 382 972 q 417 938 417 972 l 417 728 q 410 697 417 711 l 419 688 q 450 694 433 694 l 453 694 q 483 688 469 694 l 493 697 q 486 728 486 711 l 486 799 q 521 833 486 833 l 590 833 q 625 799 625 833 l 625 728 q 592 694 625 694 l 590 694 q 558 701 572 694 l 549 692 q 556 660 556 678 l 556 590 q 549 558 556 572 l 558 549 q 590 556 572 556 l 592 556 q 625 522 625 556 l 625 451 q 590 417 625 417 l 521 417 q 486 451 486 417 l 486 522 q 493 553 486 539 l 483 563 q 453 556 469 556 l 450 556 q 419 563 433 556 l 410 553 q 417 522 417 539 l 417 313 q 382 278 417 278 l 313 278 q 278 313 278 278 l 278 522 q 285 553 278 539 l 275 563 q 244 556 261 556 l 242 556 q 211 563 225 556 l 201 553 q 208 522 208 539 l 208 451 q 174 417 208 417 l 104 417 q 69 451 69 417 l 69 522 q 103 556 69 556 l 104 556 q 136 549 122 556 l 146 558 q 139 590 139 572 l 139 660 q 146 692 139 678 l 136 701 q 104 694 122 694 l 103 694 q 69 728 69 694 z "},"+":{"ha":694,"x_min":69,"x_max":625,"o":"m 278 660 q 313 694 278 694 l 382 694 q 417 660 417 694 l 417 451 q 410 419 417 433 l 419 410 q 451 417 433 417 l 590 417 q 625 382 625 417 l 625 313 q 590 278 625 278 l 451 278 q 419 285 433 278 l 410 275 q 417 243 417 261 l 417 35 q 382 0 417 0 l 313 0 q 278 35 278 0 l 278 243 q 285 275 278 261 l 275 285 q 243 278 261 278 l 104 278 q 69 313 69 278 l 69 382 q 104 417 69 417 l 243 417 q 275 410 261 417 l 285 419 q 278 451 278 433 l 278 660 z "},",":{"ha":694,"x_min":208,"x_max":486,"o":"m 311 -139 l 313 -139 q 344 -146 331 -139 l 354 -136 q 347 -104 347 -122 l 347 -35 q 354 -3 347 -17 l 344 7 q 313 0 331 0 l 243 0 q 208 35 208 0 l 208 243 q 243 278 208 278 l 451 278 q 486 243 486 278 l 486 -106 q 453 -139 486 -139 l 451 -139 q 419 -132 433 -139 l 410 -142 q 417 -174 417 -156 l 417 -243 q 382 -278 417 -278 l 313 -278 q 278 -243 278 -278 l 278 -172 q 311 -139 278 -139 z "},"-":{"ha":694,"x_min":139,"x_max":556,"o":"m 521 417 q 556 382 556 417 l 556 313 q 521 278 556 278 l 174 278 q 139 313 139 278 l 139 382 q 174 417 139 417 l 521 417 z "},".":{"ha":694,"x_min":208,"x_max":486,"o":"m 451 278 q 486 243 486 278 l 486 35 q 451 0 486 0 l 243 0 q 208 35 208 0 l 208 243 q 243 278 208 278 l 451 278 z "},"/":{"ha":694,"x_min":69,"x_max":625,"o":"m 417 799 q 451 833 417 833 l 453 833 q 483 826 469 833 l 493 836 q 486 867 486 850 l 486 938 q 521 972 486 972 l 590 972 q 625 938 625 972 l 625 867 q 592 833 625 833 l 590 833 q 558 840 572 833 l 549 831 q 556 799 556 817 l 556 729 q 521 694 556 694 l 519 694 q 489 701 503 694 l 479 692 q 486 661 486 678 l 486 590 q 451 556 486 556 l 450 556 q 419 563 433 556 l 410 553 q 417 522 417 539 l 417 451 q 382 417 417 417 l 381 417 q 350 424 364 417 l 340 414 q 347 383 347 400 l 347 313 q 313 278 347 278 l 311 278 q 281 285 294 278 l 271 275 q 278 244 278 261 l 278 174 q 243 139 278 139 l 242 139 q 211 146 225 139 l 201 136 q 208 106 208 122 l 208 35 q 174 0 208 0 l 104 0 q 69 35 69 0 l 69 106 q 103 139 69 139 l 104 139 q 136 132 122 139 l 146 142 q 139 174 139 156 l 139 243 q 174 278 139 278 l 175 278 q 206 271 192 278 l 215 281 q 208 311 208 294 l 208 382 q 243 417 208 417 l 244 417 q 275 410 261 417 l 285 419 q 278 450 278 433 l 278 521 q 313 556 278 556 l 314 556 q 344 549 331 556 l 354 558 q 347 589 347 572 l 347 660 q 382 694 347 694 l 383 694 q 414 688 400 694 l 424 697 q 417 728 417 711 l 417 799 z "},":":{"ha":694,"x_min":208,"x_max":486,"o":"m 451 278 q 486 243 486 278 l 486 35 q 451 0 486 0 l 243 0 q 208 35 208 0 l 208 243 q 243 278 208 278 l 451 278 m 451 694 q 486 660 486 694 l 486 451 q 451 417 486 417 l 243 417 q 208 451 208 417 l 208 660 q 243 694 208 694 l 451 694 z "},";":{"ha":694,"x_min":208,"x_max":486,"o":"m 311 -139 l 313 -139 q 344 -146 331 -139 l 354 -136 q 347 -104 347 -122 l 347 -35 q 354 -3 347 -17 l 344 7 q 313 0 331 0 l 243 0 q 208 35 208 0 l 208 243 q 243 278 208 278 l 451 278 q 486 243 486 278 l 486 -106 q 453 -139 486 -139 l 451 -139 q 419 -132 433 -139 l 410 -142 q 417 -174 417 -156 l 417 -243 q 382 -278 417 -278 l 313 -278 q 278 -243 278 -278 l 278 -172 q 311 -139 278 -139 m 451 694 q 486 660 486 694 l 486 451 q 451 417 486 417 l 243 417 q 208 451 208 417 l 208 660 q 243 694 208 694 l 451 694 z "},"<":{"ha":694,"x_min":69,"x_max":556,"o":"m 417 243 l 417 174 q 410 142 417 156 l 419 132 q 451 139 433 139 l 521 139 q 556 104 556 139 l 556 35 q 521 0 556 0 l 382 0 q 347 35 347 0 l 347 104 q 354 136 347 122 l 344 146 q 313 139 331 139 l 243 139 q 208 174 208 139 l 208 243 q 215 275 208 261 l 206 285 q 174 278 192 278 l 104 278 q 69 313 69 278 l 69 382 q 104 417 69 417 l 174 417 q 206 410 192 417 l 215 419 q 208 451 208 433 l 208 521 q 243 556 208 556 l 313 556 q 344 549 331 556 l 354 558 q 347 590 347 572 l 347 660 q 382 694 347 694 l 521 694 q 556 660 556 694 l 556 590 q 521 556 556 556 l 451 556 q 419 563 433 556 l 410 553 q 417 521 417 539 l 417 451 q 382 417 417 417 l 313 417 q 281 424 294 417 l 271 414 q 278 382 278 400 l 278 313 q 271 281 278 294 l 281 271 q 313 278 294 278 l 382 278 q 417 243 417 278 z "},"=":{"ha":694,"x_min":69,"x_max":625,"o":"m 590 278 q 625 243 625 278 l 625 174 q 590 139 625 139 l 104 139 q 69 174 69 139 l 69 243 q 104 278 69 278 l 590 278 m 590 556 q 625 521 625 556 l 625 451 q 590 417 625 417 l 104 417 q 69 451 69 417 l 69 521 q 104 556 69 556 l 590 556 z "},">":{"ha":694,"x_min":139,"x_max":625,"o":"m 347 35 q 313 0 347 0 l 174 0 q 139 35 139 0 l 139 104 q 174 139 139 139 l 243 139 q 275 132 261 139 l 285 142 q 278 174 278 156 l 278 243 q 313 278 278 278 l 382 278 q 414 271 400 278 l 424 281 q 417 313 417 294 l 417 382 q 424 414 417 400 l 414 424 q 382 417 400 417 l 313 417 q 278 451 278 417 l 278 521 q 285 553 278 539 l 275 563 q 243 556 261 556 l 174 556 q 139 590 139 556 l 139 660 q 174 694 139 694 l 313 694 q 347 660 347 694 l 347 590 q 340 558 347 572 l 350 549 q 382 556 364 556 l 451 556 q 486 521 486 556 l 486 451 q 479 419 486 433 l 489 410 q 521 417 503 417 l 590 417 q 625 382 625 417 l 625 313 q 590 278 625 278 l 521 278 q 489 285 503 278 l 479 275 q 486 243 486 261 l 486 174 q 451 139 486 139 l 382 139 q 350 146 364 139 l 340 136 q 347 104 347 122 l 347 35 z "},"?":{"ha":694,"x_min":139,"x_max":556,"o":"m 347 661 q 381 694 347 694 l 382 694 q 414 688 400 694 l 424 697 q 417 729 417 711 l 417 799 q 424 831 417 817 l 414 840 q 382 833 400 833 l 313 833 q 281 840 294 833 l 271 831 q 278 799 278 817 l 278 729 q 243 694 278 694 l 174 694 q 139 729 139 694 l 139 800 q 172 833 139 833 l 174 833 q 206 826 192 833 l 215 836 q 208 868 208 850 l 208 938 q 243 972 208 972 l 451 972 q 486 938 486 972 l 486 868 q 479 836 486 850 l 489 826 q 521 833 503 833 l 522 833 q 556 800 556 833 l 556 728 q 522 694 556 694 l 521 694 q 489 701 503 694 l 479 692 q 486 660 486 678 l 486 590 q 451 556 486 556 l 450 556 q 419 563 433 556 l 410 553 q 417 522 417 539 l 417 451 q 382 417 417 417 l 313 417 q 278 451 278 417 l 278 522 q 311 556 278 556 l 313 556 q 344 549 331 556 l 354 558 q 347 590 347 572 l 347 661 m 451 278 q 486 243 486 278 l 486 35 q 451 0 486 0 l 243 0 q 208 35 208 0 l 208 243 q 243 278 208 278 l 451 278 z "},"@":{"ha":694,"x_min":69,"x_max":625,"o":"m 592 694 q 625 661 625 694 l 625 174 q 590 139 625 139 l 382 139 q 347 174 347 139 l 347 243 q 354 275 347 261 l 344 285 q 313 278 331 278 l 311 278 q 278 311 278 278 l 278 383 q 311 417 278 417 l 313 417 q 344 410 331 417 l 354 419 q 347 451 347 433 l 347 521 q 382 556 347 556 l 451 556 q 483 549 469 556 l 493 558 q 486 590 486 572 l 486 660 q 493 692 486 678 l 483 701 q 451 694 469 694 l 243 694 q 211 701 225 694 l 201 692 q 208 660 208 678 l 208 35 q 201 3 208 17 l 211 -7 q 243 0 225 0 l 590 0 q 625 -35 625 0 l 625 -104 q 590 -139 625 -139 l 174 -139 q 139 -104 139 -139 l 139 -35 q 146 -3 139 -17 l 136 7 q 104 0 122 0 l 103 0 q 69 33 69 0 l 69 661 q 103 694 69 694 l 104 694 q 136 688 122 694 l 146 697 q 139 729 139 711 l 139 799 q 174 833 139 833 l 521 833 q 556 799 556 833 l 556 729 q 549 697 556 711 l 558 688 q 590 694 572 694 l 592 694 m 486 313 l 486 382 q 493 414 486 400 l 483 424 q 451 417 469 417 q 419 424 433 417 l 410 414 q 417 382 417 400 l 417 313 q 410 281 417 294 l 419 271 q 451 278 433 278 q 483 271 469 278 l 493 281 q 486 313 486 294 z "},"A":{"ha":694,"x_min":69,"x_max":625,"o":"m 243 417 l 451 417 q 483 410 469 417 l 493 419 q 486 451 486 433 l 486 521 q 493 553 486 539 l 483 563 q 451 556 469 556 q 417 590 417 556 l 417 660 q 424 692 417 678 l 414 701 q 382 694 400 694 l 313 694 q 281 701 294 694 l 271 692 q 278 660 278 678 l 278 590 q 243 556 278 556 q 211 563 225 556 l 201 553 q 208 521 208 539 l 208 451 q 201 419 208 433 l 211 410 q 243 417 225 417 m 486 35 l 486 243 q 493 275 486 261 l 483 285 q 451 278 469 278 l 243 278 q 211 285 225 278 l 201 275 q 208 243 208 261 l 208 35 q 174 0 208 0 l 104 0 q 69 35 69 0 l 69 522 q 103 556 69 556 l 104 556 q 136 549 122 556 l 146 558 q 139 590 139 572 l 139 660 q 174 694 139 694 l 175 694 q 206 688 192 694 l 215 697 q 208 728 208 711 l 208 799 q 243 833 208 833 l 244 833 q 275 826 261 833 l 285 836 q 278 867 278 850 l 278 938 q 313 972 278 972 l 382 972 q 417 938 417 972 l 417 867 q 410 836 417 850 l 419 826 q 450 833 433 833 l 451 833 q 486 799 486 833 l 486 728 q 479 697 486 711 l 489 688 q 519 694 503 694 l 521 694 q 556 660 556 694 l 556 590 q 549 558 556 572 l 558 549 q 590 556 572 556 l 592 556 q 625 522 625 556 l 625 35 q 590 0 625 0 l 521 0 q 486 35 486 0 z "},"B":{"ha":694,"x_min":69,"x_max":625,"o":"m 592 556 l 590 556 q 558 563 572 556 l 549 553 q 556 521 556 539 l 556 451 q 549 419 556 433 l 558 410 q 590 417 572 417 l 592 417 q 625 383 625 417 l 625 172 q 592 139 625 139 l 590 139 q 558 146 572 139 l 549 136 q 556 104 556 122 l 556 35 q 521 0 556 0 l 104 0 q 69 35 69 0 l 69 938 q 104 972 69 972 l 521 972 q 556 938 556 972 l 556 868 q 549 836 556 850 l 558 826 q 590 833 572 833 l 592 833 q 625 800 625 833 l 625 589 q 592 556 625 556 m 243 139 l 451 139 q 483 132 469 139 l 493 142 q 486 174 486 156 l 486 382 q 493 414 486 400 l 483 424 q 451 417 469 417 l 243 417 q 211 424 225 417 l 201 414 q 208 382 208 400 l 208 174 q 201 142 208 156 l 211 132 q 243 139 225 139 m 243 556 l 451 556 q 483 549 469 556 l 493 558 q 486 590 486 572 l 486 799 q 493 831 486 817 l 483 840 q 451 833 469 833 l 243 833 q 211 840 225 833 l 201 831 q 208 799 208 817 l 208 590 q 201 558 208 572 l 211 549 q 243 556 225 556 z "},"":{"ha":694,"x_min":69,"x_max":625,"o":"m 592 556 l 590 556 q 558 563 572 556 l 549 553 q 556 521 556 539 l 556 451 q 549 419 556 433 l 558 410 q 590 417 572 417 l 592 417 q 625 383 625 417 l 625 172 q 592 139 625 139 l 590 139 q 558 146 572 139 l 549 136 q 556 104 556 122 l 556 35 q 521 0 556 0 l 104 0 q 69 35 69 0 l 69 938 q 104 972 69 972 l 521 972 q 556 938 556 972 l 556 868 q 549 836 556 850 l 558 826 q 590 833 572 833 l 592 833 q 625 800 625 833 l 625 589 q 592 556 625 556 m 243 139 l 451 139 q 483 132 469 139 l 493 142 q 486 174 486 156 l 486 382 q 493 414 486 400 l 483 424 q 451 417 469 417 l 243 417 q 211 424 225 417 l 201 414 q 208 382 208 400 l 208 174 q 201 142 208 156 l 211 132 q 243 139 225 139 m 243 556 l 451 556 q 483 549 469 556 l 493 558 q 486 590 486 572 l 486 799 q 493 831 486 817 l 483 840 q 451 833 469 833 l 243 833 q 211 840 225 833 l 201 831 q 208 799 208 817 l 208 590 q 201 558 208 572 l 211 549 q 243 556 225 556 z "},"C":{"ha":694,"x_min":69,"x_max":625,"o":"m 278 243 l 278 174 q 271 142 278 156 l 281 132 q 313 139 294 139 l 382 139 q 414 132 400 139 l 424 142 q 417 174 417 156 l 417 243 q 451 278 417 278 l 453 278 q 483 271 469 278 l 493 281 q 486 311 486 294 l 486 382 q 521 417 486 417 l 590 417 q 625 382 625 417 l 625 311 q 592 278 625 278 l 590 278 q 558 285 572 278 l 549 275 q 556 243 556 261 l 556 174 q 521 139 556 139 l 519 139 q 489 146 503 139 l 479 136 q 486 106 486 122 l 486 35 q 451 0 486 0 l 243 0 q 208 35 208 0 l 208 106 q 215 136 208 122 l 206 146 q 175 139 192 139 l 174 139 q 139 174 139 139 l 139 243 q 146 275 139 261 l 136 285 q 104 278 122 278 l 103 278 q 69 311 69 278 l 69 661 q 103 694 69 694 l 104 694 q 136 688 122 694 l 146 697 q 139 729 139 711 l 139 799 q 174 833 139 833 l 175 833 q 206 826 192 833 l 215 836 q 208 867 208 850 l 208 938 q 243 972 208 972 l 451 972 q 486 938 486 972 l 486 867 q 479 836 486 850 l 489 826 q 519 833 503 833 l 521 833 q 556 799 556 833 l 556 729 q 549 697 556 711 l 558 688 q 590 694 572 694 l 592 694 q 625 661 625 694 l 625 590 q 590 556 625 556 l 521 556 q 486 590 486 556 l 486 661 q 493 692 486 678 l 483 701 q 453 694 469 694 l 451 694 q 417 729 417 694 l 417 799 q 424 831 417 817 l 414 840 q 382 833 400 833 l 313 833 q 281 840 294 833 l 271 831 q 278 799 278 817 l 278 729 q 243 694 278 694 q 211 701 225 694 l 201 692 q 208 660 208 678 l 208 313 q 201 281 208 294 l 211 271 q 243 278 225 278 q 278 243 278 278 z "},"D":{"ha":694,"x_min":69,"x_max":625,"o":"m 592 694 q 625 661 625 694 l 625 311 q 592 278 625 278 l 590 278 q 558 285 572 278 l 549 275 q 556 243 556 261 l 556 174 q 521 139 556 139 l 519 139 q 489 146 503 139 l 479 136 q 486 106 486 122 l 486 35 q 451 0 486 0 l 104 0 q 69 35 69 0 l 69 938 q 104 972 69 972 l 451 972 q 486 938 486 972 l 486 867 q 479 836 486 850 l 489 826 q 519 833 503 833 l 521 833 q 556 799 556 833 l 556 729 q 549 697 556 711 l 558 688 q 590 694 572 694 l 592 694 m 417 729 l 417 799 q 424 831 417 817 l 414 840 q 382 833 400 833 l 243 833 q 211 840 225 833 l 201 831 q 208 799 208 817 l 208 174 q 201 142 208 156 l 211 132 q 243 139 225 139 l 382 139 q 414 132 400 139 l 424 142 q 417 174 417 156 l 417 243 q 451 278 417 278 q 483 271 469 278 l 493 281 q 486 313 486 294 l 486 660 q 493 692 486 678 l 483 701 q 451 694 469 694 q 417 729 417 694 z "},"E":{"ha":694,"x_min":69,"x_max":625,"o":"m 590 139 q 625 104 625 139 l 625 35 q 590 0 625 0 l 104 0 q 69 35 69 0 l 69 938 q 104 972 69 972 l 590 972 q 625 938 625 972 l 625 868 q 590 833 625 833 l 243 833 q 211 840 225 833 l 201 831 q 208 799 208 817 l 208 660 q 201 628 208 642 l 211 618 q 243 625 225 625 l 451 625 q 486 590 486 625 l 486 521 q 451 486 486 486 l 243 486 q 211 493 225 486 l 201 483 q 208 451 208 469 l 208 174 q 201 142 208 156 l 211 132 q 243 139 225 139 l 590 139 z "},"":{"ha":694,"x_min":69,"x_max":625,"o":"m 590 139 q 625 104 625 139 l 625 35 q 590 0 625 0 l 104 0 q 69 35 69 0 l 69 938 q 104 972 69 972 l 590 972 q 625 938 625 972 l 625 868 q 590 833 625 833 l 243 833 q 211 840 225 833 l 201 831 q 208 799 208 817 l 208 660 q 201 628 208 642 l 211 618 q 243 625 225 625 l 451 625 q 486 590 486 625 l 486 521 q 451 486 486 486 l 243 486 q 211 493 225 486 l 201 483 q 208 451 208 469 l 208 174 q 201 142 208 156 l 211 132 q 243 139 225 139 l 590 139 z "},"F":{"ha":694,"x_min":69,"x_max":625,"o":"m 590 972 q 625 938 625 972 l 625 868 q 590 833 625 833 l 243 833 q 211 840 225 833 l 201 831 q 208 799 208 817 l 208 590 q 201 558 208 572 l 211 549 q 243 556 225 556 l 451 556 q 486 521 486 556 l 486 451 q 451 417 486 417 l 243 417 q 211 424 225 417 l 201 414 q 208 382 208 400 l 208 35 q 174 0 208 0 l 104 0 q 69 35 69 0 l 69 938 q 104 972 69 972 l 590 972 z "},"G":{"ha":694,"x_min":69,"x_max":625,"o":"m 417 174 l 417 244 q 451 279 417 279 q 483 272 469 279 l 493 282 q 486 314 486 296 q 493 344 486 331 l 483 354 q 453 347 469 347 l 382 347 q 347 382 347 347 l 347 451 q 382 486 347 486 l 590 486 q 625 451 625 486 l 625 311 q 592 278 625 278 l 590 278 q 558 285 572 278 l 549 275 q 556 243 556 261 l 556 174 q 521 139 556 139 l 519 139 q 489 146 503 139 l 479 136 q 486 106 486 122 l 486 35 q 451 0 486 0 l 243 0 q 208 35 208 0 l 208 106 q 215 136 208 122 l 206 146 q 175 139 192 139 l 174 139 q 139 174 139 139 l 139 243 q 146 275 139 261 l 136 285 q 104 278 122 278 l 103 278 q 69 311 69 278 l 69 661 q 103 694 69 694 l 104 694 q 136 688 122 694 l 146 697 q 139 729 139 711 l 139 799 q 174 833 139 833 l 175 833 q 206 826 192 833 l 215 836 q 208 867 208 850 l 208 938 q 243 972 208 972 l 451 972 q 486 938 486 972 l 486 867 q 479 836 486 850 l 489 826 q 519 833 503 833 l 521 833 q 556 799 556 833 l 556 729 q 549 697 556 711 l 558 688 q 590 694 572 694 l 592 694 q 625 661 625 694 l 625 590 q 590 556 625 556 l 521 556 q 486 590 486 556 l 486 661 q 493 692 486 678 l 483 701 q 453 694 469 694 l 451 694 q 417 729 417 694 l 417 799 q 424 831 417 817 l 414 840 q 382 833 400 833 l 313 833 q 281 840 294 833 l 271 831 q 278 799 278 817 l 278 729 q 243 694 278 694 q 211 701 225 694 l 201 692 q 208 660 208 678 l 208 313 q 201 281 208 294 l 211 271 q 243 278 225 278 q 278 243 278 278 l 278 174 q 271 142 278 156 l 281 132 q 313 139 294 139 l 382 139 q 414 132 400 139 l 424 142 q 417 174 417 156 z "},"H":{"ha":694,"x_min":69,"x_max":625,"o":"m 590 972 q 625 938 625 972 l 625 35 q 590 0 625 0 l 521 0 q 486 35 486 0 l 486 382 q 493 414 486 400 l 483 424 q 451 417 469 417 l 243 417 q 211 424 225 417 l 201 414 q 208 382 208 400 l 208 35 q 174 0 208 0 l 104 0 q 69 35 69 0 l 69 938 q 104 972 69 972 l 174 972 q 208 938 208 972 l 208 590 q 201 558 208 572 l 211 549 q 243 556 225 556 l 451 556 q 483 549 469 556 l 493 558 q 486 590 486 572 l 486 938 q 521 972 486 972 l 590 972 z "},"I":{"ha":694,"x_min":139,"x_max":556,"o":"m 521 139 q 556 104 556 139 l 556 35 q 521 0 556 0 l 174 0 q 139 35 139 0 l 139 104 q 174 139 139 139 l 243 139 q 275 132 261 139 l 285 142 q 278 174 278 156 l 278 799 q 285 831 278 817 l 275 840 q 243 833 261 833 l 174 833 q 139 868 139 833 l 139 938 q 174 972 139 972 l 521 972 q 556 938 556 972 l 556 868 q 521 833 556 833 l 451 833 q 419 840 433 833 l 410 831 q 417 799 417 817 l 417 174 q 410 142 417 156 l 419 132 q 451 139 433 139 l 521 139 z "},"J":{"ha":694,"x_min":69,"x_max":625,"o":"m 486 313 l 486 799 q 493 831 486 817 l 483 840 q 451 833 469 833 l 243 833 q 208 868 208 833 l 208 938 q 243 972 208 972 l 590 972 q 625 938 625 972 l 625 311 q 592 278 625 278 l 590 278 q 558 285 572 278 l 549 275 q 556 243 556 261 l 556 174 q 521 139 556 139 l 519 139 q 489 146 503 139 l 479 136 q 486 106 486 122 l 486 35 q 451 0 486 0 l 243 0 q 208 35 208 0 l 208 106 q 215 136 208 122 l 206 146 q 175 139 192 139 l 174 139 q 139 174 139 139 l 139 243 q 146 275 139 261 l 136 285 q 104 278 122 278 l 103 278 q 69 311 69 278 l 69 382 q 104 417 69 417 l 174 417 q 208 382 208 417 l 208 311 q 201 281 208 294 l 211 271 q 242 278 225 278 l 243 278 q 278 243 278 278 l 278 174 q 271 142 278 156 l 281 132 q 313 139 294 139 l 382 139 q 414 132 400 139 l 424 142 q 417 174 417 156 l 417 243 q 451 278 417 278 q 483 271 469 278 l 493 281 q 486 313 486 294 z "},"K":{"ha":694,"x_min":69,"x_max":625,"o":"m 486 661 l 486 589 q 453 556 486 556 l 451 556 q 419 563 433 556 l 410 553 q 417 521 417 539 l 417 451 q 410 419 417 433 l 419 410 q 451 417 433 417 l 453 417 q 486 383 486 417 l 486 311 q 479 281 486 294 l 489 271 q 519 278 503 278 l 521 278 q 556 243 556 278 l 556 174 q 549 142 556 156 l 558 132 q 590 139 572 139 l 592 139 q 625 106 625 139 l 625 35 q 590 0 625 0 l 521 0 q 486 35 486 0 l 486 106 q 493 136 486 122 l 483 146 q 453 139 469 139 l 451 139 q 417 174 417 139 l 417 244 q 424 275 417 261 l 414 285 q 383 278 400 278 l 382 278 q 347 313 347 278 l 347 382 q 354 414 347 400 l 344 424 q 313 417 331 417 l 243 417 q 211 424 225 417 l 201 414 q 208 382 208 400 l 208 35 q 174 0 208 0 l 104 0 q 69 35 69 0 l 69 938 q 104 972 69 972 l 174 972 q 208 938 208 972 l 208 590 q 201 558 208 572 l 211 549 q 243 556 225 556 l 313 556 q 344 549 331 556 l 354 558 q 347 590 347 572 l 347 660 q 382 694 347 694 l 383 694 q 414 688 400 694 l 424 697 q 417 728 417 711 l 417 799 q 451 833 417 833 l 453 833 q 483 826 469 833 l 493 836 q 486 867 486 850 l 486 938 q 521 972 486 972 l 590 972 q 625 938 625 972 l 625 867 q 592 833 625 833 l 590 833 q 558 840 572 833 l 549 831 q 556 799 556 817 l 556 729 q 521 694 556 694 l 519 694 q 489 701 503 694 l 479 692 q 486 661 486 678 z "},"L":{"ha":694,"x_min":69,"x_max":625,"o":"m 590 139 q 625 104 625 139 l 625 35 q 590 0 625 0 l 104 0 q 69 35 69 0 l 69 938 q 104 972 69 972 l 174 972 q 208 938 208 972 l 208 174 q 201 142 208 156 l 211 132 q 243 139 225 139 l 590 139 z "},"M":{"ha":694,"x_min":69,"x_max":625,"o":"m 590 972 q 625 938 625 972 l 625 35 q 590 0 625 0 l 521 0 q 486 35 486 0 l 486 522 q 493 553 486 539 l 483 563 q 453 556 469 556 l 450 556 q 419 563 433 556 l 410 553 q 417 522 417 539 l 417 313 q 382 278 417 278 l 313 278 q 278 313 278 278 l 278 522 q 285 553 278 539 l 275 563 q 244 556 261 556 l 242 556 q 211 563 225 556 l 201 553 q 208 522 208 539 l 208 35 q 174 0 208 0 l 104 0 q 69 35 69 0 l 69 938 q 104 972 69 972 l 174 972 q 208 938 208 972 l 208 867 q 201 836 208 850 l 211 826 q 242 833 225 833 l 243 833 q 278 799 278 833 l 278 729 q 271 697 278 711 l 281 688 q 313 694 294 694 l 382 694 q 414 688 400 694 l 424 697 q 417 729 417 711 l 417 799 q 451 833 417 833 l 453 833 q 483 826 469 833 l 493 836 q 486 867 486 850 l 486 938 q 521 972 486 972 l 590 972 z "},"N":{"ha":694,"x_min":69,"x_max":625,"o":"m 69 938 q 104 972 69 972 l 174 972 q 208 938 208 972 l 208 867 q 201 836 208 850 l 211 826 q 242 833 225 833 l 243 833 q 278 799 278 833 l 278 728 q 271 697 278 711 l 281 688 q 311 694 294 694 l 313 694 q 347 660 347 694 l 347 589 q 340 558 347 572 l 350 549 q 381 556 364 556 l 382 556 q 417 521 417 556 l 417 450 q 410 419 417 433 l 419 410 q 450 417 433 417 l 453 417 q 483 410 469 417 l 493 419 q 486 450 486 433 l 486 938 q 521 972 486 972 l 590 972 q 625 938 625 972 l 625 35 q 590 0 625 0 l 521 0 q 486 35 486 0 l 486 106 q 493 136 486 122 l 483 146 q 453 139 469 139 l 451 139 q 417 174 417 139 l 417 244 q 424 275 417 261 l 414 285 q 383 278 400 278 l 382 278 q 347 313 347 278 l 347 383 q 354 414 347 400 l 344 424 q 314 417 331 417 l 313 417 q 278 451 278 417 l 278 522 q 285 553 278 539 l 275 563 q 244 556 261 556 l 242 556 q 211 563 225 556 l 201 553 q 208 522 208 539 l 208 35 q 174 0 208 0 l 104 0 q 69 35 69 0 l 69 938 z "},"O":{"ha":694,"x_min":69,"x_max":625,"o":"m 592 694 q 625 661 625 694 l 625 311 q 592 278 625 278 l 590 278 q 558 285 572 278 l 549 275 q 556 243 556 261 l 556 174 q 521 139 556 139 l 519 139 q 489 146 503 139 l 479 136 q 486 106 486 122 l 486 35 q 451 0 486 0 l 243 0 q 208 35 208 0 l 208 106 q 215 136 208 122 l 206 146 q 175 139 192 139 l 174 139 q 139 174 139 139 l 139 243 q 146 275 139 261 l 136 285 q 104 278 122 278 l 103 278 q 69 311 69 278 l 69 661 q 103 694 69 694 l 104 694 q 136 688 122 694 l 146 697 q 139 729 139 711 l 139 799 q 174 833 139 833 l 175 833 q 206 826 192 833 l 215 836 q 208 867 208 850 l 208 938 q 243 972 208 972 l 451 972 q 486 938 486 972 l 486 867 q 479 836 486 850 l 489 826 q 519 833 503 833 l 521 833 q 556 799 556 833 l 556 729 q 549 697 556 711 l 558 688 q 590 694 572 694 l 592 694 m 451 278 q 483 271 469 278 l 493 281 q 486 313 486 294 l 486 660 q 493 692 486 678 l 483 701 q 451 694 469 694 q 417 729 417 694 l 417 799 q 424 831 417 817 l 414 840 q 382 833 400 833 l 313 833 q 281 840 294 833 l 271 831 q 278 799 278 817 l 278 729 q 243 694 278 694 q 211 701 225 694 l 201 692 q 208 660 208 678 l 208 313 q 201 281 208 294 l 211 271 q 243 278 225 278 q 278 243 278 278 l 278 174 q 271 142 278 156 l 281 132 q 313 139 294 139 l 382 139 q 414 132 400 139 l 424 142 q 417 174 417 156 l 417 243 q 451 278 417 278 z "},"P":{"ha":694,"x_min":69,"x_max":625,"o":"m 592 694 q 625 661 625 694 l 625 589 q 592 556 625 556 l 590 556 q 558 563 572 556 l 549 553 q 556 521 556 539 l 556 451 q 521 417 556 417 l 519 417 q 489 424 503 417 l 479 414 q 486 383 486 400 l 486 313 q 451 278 486 278 l 243 278 q 211 285 225 278 l 201 275 q 208 243 208 261 l 208 35 q 174 0 208 0 l 104 0 q 69 35 69 0 l 69 938 q 104 972 69 972 l 451 972 q 486 938 486 972 l 486 867 q 479 836 486 850 l 489 826 q 519 833 503 833 l 521 833 q 556 799 556 833 l 556 729 q 549 697 556 711 l 558 688 q 590 694 572 694 l 592 694 m 451 694 q 417 729 417 694 l 417 799 q 424 831 417 817 l 414 840 q 382 833 400 833 l 243 833 q 211 840 225 833 l 201 831 q 208 799 208 817 l 208 451 q 201 419 208 433 l 211 410 q 243 417 225 417 l 382 417 q 414 410 400 417 l 424 419 q 417 451 417 433 l 417 521 q 451 556 417 556 q 483 549 469 556 l 493 558 q 486 590 486 572 l 486 660 q 493 692 486 678 l 483 701 q 451 694 469 694 z "},"Q":{"ha":694,"x_min":69,"x_max":625,"o":"m 417 174 l 417 243 q 424 275 417 261 l 414 285 q 382 278 400 278 q 347 313 347 278 l 347 382 q 354 414 347 400 l 344 424 q 313 417 331 417 l 311 417 q 278 450 278 417 l 278 521 q 313 556 278 556 l 382 556 q 417 521 417 556 l 417 450 q 410 419 417 433 l 419 410 q 450 417 433 417 l 453 417 q 483 410 469 417 l 493 419 q 486 450 486 433 l 486 660 q 493 692 486 678 l 483 701 q 451 694 469 694 q 417 729 417 694 l 417 799 q 424 831 417 817 l 414 840 q 382 833 400 833 l 313 833 q 281 840 294 833 l 271 831 q 278 799 278 817 l 278 729 q 243 694 278 694 q 211 701 225 694 l 201 692 q 208 660 208 678 l 208 313 q 201 281 208 294 l 211 271 q 243 278 225 278 q 278 243 278 278 l 278 174 q 271 142 278 156 l 281 132 q 313 139 294 139 l 382 139 q 414 132 400 139 l 424 142 q 417 174 417 156 m 625 103 l 625 35 q 590 0 625 0 l 243 0 q 208 35 208 0 l 208 106 q 215 136 208 122 l 206 146 q 175 139 192 139 l 174 139 q 139 174 139 139 l 139 243 q 146 275 139 261 l 136 285 q 104 278 122 278 l 103 278 q 69 311 69 278 l 69 661 q 103 694 69 694 l 104 694 q 136 688 122 694 l 146 697 q 139 729 139 711 l 139 799 q 174 833 139 833 l 175 833 q 206 826 192 833 l 215 836 q 208 867 208 850 l 208 938 q 243 972 208 972 l 451 972 q 486 938 486 972 l 486 867 q 479 836 486 850 l 489 826 q 519 833 503 833 l 521 833 q 556 799 556 833 l 556 729 q 549 697 556 711 l 558 688 q 590 694 572 694 l 592 694 q 625 661 625 694 l 625 311 q 590 276 625 276 q 558 283 572 276 l 549 274 q 556 242 556 260 l 556 172 q 549 140 556 154 l 558 131 q 590 138 572 138 q 625 103 625 138 z "},"R":{"ha":694,"x_min":69,"x_max":625,"o":"m 451 694 q 417 729 417 694 l 417 799 q 424 831 417 817 l 414 840 q 382 833 400 833 l 243 833 q 211 840 225 833 l 201 831 q 208 799 208 817 l 208 451 q 201 419 208 433 l 211 410 q 243 417 225 417 l 382 417 q 414 410 400 417 l 424 419 q 417 451 417 433 l 417 521 q 451 556 417 556 q 483 549 469 556 l 493 558 q 486 590 486 572 l 486 660 q 493 692 486 678 l 483 701 q 451 694 469 694 m 521 278 q 556 243 556 278 l 556 174 q 549 142 556 156 l 558 132 q 590 139 572 139 l 592 139 q 625 106 625 139 l 625 35 q 590 0 625 0 l 521 0 q 486 35 486 0 l 486 106 q 493 136 486 122 l 483 146 q 453 139 469 139 l 451 139 q 417 174 417 139 l 417 243 q 424 275 417 261 l 414 285 q 382 278 400 278 l 243 278 q 211 285 225 278 l 201 275 q 208 243 208 261 l 208 35 q 174 0 208 0 l 104 0 q 69 35 69 0 l 69 938 q 104 972 69 972 l 451 972 q 486 938 486 972 l 486 867 q 479 836 486 850 l 489 826 q 519 833 503 833 l 521 833 q 556 799 556 833 l 556 729 q 549 697 556 711 l 558 688 q 590 694 572 694 l 592 694 q 625 661 625 694 l 625 589 q 592 556 625 556 l 590 556 q 558 563 572 556 l 549 553 q 556 521 556 539 l 556 451 q 521 417 556 417 q 489 424 503 417 l 479 414 q 486 382 486 400 l 486 313 q 479 281 486 294 l 489 271 q 521 278 503 278 z "},"S":{"ha":694,"x_min":69,"x_max":625,"o":"m 592 417 q 625 383 625 417 l 625 172 q 592 139 625 139 l 590 139 q 558 146 572 139 l 549 136 q 556 104 556 122 l 556 35 q 521 0 556 0 l 174 0 q 139 35 139 0 l 139 104 q 146 136 139 122 l 136 146 q 104 139 122 139 l 103 139 q 69 172 69 139 l 69 243 q 104 278 69 278 l 174 278 q 208 243 208 278 l 208 174 q 201 142 208 156 l 211 132 q 243 139 225 139 l 451 139 q 483 132 469 139 l 493 142 q 486 174 486 156 l 486 382 q 493 414 486 400 l 483 424 q 451 417 469 417 l 174 417 q 139 451 139 417 l 139 521 q 146 553 139 539 l 136 563 q 104 556 122 556 l 103 556 q 69 589 69 556 l 69 800 q 103 833 69 833 l 104 833 q 136 826 122 833 l 146 836 q 139 868 139 850 l 139 938 q 174 972 139 972 l 521 972 q 556 938 556 972 l 556 868 q 549 836 556 850 l 558 826 q 590 833 572 833 l 592 833 q 625 800 625 833 l 625 729 q 590 694 625 694 l 521 694 q 486 729 486 694 l 486 799 q 493 831 486 817 l 483 840 q 451 833 469 833 l 243 833 q 211 840 225 833 l 201 831 q 208 799 208 817 l 208 590 q 201 558 208 572 l 211 549 q 243 556 225 556 l 521 556 q 556 521 556 556 l 556 451 q 549 419 556 433 l 558 410 q 590 417 572 417 l 592 417 z "},"":{"ha":694,"x_min":69,"x_max":625,"o":"m 592 417 q 625 383 625 417 l 625 172 q 592 139 625 139 l 590 139 q 558 146 572 139 l 549 136 q 556 104 556 122 l 556 35 q 521 0 556 0 l 174 0 q 139 35 139 0 l 139 104 q 146 136 139 122 l 136 146 q 104 139 122 139 l 103 139 q 69 172 69 139 l 69 243 q 104 278 69 278 l 174 278 q 208 243 208 278 l 208 174 q 201 142 208 156 l 211 132 q 243 139 225 139 l 451 139 q 483 132 469 139 l 493 142 q 486 174 486 156 l 486 382 q 493 414 486 400 l 483 424 q 451 417 469 417 l 174 417 q 139 451 139 417 l 139 521 q 146 553 139 539 l 136 563 q 104 556 122 556 l 103 556 q 69 589 69 556 l 69 800 q 103 833 69 833 l 104 833 q 136 826 122 833 l 146 836 q 139 868 139 850 l 139 938 q 174 972 139 972 l 521 972 q 556 938 556 972 l 556 868 q 549 836 556 850 l 558 826 q 590 833 572 833 l 592 833 q 625 800 625 833 l 625 729 q 590 694 625 694 l 521 694 q 486 729 486 694 l 486 799 q 493 831 486 817 l 483 840 q 451 833 469 833 l 243 833 q 211 840 225 833 l 201 831 q 208 799 208 817 l 208 590 q 201 558 208 572 l 211 549 q 243 556 225 556 l 521 556 q 556 521 556 556 l 556 451 q 549 419 556 433 l 558 410 q 590 417 572 417 l 592 417 z "},"T":{"ha":694,"x_min":69,"x_max":625,"o":"m 590 972 q 625 938 625 972 l 625 868 q 590 833 625 833 l 451 833 q 419 840 433 833 l 410 831 q 417 799 417 817 l 417 35 q 382 0 417 0 l 313 0 q 278 35 278 0 l 278 799 q 285 831 278 817 l 275 840 q 243 833 261 833 l 104 833 q 69 868 69 833 l 69 938 q 104 972 69 972 l 590 972 z "},"U":{"ha":694,"x_min":69,"x_max":625,"o":"m 590 972 q 625 938 625 972 l 625 172 q 592 139 625 139 l 590 139 q 558 146 572 139 l 549 136 q 556 104 556 122 l 556 35 q 521 0 556 0 l 174 0 q 139 35 139 0 l 139 104 q 146 136 139 122 l 136 146 q 104 139 122 139 l 103 139 q 69 172 69 139 l 69 938 q 104 972 69 972 l 174 972 q 208 938 208 972 l 208 174 q 201 142 208 156 l 211 132 q 243 139 225 139 l 451 139 q 483 132 469 139 l 493 142 q 486 174 486 156 l 486 938 q 521 972 486 972 l 590 972 z "},"V":{"ha":694,"x_min":69,"x_max":625,"o":"m 590 972 q 625 938 625 972 l 625 450 q 592 417 625 417 l 590 417 q 558 424 572 417 l 549 414 q 556 382 556 400 l 556 313 q 521 278 556 278 l 519 278 q 489 285 503 278 l 479 275 q 486 244 486 261 l 486 174 q 451 139 486 139 l 450 139 q 419 146 433 139 l 410 136 q 417 106 417 122 l 417 35 q 382 0 417 0 l 313 0 q 278 35 278 0 l 278 106 q 285 136 278 122 l 275 146 q 244 139 261 139 l 243 139 q 208 174 208 139 l 208 244 q 215 275 208 261 l 206 285 q 175 278 192 278 l 174 278 q 139 313 139 278 l 139 382 q 146 414 139 400 l 136 424 q 104 417 122 417 l 103 417 q 69 450 69 417 l 69 938 q 104 972 69 972 l 174 972 q 208 938 208 972 l 208 450 q 201 419 208 433 l 211 410 q 242 417 225 417 l 243 417 q 278 382 278 417 l 278 313 q 271 281 278 294 l 281 271 q 313 278 294 278 l 382 278 q 414 271 400 278 l 424 281 q 417 313 417 294 l 417 382 q 451 417 417 417 l 453 417 q 483 410 469 417 l 493 419 q 486 450 486 433 l 486 938 q 521 972 486 972 l 590 972 z "},"W":{"ha":694,"x_min":69,"x_max":625,"o":"m 590 972 q 625 938 625 972 l 625 311 q 592 278 625 278 l 590 278 q 558 285 572 278 l 549 275 q 556 243 556 261 l 556 35 q 521 0 556 0 l 451 0 q 417 35 417 0 l 417 104 q 424 136 417 122 l 414 146 q 382 139 400 139 l 313 139 q 281 146 294 139 l 271 136 q 278 104 278 122 l 278 35 q 243 0 278 0 l 174 0 q 139 35 139 0 l 139 243 q 146 275 139 261 l 136 285 q 104 278 122 278 l 103 278 q 69 311 69 278 l 69 938 q 104 972 69 972 l 174 972 q 208 938 208 972 l 208 311 q 201 281 208 294 l 211 271 q 242 278 225 278 l 244 278 q 275 271 261 278 l 285 281 q 278 311 278 294 l 278 660 q 313 694 278 694 l 382 694 q 417 660 417 694 l 417 311 q 410 281 417 294 l 419 271 q 450 278 433 278 l 453 278 q 483 271 469 278 l 493 281 q 486 311 486 294 l 486 938 q 521 972 486 972 l 590 972 z "},"X":{"ha":694,"x_min":69,"x_max":625,"o":"m 208 311 l 208 383 q 242 417 208 417 l 243 417 q 275 410 261 417 l 285 419 q 278 451 278 433 l 278 521 q 285 553 278 539 l 275 563 q 243 556 261 556 l 242 556 q 208 589 208 556 l 208 661 q 215 692 208 678 l 206 701 q 175 694 192 694 l 174 694 q 139 729 139 694 l 139 799 q 146 831 139 817 l 136 840 q 104 833 122 833 l 103 833 q 69 867 69 833 l 69 938 q 104 972 69 972 l 174 972 q 208 938 208 972 l 208 867 q 201 836 208 850 l 211 826 q 242 833 225 833 l 243 833 q 278 799 278 833 l 278 729 q 271 697 278 711 l 281 688 q 313 694 294 694 l 382 694 q 414 688 400 694 l 424 697 q 417 729 417 711 l 417 799 q 451 833 417 833 l 453 833 q 483 826 469 833 l 493 836 q 486 867 486 850 l 486 938 q 521 972 486 972 l 590 972 q 625 938 625 972 l 625 867 q 592 833 625 833 l 590 833 q 558 840 572 833 l 549 831 q 556 799 556 817 l 556 729 q 521 694 556 694 l 519 694 q 489 701 503 694 l 479 692 q 486 661 486 678 l 486 589 q 453 556 486 556 l 451 556 q 419 563 433 556 l 410 553 q 417 521 417 539 l 417 451 q 410 419 417 433 l 419 410 q 451 417 433 417 l 453 417 q 486 383 486 417 l 486 311 q 479 281 486 294 l 489 271 q 519 278 503 278 l 521 278 q 556 243 556 278 l 556 174 q 549 142 556 156 l 558 132 q 590 139 572 139 l 592 139 q 625 106 625 139 l 625 35 q 590 0 625 0 l 521 0 q 486 35 486 0 l 486 106 q 493 136 486 122 l 483 146 q 453 139 469 139 l 451 139 q 417 174 417 139 l 417 243 q 424 275 417 261 l 414 285 q 382 278 400 278 l 313 278 q 281 285 294 278 l 271 275 q 278 243 278 261 l 278 174 q 243 139 278 139 l 242 139 q 211 146 225 139 l 201 136 q 208 106 208 122 l 208 35 q 174 0 208 0 l 104 0 q 69 35 69 0 l 69 106 q 103 139 69 139 l 104 139 q 136 132 122 139 l 146 142 q 139 174 139 156 l 139 243 q 174 278 139 278 l 175 278 q 206 271 192 278 l 215 281 q 208 311 208 294 z "},"Y":{"ha":694,"x_min":69,"x_max":625,"o":"m 590 972 q 625 938 625 972 l 625 728 q 592 694 625 694 l 590 694 q 558 701 572 694 l 549 692 q 556 660 556 678 l 556 590 q 521 556 556 556 l 519 556 q 489 563 503 556 l 479 553 q 486 522 486 539 l 486 451 q 451 417 486 417 l 450 417 q 419 424 433 417 l 410 414 q 417 383 417 400 l 417 35 q 382 0 417 0 l 313 0 q 278 35 278 0 l 278 383 q 285 414 278 400 l 275 424 q 244 417 261 417 l 243 417 q 208 451 208 417 l 208 522 q 215 553 208 539 l 206 563 q 175 556 192 556 l 174 556 q 139 590 139 556 l 139 660 q 146 692 139 678 l 136 701 q 104 694 122 694 l 103 694 q 69 728 69 694 l 69 938 q 104 972 69 972 l 174 972 q 208 938 208 972 l 208 728 q 201 697 208 711 l 211 688 q 242 694 225 694 l 243 694 q 278 660 278 694 l 278 590 q 271 558 278 572 l 281 549 q 313 556 294 556 l 382 556 q 414 549 400 556 l 424 558 q 417 590 417 572 l 417 660 q 451 694 417 694 l 453 694 q 483 688 469 694 l 493 697 q 486 728 486 711 l 486 938 q 521 972 486 972 l 590 972 z "},"Z":{"ha":694,"x_min":69,"x_max":625,"o":"m 278 244 l 278 174 q 271 142 278 156 l 281 132 q 313 139 294 139 l 590 139 q 625 104 625 139 l 625 35 q 590 0 625 0 l 104 0 q 69 35 69 0 l 69 106 q 103 139 69 139 l 104 139 q 136 132 122 139 l 146 142 q 139 174 139 156 l 139 243 q 174 278 139 278 l 175 278 q 206 271 192 278 l 215 281 q 208 311 208 294 l 208 382 q 243 417 208 417 l 244 417 q 275 410 261 417 l 285 419 q 278 450 278 433 l 278 521 q 313 556 278 556 l 314 556 q 344 549 331 556 l 354 558 q 347 589 347 572 l 347 660 q 382 694 347 694 l 383 694 q 414 688 400 694 l 424 697 q 417 728 417 711 l 417 799 q 424 831 417 817 l 414 840 q 382 833 400 833 l 104 833 q 69 868 69 833 l 69 938 q 104 972 69 972 l 590 972 q 625 938 625 972 l 625 867 q 592 833 625 833 l 590 833 q 558 840 572 833 l 549 831 q 556 799 556 817 l 556 729 q 521 694 556 694 l 519 694 q 489 701 503 694 l 479 692 q 486 661 486 678 l 486 590 q 451 556 486 556 l 450 556 q 419 563 433 556 l 410 553 q 417 522 417 539 l 417 451 q 382 417 417 417 l 381 417 q 350 424 364 417 l 340 414 q 347 383 347 400 l 347 313 q 313 278 347 278 l 311 278 q 281 285 294 278 l 271 275 q 278 244 278 261 z "},"[":{"ha":694,"x_min":208,"x_max":486,"o":"m 451 139 q 486 104 486 139 l 486 35 q 451 0 486 0 l 243 0 q 208 35 208 0 l 208 938 q 243 972 208 972 l 451 972 q 486 938 486 972 l 486 868 q 451 833 486 833 l 382 833 q 350 840 364 833 l 340 831 q 347 799 347 817 l 347 174 q 340 142 347 156 l 350 132 q 382 139 364 139 l 451 139 z "},"\\":{"ha":694,"x_min":69,"x_max":625,"o":"m 556 243 l 556 174 q 549 142 556 156 l 558 132 q 590 139 572 139 l 592 139 q 625 106 625 139 l 625 35 q 590 0 625 0 l 521 0 q 486 35 486 0 l 486 106 q 493 136 486 122 l 483 146 q 453 139 469 139 l 451 139 q 417 174 417 139 l 417 244 q 424 275 417 261 l 414 285 q 383 278 400 278 l 382 278 q 347 313 347 278 l 347 383 q 354 414 347 400 l 344 424 q 314 417 331 417 l 313 417 q 278 451 278 417 l 278 522 q 285 553 278 539 l 275 563 q 244 556 261 556 l 243 556 q 208 590 208 556 l 208 661 q 215 692 208 678 l 206 701 q 175 694 192 694 l 174 694 q 139 729 139 694 l 139 799 q 146 831 139 817 l 136 840 q 104 833 122 833 l 103 833 q 69 867 69 833 l 69 938 q 104 972 69 972 l 174 972 q 208 938 208 972 l 208 867 q 201 836 208 850 l 211 826 q 242 833 225 833 l 243 833 q 278 799 278 833 l 278 728 q 271 697 278 711 l 281 688 q 311 694 294 694 l 313 694 q 347 660 347 694 l 347 589 q 340 558 347 572 l 350 549 q 381 556 364 556 l 382 556 q 417 521 417 556 l 417 450 q 410 419 417 433 l 419 410 q 450 417 433 417 l 451 417 q 486 382 486 417 l 486 311 q 479 281 486 294 l 489 271 q 519 278 503 278 l 521 278 q 556 243 556 278 z "},"]":{"ha":694,"x_min":208,"x_max":486,"o":"m 451 972 q 486 938 486 972 l 486 35 q 451 0 486 0 l 243 0 q 208 35 208 0 l 208 104 q 243 139 208 139 l 313 139 q 344 132 331 139 l 354 142 q 347 174 347 156 l 347 799 q 354 831 347 817 l 344 840 q 313 833 331 833 l 243 833 q 208 868 208 833 l 208 938 q 243 972 208 972 l 451 972 z "},"^":{"ha":694,"x_min":69,"x_max":625,"o":"m 521 694 q 556 660 556 694 l 556 590 q 549 558 556 572 l 558 549 q 590 556 572 556 l 592 556 q 625 522 625 556 l 625 451 q 590 417 625 417 l 521 417 q 486 451 486 417 l 486 522 q 493 553 486 539 l 483 563 q 453 556 469 556 l 451 556 q 417 590 417 556 l 417 660 q 424 692 417 678 l 414 701 q 382 694 400 694 l 313 694 q 281 701 294 694 l 271 692 q 278 660 278 678 l 278 590 q 243 556 278 556 l 242 556 q 211 563 225 556 l 201 553 q 208 522 208 539 l 208 451 q 174 417 208 417 l 104 417 q 69 451 69 417 l 69 522 q 103 556 69 556 l 104 556 q 136 549 122 556 l 146 558 q 139 590 139 572 l 139 660 q 174 694 139 694 l 175 694 q 206 688 192 694 l 215 697 q 208 728 208 711 l 208 799 q 243 833 208 833 l 244 833 q 275 826 261 833 l 285 836 q 278 867 278 850 l 278 938 q 313 972 278 972 l 382 972 q 417 938 417 972 l 417 867 q 410 836 417 850 l 419 826 q 450 833 433 833 l 451 833 q 486 799 486 833 l 486 728 q 479 697 486 711 l 489 688 q 519 694 503 694 l 521 694 z "},"_":{"ha":694,"x_min":69,"x_max":625,"o":"m 590 139 q 625 104 625 139 l 625 35 q 590 0 625 0 l 104 0 q 69 35 69 0 l 69 104 q 104 139 69 139 l 590 139 z "},"`":{"ha":694,"x_min":208,"x_max":417,"o":"m 208 1076 q 243 1111 208 1111 l 313 1111 q 347 1076 347 1111 l 347 1007 q 340 975 347 989 l 350 965 q 382 972 364 972 l 383 972 q 417 939 417 972 l 417 868 q 382 833 417 833 l 313 833 q 278 868 278 833 l 278 938 q 285 969 278 956 l 275 979 q 243 972 261 972 l 242 972 q 208 1006 208 972 l 208 1076 z "},"a":{"ha":694,"x_min":69,"x_max":625,"o":"m 486 451 l 486 521 q 493 553 486 539 l 483 563 q 451 556 469 556 l 174 556 q 139 590 139 556 l 139 660 q 174 694 139 694 l 521 694 q 556 660 556 694 l 556 590 q 549 558 556 572 l 558 549 q 590 556 572 556 l 592 556 q 625 522 625 556 l 625 35 q 590 0 625 0 l 174 0 q 139 35 139 0 l 139 104 q 146 136 139 122 l 136 146 q 104 139 122 139 l 103 139 q 69 172 69 139 l 69 244 q 103 278 69 278 l 104 278 q 136 271 122 278 l 146 281 q 139 313 139 294 l 139 382 q 174 417 139 417 l 451 417 q 483 410 469 417 l 493 419 q 486 451 486 433 m 208 243 l 208 174 q 201 142 208 156 l 211 132 q 243 139 225 139 l 451 139 q 483 132 469 139 l 493 142 q 486 174 486 156 l 486 243 q 493 275 486 261 l 483 285 q 451 278 469 278 l 243 278 q 211 285 225 278 l 201 275 q 208 243 208 261 z "},"b":{"ha":694,"x_min":69,"x_max":625,"o":"m 486 35 q 451 0 486 0 l 104 0 q 69 35 69 0 l 69 938 q 104 972 69 972 l 174 972 q 208 938 208 972 l 208 729 q 201 697 208 711 l 211 688 q 243 694 225 694 l 451 694 q 486 660 486 694 l 486 589 q 479 558 486 572 l 489 549 q 519 556 503 556 l 521 556 q 556 521 556 556 l 556 451 q 549 419 556 433 l 558 410 q 590 417 572 417 l 592 417 q 625 383 625 417 l 625 311 q 592 278 625 278 l 590 278 q 558 285 572 278 l 549 275 q 556 243 556 261 l 556 174 q 521 139 556 139 l 519 139 q 489 146 503 139 l 479 136 q 486 106 486 122 l 486 35 m 451 417 q 417 451 417 417 l 417 521 q 424 553 417 539 l 414 563 q 382 556 400 556 l 243 556 q 211 563 225 556 l 201 553 q 208 521 208 539 l 208 174 q 201 142 208 156 l 211 132 q 243 139 225 139 l 382 139 q 414 132 400 139 l 424 142 q 417 174 417 156 l 417 243 q 451 278 417 278 q 483 271 469 278 l 493 281 q 486 313 486 294 l 486 382 q 493 414 486 400 l 483 424 q 451 417 469 417 z "},"":{"ha":694,"x_min":69,"x_max":625,"o":"m 486 35 q 451 0 486 0 l 104 0 q 69 35 69 0 l 69 938 q 104 972 69 972 l 174 972 q 208 938 208 972 l 208 729 q 201 697 208 711 l 211 688 q 243 694 225 694 l 451 694 q 486 660 486 694 l 486 589 q 479 558 486 572 l 489 549 q 519 556 503 556 l 521 556 q 556 521 556 556 l 556 451 q 549 419 556 433 l 558 410 q 590 417 572 417 l 592 417 q 625 383 625 417 l 625 311 q 592 278 625 278 l 590 278 q 558 285 572 278 l 549 275 q 556 243 556 261 l 556 174 q 521 139 556 139 l 519 139 q 489 146 503 139 l 479 136 q 486 106 486 122 l 486 35 m 451 417 q 417 451 417 417 l 417 521 q 424 553 417 539 l 414 563 q 382 556 400 556 l 243 556 q 211 563 225 556 l 201 553 q 208 521 208 539 l 208 174 q 201 142 208 156 l 211 132 q 243 139 225 139 l 382 139 q 414 132 400 139 l 424 142 q 417 174 417 156 l 417 243 q 451 278 417 278 q 483 271 469 278 l 493 281 q 486 313 486 294 l 486 382 q 493 414 486 400 l 483 424 q 451 417 469 417 z "},"c":{"ha":694,"x_min":69,"x_max":625,"o":"m 451 556 l 313 556 q 281 563 294 556 l 271 553 q 278 521 278 539 l 278 451 q 243 417 278 417 q 211 424 225 417 l 201 414 q 208 382 208 400 l 208 313 q 201 281 208 294 l 211 271 q 243 278 225 278 q 278 243 278 278 l 278 174 q 271 142 278 156 l 281 132 q 313 139 294 139 l 451 139 q 483 132 469 139 l 493 142 q 486 174 486 156 l 486 243 q 521 278 486 278 l 590 278 q 625 243 625 278 l 625 172 q 592 139 625 139 l 590 139 q 558 146 572 139 l 549 136 q 556 104 556 122 l 556 35 q 521 0 556 0 l 243 0 q 208 35 208 0 l 208 106 q 215 136 208 122 l 206 146 q 175 139 192 139 l 174 139 q 139 174 139 139 l 139 243 q 146 275 139 261 l 136 285 q 104 278 122 278 l 103 278 q 69 311 69 278 l 69 383 q 103 417 69 417 l 104 417 q 136 410 122 417 l 146 419 q 139 451 139 433 l 139 521 q 174 556 139 556 l 175 556 q 206 549 192 556 l 215 558 q 208 589 208 572 l 208 660 q 243 694 208 694 l 521 694 q 556 660 556 694 l 556 590 q 549 558 556 572 l 558 549 q 590 556 572 556 l 592 556 q 625 522 625 556 l 625 451 q 590 417 625 417 l 521 417 q 486 451 486 417 l 486 521 q 493 553 486 539 l 483 563 q 451 556 469 556 z "},"d":{"ha":694,"x_min":69,"x_max":625,"o":"m 486 938 q 521 972 486 972 l 590 972 q 625 938 625 972 l 625 35 q 590 0 625 0 l 243 0 q 208 35 208 0 l 208 106 q 215 136 208 122 l 206 146 q 175 139 192 139 l 174 139 q 139 174 139 139 l 139 243 q 146 275 139 261 l 136 285 q 104 278 122 278 l 103 278 q 69 311 69 278 l 69 383 q 103 417 69 417 l 104 417 q 136 410 122 417 l 146 419 q 139 451 139 433 l 139 521 q 174 556 139 556 l 175 556 q 206 549 192 556 l 215 558 q 208 589 208 572 l 208 660 q 243 694 208 694 l 451 694 q 483 688 469 694 l 493 697 q 486 729 486 711 l 486 938 m 243 417 q 211 424 225 417 l 201 414 q 208 382 208 400 l 208 313 q 201 281 208 294 l 211 271 q 243 278 225 278 q 278 243 278 278 l 278 174 q 271 142 278 156 l 281 132 q 313 139 294 139 l 451 139 q 483 132 469 139 l 493 142 q 486 174 486 156 l 486 521 q 493 553 486 539 l 483 563 q 451 556 469 556 l 313 556 q 281 563 294 556 l 271 553 q 278 521 278 539 l 278 451 q 243 417 278 417 z "},"e":{"ha":694,"x_min":69,"x_max":625,"o":"m 625 313 q 590 278 625 278 l 313 278 q 281 285 294 278 l 271 275 q 278 243 278 261 l 278 174 q 271 142 278 156 l 281 132 q 313 139 294 139 l 590 139 q 625 104 625 139 l 625 35 q 590 0 625 0 l 243 0 q 208 35 208 0 l 208 106 q 215 136 208 122 l 206 146 q 175 139 192 139 l 174 139 q 139 174 139 139 l 139 243 q 146 275 139 261 l 136 285 q 104 278 122 278 l 103 278 q 69 311 69 278 l 69 383 q 103 417 69 417 l 104 417 q 136 410 122 417 l 146 419 q 139 451 139 433 l 139 521 q 174 556 139 556 l 175 556 q 206 549 192 556 l 215 558 q 208 589 208 572 l 208 660 q 243 694 208 694 l 451 694 q 486 660 486 694 l 486 589 q 479 558 486 572 l 489 549 q 519 556 503 556 l 521 556 q 556 521 556 556 l 556 451 q 549 419 556 433 l 558 410 q 590 417 572 417 l 592 417 q 625 383 625 417 l 625 313 m 417 451 l 417 521 q 424 553 417 539 l 414 563 q 382 556 400 556 l 313 556 q 281 563 294 556 l 271 553 q 278 521 278 539 l 278 451 q 271 419 278 433 l 281 410 q 313 417 294 417 l 382 417 q 414 410 400 417 l 424 419 q 417 451 417 433 z "},"f":{"ha":694,"x_min":69,"x_max":625,"o":"m 590 556 l 382 556 q 350 563 364 556 l 340 553 q 347 521 347 539 l 347 35 q 313 0 347 0 l 243 0 q 208 35 208 0 l 208 521 q 215 553 208 539 l 206 563 q 174 556 192 556 l 104 556 q 69 590 69 556 l 69 660 q 104 694 69 694 l 174 694 q 206 688 192 694 l 215 697 q 208 729 208 711 l 208 799 q 243 833 208 833 l 244 833 q 275 826 261 833 l 285 836 q 278 867 278 850 l 278 938 q 313 972 278 972 l 590 972 q 625 938 625 972 l 625 868 q 590 833 625 833 l 382 833 q 350 840 364 833 l 340 831 q 347 799 347 817 l 347 729 q 340 697 347 711 l 350 688 q 382 694 364 694 l 590 694 q 625 660 625 694 l 625 590 q 590 556 625 556 z "},"g":{"ha":694,"x_min":69,"x_max":625,"o":"m 556 -243 q 521 -278 556 -278 l 174 -278 q 139 -243 139 -278 l 139 -174 q 174 -139 139 -139 l 451 -139 q 483 -146 469 -139 l 493 -136 q 486 -104 486 -122 l 486 -35 q 493 -3 486 -17 l 483 7 q 451 0 469 0 l 243 0 q 208 35 208 0 l 208 106 q 215 136 208 122 l 206 146 q 175 139 192 139 l 174 139 q 139 174 139 139 l 139 243 q 146 275 139 261 l 136 285 q 104 278 122 278 l 103 278 q 69 311 69 278 l 69 383 q 103 417 69 417 l 104 417 q 136 410 122 417 l 146 419 q 139 451 139 433 l 139 521 q 174 556 139 556 l 175 556 q 206 549 192 556 l 215 558 q 208 589 208 572 l 208 660 q 243 694 208 694 l 590 694 q 625 660 625 694 l 625 -106 q 592 -139 625 -139 l 590 -139 q 558 -132 572 -139 l 549 -142 q 556 -174 556 -156 l 556 -243 m 243 417 q 211 424 225 417 l 201 414 q 208 382 208 400 l 208 313 q 201 281 208 294 l 211 271 q 243 278 225 278 q 278 243 278 278 l 278 174 q 271 142 278 156 l 281 132 q 313 139 294 139 l 451 139 q 483 132 469 139 l 493 142 q 486 174 486 156 l 486 521 q 493 553 486 539 l 483 563 q 451 556 469 556 l 313 556 q 281 563 294 556 l 271 553 q 278 521 278 539 l 278 451 q 243 417 278 417 z "},"h":{"ha":694,"x_min":69,"x_max":625,"o":"m 208 35 q 174 0 208 0 l 104 0 q 69 35 69 0 l 69 938 q 104 972 69 972 l 174 972 q 208 938 208 972 l 208 729 q 201 697 208 711 l 211 688 q 243 694 225 694 l 521 694 q 556 660 556 694 l 556 590 q 549 558 556 572 l 558 549 q 590 556 572 556 l 592 556 q 625 522 625 556 l 625 35 q 590 0 625 0 l 521 0 q 486 35 486 0 l 486 521 q 493 553 486 539 l 483 563 q 451 556 469 556 l 243 556 q 211 563 225 556 l 201 553 q 208 521 208 539 l 208 35 z "},"i":{"ha":694,"x_min":69,"x_max":625,"o":"m 625 35 q 590 0 625 0 l 104 0 q 69 35 69 0 l 69 104 q 104 139 69 139 l 243 139 q 275 132 261 139 l 285 142 q 278 174 278 156 l 278 521 q 285 553 278 539 l 275 563 q 243 556 261 556 l 104 556 q 69 590 69 556 l 69 660 q 104 694 69 694 l 382 694 q 417 660 417 694 l 417 174 q 410 142 417 156 l 419 132 q 451 139 433 139 l 590 139 q 625 104 625 139 l 625 35 m 417 868 q 382 833 417 833 l 313 833 q 278 868 278 833 l 278 938 q 313 972 278 972 l 382 972 q 417 938 417 972 l 417 868 z "},"j":{"ha":694,"x_min":139,"x_max":556,"o":"m 486 -243 q 451 -278 486 -278 l 174 -278 q 139 -243 139 -278 l 139 -174 q 174 -139 139 -139 l 382 -139 q 414 -146 400 -139 l 424 -136 q 417 -104 417 -122 l 417 521 q 424 553 417 539 l 414 563 q 382 556 400 556 l 174 556 q 139 590 139 556 l 139 660 q 174 694 139 694 l 521 694 q 556 660 556 694 l 556 -106 q 522 -139 556 -139 l 521 -139 q 489 -132 503 -139 l 479 -142 q 486 -174 486 -156 l 486 -243 m 417 868 q 382 833 417 833 l 313 833 q 278 868 278 833 l 278 938 q 313 972 278 972 l 382 972 q 417 938 417 972 l 417 868 z "},"k":{"ha":694,"x_min":69,"x_max":625,"o":"m 592 556 l 590 556 q 558 563 572 556 l 549 553 q 556 521 556 539 l 556 451 q 521 417 556 417 q 489 424 503 417 l 479 414 q 486 382 486 400 l 486 313 q 479 281 486 294 l 489 271 q 521 278 503 278 q 556 243 556 278 l 556 174 q 549 142 556 156 l 558 132 q 590 139 572 139 l 592 139 q 625 106 625 139 l 625 35 q 590 0 625 0 l 521 0 q 486 35 486 0 l 486 106 q 493 136 486 122 l 483 146 q 453 139 469 139 l 451 139 q 417 174 417 139 l 417 243 q 424 275 417 261 l 414 285 q 382 278 400 278 l 243 278 q 211 285 225 278 l 201 275 q 208 243 208 261 l 208 35 q 174 0 208 0 l 104 0 q 69 35 69 0 l 69 938 q 104 972 69 972 l 174 972 q 208 938 208 972 l 208 451 q 201 419 208 433 l 211 410 q 243 417 225 417 l 382 417 q 414 410 400 417 l 424 419 q 417 451 417 433 l 417 521 q 451 556 417 556 l 453 556 q 483 549 469 556 l 493 558 q 486 589 486 572 l 486 660 q 521 694 486 694 l 590 694 q 625 660 625 694 l 625 589 q 592 556 625 556 z "},"l":{"ha":694,"x_min":69,"x_max":625,"o":"m 625 35 q 590 0 625 0 l 104 0 q 69 35 69 0 l 69 104 q 104 139 69 139 l 243 139 q 275 132 261 139 l 285 142 q 278 174 278 156 l 278 799 q 285 831 278 817 l 275 840 q 243 833 261 833 l 104 833 q 69 868 69 833 l 69 938 q 104 972 69 972 l 382 972 q 417 938 417 972 l 417 174 q 410 142 417 156 l 419 132 q 451 139 433 139 l 590 139 q 625 104 625 139 l 625 35 z "},"m":{"ha":694,"x_min":69,"x_max":625,"o":"m 417 174 q 382 139 417 139 l 313 139 q 278 174 278 139 l 278 522 q 285 553 278 539 l 275 563 q 244 556 261 556 l 242 556 q 211 563 225 556 l 201 553 q 208 522 208 539 l 208 35 q 174 0 208 0 l 104 0 q 69 35 69 0 l 69 660 q 104 694 69 694 l 521 694 q 556 660 556 694 l 556 590 q 549 558 556 572 l 558 549 q 590 556 572 556 l 592 556 q 625 522 625 556 l 625 35 q 590 0 625 0 l 521 0 q 486 35 486 0 l 486 522 q 493 553 486 539 l 483 563 q 453 556 469 556 l 450 556 q 419 563 433 556 l 410 553 q 417 522 417 539 l 417 174 z "},"n":{"ha":694,"x_min":69,"x_max":625,"o":"m 208 35 q 174 0 208 0 l 104 0 q 69 35 69 0 l 69 660 q 104 694 69 694 l 521 694 q 556 660 556 694 l 556 590 q 549 558 556 572 l 558 549 q 590 556 572 556 l 592 556 q 625 522 625 556 l 625 35 q 590 0 625 0 l 521 0 q 486 35 486 0 l 486 521 q 493 553 486 539 l 483 563 q 451 556 469 556 l 243 556 q 211 563 225 556 l 201 553 q 208 521 208 539 l 208 35 z "},"o":{"ha":694,"x_min":69,"x_max":625,"o":"m 592 417 q 625 383 625 417 l 625 311 q 592 278 625 278 l 590 278 q 558 285 572 278 l 549 275 q 556 243 556 261 l 556 174 q 521 139 556 139 l 519 139 q 489 146 503 139 l 479 136 q 486 106 486 122 l 486 35 q 451 0 486 0 l 243 0 q 208 35 208 0 l 208 106 q 215 136 208 122 l 206 146 q 175 139 192 139 l 174 139 q 139 174 139 139 l 139 243 q 146 275 139 261 l 136 285 q 104 278 122 278 l 103 278 q 69 311 69 278 l 69 383 q 103 417 69 417 l 104 417 q 136 410 122 417 l 146 419 q 139 451 139 433 l 139 521 q 174 556 139 556 l 175 556 q 206 549 192 556 l 215 558 q 208 589 208 572 l 208 660 q 243 694 208 694 l 451 694 q 486 660 486 694 l 486 589 q 479 558 486 572 l 489 549 q 519 556 503 556 l 521 556 q 556 521 556 556 l 556 451 q 549 419 556 433 l 558 410 q 590 417 572 417 l 592 417 m 382 556 l 313 556 q 281 563 294 556 l 271 553 q 278 521 278 539 l 278 451 q 243 417 278 417 q 211 424 225 417 l 201 414 q 208 382 208 400 l 208 313 q 201 281 208 294 l 211 271 q 243 278 225 278 q 278 243 278 278 l 278 174 q 271 142 278 156 l 281 132 q 313 139 294 139 l 382 139 q 414 132 400 139 l 424 142 q 417 174 417 156 l 417 243 q 451 278 417 278 q 483 271 469 278 l 493 281 q 486 313 486 294 l 486 382 q 493 414 486 400 l 483 424 q 451 417 469 417 q 417 451 417 417 l 417 521 q 424 553 417 539 l 414 563 q 382 556 400 556 z "},"p":{"ha":694,"x_min":69,"x_max":625,"o":"m 208 -243 q 174 -278 208 -278 l 104 -278 q 69 -243 69 -278 l 69 660 q 104 694 69 694 l 451 694 q 486 660 486 694 l 486 589 q 479 558 486 572 l 489 549 q 519 556 503 556 l 521 556 q 556 521 556 556 l 556 451 q 549 419 556 433 l 558 410 q 590 417 572 417 l 592 417 q 625 383 625 417 l 625 311 q 592 278 625 278 l 590 278 q 558 285 572 278 l 549 275 q 556 243 556 261 l 556 174 q 521 139 556 139 l 519 139 q 489 146 503 139 l 479 136 q 486 106 486 122 l 486 35 q 451 0 486 0 l 243 0 q 211 7 225 0 l 201 -3 q 208 -35 208 -17 l 208 -243 m 451 417 q 417 451 417 417 l 417 521 q 424 553 417 539 l 414 563 q 382 556 400 556 l 243 556 q 211 563 225 556 l 201 553 q 208 521 208 539 l 208 174 q 201 142 208 156 l 211 132 q 243 139 225 139 l 382 139 q 414 132 400 139 l 424 142 q 417 174 417 156 l 417 243 q 451 278 417 278 q 483 271 469 278 l 493 281 q 486 313 486 294 l 486 382 q 493 414 486 400 l 483 424 q 451 417 469 417 z "},"q":{"ha":694,"x_min":69,"x_max":625,"o":"m 208 660 q 243 694 208 694 l 590 694 q 625 660 625 694 l 625 -243 q 590 -278 625 -278 l 521 -278 q 486 -243 486 -278 l 486 -35 q 493 -3 486 -17 l 483 7 q 451 0 469 0 l 243 0 q 208 35 208 0 l 208 106 q 215 136 208 122 l 206 146 q 175 139 192 139 l 174 139 q 139 174 139 139 l 139 243 q 146 275 139 261 l 136 285 q 104 278 122 278 l 103 278 q 69 311 69 278 l 69 383 q 103 417 69 417 l 104 417 q 136 410 122 417 l 146 419 q 139 451 139 433 l 139 521 q 174 556 139 556 l 175 556 q 206 549 192 556 l 215 558 q 208 589 208 572 l 208 660 m 243 417 q 211 424 225 417 l 201 414 q 208 382 208 400 l 208 313 q 201 281 208 294 l 211 271 q 243 278 225 278 q 278 243 278 278 l 278 174 q 271 142 278 156 l 281 132 q 313 139 294 139 l 451 139 q 483 132 469 139 l 493 142 q 486 174 486 156 l 486 521 q 493 553 486 539 l 483 563 q 451 556 469 556 l 313 556 q 281 563 294 556 l 271 553 q 278 521 278 539 l 278 451 q 243 417 278 417 z "},"r":{"ha":694,"x_min":139,"x_max":625,"o":"m 278 35 q 243 0 278 0 l 174 0 q 139 35 139 0 l 139 660 q 174 694 139 694 l 521 694 q 556 660 556 694 l 556 590 q 549 558 556 572 l 558 549 q 590 556 572 556 l 592 556 q 625 522 625 556 l 625 313 q 590 278 625 278 l 521 278 q 486 313 486 278 l 486 521 q 493 553 486 539 l 483 563 q 451 556 469 556 l 313 556 q 281 563 294 556 l 271 553 q 278 521 278 539 l 278 35 z "},"s":{"ha":694,"x_min":69,"x_max":625,"o":"m 592 278 q 625 244 625 278 l 625 172 q 592 139 625 139 l 590 139 q 558 146 572 139 l 549 136 q 556 104 556 122 l 556 35 q 521 0 556 0 l 104 0 q 69 35 69 0 l 69 104 q 104 139 69 139 l 451 139 q 483 132 469 139 l 493 142 q 486 174 486 156 l 486 243 q 493 275 486 261 l 483 285 q 451 278 469 278 l 174 278 q 139 313 139 278 l 139 382 q 146 414 139 400 l 136 424 q 104 417 122 417 l 103 417 q 69 450 69 417 l 69 522 q 103 556 69 556 l 104 556 q 136 549 122 556 l 146 558 q 139 590 139 572 l 139 660 q 174 694 139 694 l 521 694 q 556 660 556 694 l 556 590 q 521 556 556 556 l 243 556 q 211 563 225 556 l 201 553 q 208 521 208 539 l 208 451 q 201 419 208 433 l 211 410 q 243 417 225 417 l 521 417 q 556 382 556 417 l 556 313 q 549 281 556 294 l 558 271 q 590 278 572 278 l 592 278 z "},"":{"ha":694,"x_min":69,"x_max":625,"o":"m 592 278 q 625 244 625 278 l 625 172 q 592 139 625 139 l 590 139 q 558 146 572 139 l 549 136 q 556 104 556 122 l 556 35 q 521 0 556 0 l 104 0 q 69 35 69 0 l 69 104 q 104 139 69 139 l 451 139 q 483 132 469 139 l 493 142 q 486 174 486 156 l 486 243 q 493 275 486 261 l 483 285 q 451 278 469 278 l 174 278 q 139 313 139 278 l 139 382 q 146 414 139 400 l 136 424 q 104 417 122 417 l 103 417 q 69 450 69 417 l 69 522 q 103 556 69 556 l 104 556 q 136 549 122 556 l 146 558 q 139 590 139 572 l 139 660 q 174 694 139 694 l 521 694 q 556 660 556 694 l 556 590 q 521 556 556 556 l 243 556 q 211 563 225 556 l 201 553 q 208 521 208 539 l 208 451 q 201 419 208 433 l 211 410 q 243 417 225 417 l 521 417 q 556 382 556 417 l 556 313 q 549 281 556 294 l 558 271 q 590 278 572 278 l 592 278 z "},"t":{"ha":694,"x_min":69,"x_max":625,"o":"m 104 694 l 174 694 q 206 688 192 694 l 215 697 q 208 729 208 711 l 208 799 q 243 833 208 833 l 313 833 q 347 799 347 833 l 347 729 q 340 697 347 711 l 350 688 q 382 694 364 694 l 590 694 q 625 660 625 694 l 625 590 q 590 556 625 556 l 382 556 q 350 563 364 556 l 340 553 q 347 521 347 539 l 347 174 q 340 142 347 156 l 350 132 q 382 139 364 139 l 451 139 q 483 132 469 139 l 493 142 q 486 174 486 156 l 486 243 q 521 278 486 278 l 590 278 q 625 243 625 278 l 625 172 q 592 139 625 139 l 590 139 q 558 146 572 139 l 549 136 q 556 104 556 122 l 556 35 q 521 0 556 0 l 313 0 q 278 35 278 0 l 278 106 q 285 136 278 122 l 275 146 q 244 139 261 139 l 243 139 q 208 174 208 139 l 208 521 q 215 553 208 539 l 206 563 q 174 556 192 556 l 104 556 q 69 590 69 556 l 69 660 q 104 694 69 694 z "},"u":{"ha":694,"x_min":69,"x_max":625,"o":"m 486 660 q 521 694 486 694 l 590 694 q 625 660 625 694 l 625 35 q 590 0 625 0 l 174 0 q 139 35 139 0 l 139 104 q 146 136 139 122 l 136 146 q 104 139 122 139 l 103 139 q 69 172 69 139 l 69 660 q 104 694 69 694 l 174 694 q 208 660 208 694 l 208 174 q 201 142 208 156 l 211 132 q 243 139 225 139 l 451 139 q 483 132 469 139 l 493 142 q 486 174 486 156 l 486 660 z "},"v":{"ha":694,"x_min":69,"x_max":625,"o":"m 590 694 q 625 660 625 694 l 625 450 q 592 417 625 417 l 590 417 q 558 424 572 417 l 549 414 q 556 382 556 400 l 556 313 q 521 278 556 278 l 519 278 q 489 285 503 278 l 479 275 q 486 244 486 261 l 486 174 q 451 139 486 139 l 450 139 q 419 146 433 139 l 410 136 q 417 106 417 122 l 417 35 q 382 0 417 0 l 313 0 q 278 35 278 0 l 278 106 q 285 136 278 122 l 275 146 q 244 139 261 139 l 243 139 q 208 174 208 139 l 208 244 q 215 275 208 261 l 206 285 q 175 278 192 278 l 174 278 q 139 313 139 278 l 139 382 q 146 414 139 400 l 136 424 q 104 417 122 417 l 103 417 q 69 450 69 417 l 69 660 q 104 694 69 694 l 174 694 q 208 660 208 694 l 208 450 q 201 419 208 433 l 211 410 q 242 417 225 417 l 243 417 q 278 382 278 417 l 278 313 q 271 281 278 294 l 281 271 q 313 278 294 278 l 382 278 q 414 271 400 278 l 424 281 q 417 313 417 294 l 417 382 q 451 417 417 417 l 453 417 q 483 410 469 417 l 493 419 q 486 450 486 433 l 486 660 q 521 694 486 694 l 590 694 z "},"w":{"ha":694,"x_min":69,"x_max":625,"o":"m 590 694 q 625 660 625 694 l 625 311 q 592 278 625 278 l 590 278 q 558 285 572 278 l 549 275 q 556 243 556 261 l 556 35 q 521 0 556 0 l 451 0 q 417 35 417 0 l 417 104 q 424 136 417 122 l 414 146 q 382 139 400 139 l 313 139 q 281 146 294 139 l 271 136 q 278 104 278 122 l 278 35 q 243 0 278 0 l 174 0 q 139 35 139 0 l 139 243 q 146 275 139 261 l 136 285 q 104 278 122 278 l 103 278 q 69 311 69 278 l 69 660 q 104 694 69 694 l 174 694 q 208 660 208 694 l 208 311 q 201 281 208 294 l 211 271 q 242 278 225 278 l 244 278 q 275 271 261 278 l 285 281 q 278 311 278 294 l 278 521 q 313 556 278 556 l 382 556 q 417 521 417 556 l 417 311 q 410 281 417 294 l 419 271 q 450 278 433 278 l 453 278 q 483 271 469 278 l 493 281 q 486 311 486 294 l 486 660 q 521 694 486 694 l 590 694 z "},"":{"ha":694,"x_min":69,"x_max":625,"o":"m 590 694 q 625 660 625 694 l 625 311 q 592 278 625 278 l 590 278 q 558 285 572 278 l 549 275 q 556 243 556 261 l 556 35 q 521 0 556 0 l 451 0 q 417 35 417 0 l 417 104 q 424 136 417 122 l 414 146 q 382 139 400 139 l 313 139 q 281 146 294 139 l 271 136 q 278 104 278 122 l 278 35 q 243 0 278 0 l 174 0 q 139 35 139 0 l 139 243 q 146 275 139 261 l 136 285 q 104 278 122 278 l 103 278 q 69 311 69 278 l 69 660 q 104 694 69 694 l 174 694 q 208 660 208 694 l 208 311 q 201 281 208 294 l 211 271 q 242 278 225 278 l 244 278 q 275 271 261 278 l 285 281 q 278 311 278 294 l 278 521 q 313 556 278 556 l 382 556 q 417 521 417 556 l 417 311 q 410 281 417 294 l 419 271 q 450 278 433 278 l 453 278 q 483 271 469 278 l 493 281 q 486 311 486 294 l 486 660 q 521 694 486 694 l 590 694 z "},"x":{"ha":694,"x_min":69,"x_max":625,"o":"m 139 174 l 139 243 q 174 278 139 278 q 206 271 192 278 l 215 281 q 208 313 208 294 l 208 382 q 215 414 208 400 l 206 424 q 174 417 192 417 q 139 451 139 417 l 139 521 q 146 553 139 539 l 136 563 q 104 556 122 556 l 103 556 q 69 589 69 556 l 69 660 q 104 694 69 694 l 174 694 q 208 660 208 694 l 208 589 q 201 558 208 572 l 211 549 q 242 556 225 556 l 243 556 q 278 521 278 556 l 278 451 q 271 419 278 433 l 281 410 q 313 417 294 417 l 382 417 q 414 410 400 417 l 424 419 q 417 451 417 433 l 417 521 q 451 556 417 556 l 453 556 q 483 549 469 556 l 493 558 q 486 589 486 572 l 486 660 q 521 694 486 694 l 590 694 q 625 660 625 694 l 625 589 q 592 556 625 556 l 590 556 q 558 563 572 556 l 549 553 q 556 521 556 539 l 556 451 q 521 417 556 417 q 489 424 503 417 l 479 414 q 486 382 486 400 l 486 313 q 479 281 486 294 l 489 271 q 521 278 503 278 q 556 243 556 278 l 556 174 q 549 142 556 156 l 558 132 q 590 139 572 139 l 592 139 q 625 106 625 139 l 625 35 q 590 0 625 0 l 521 0 q 486 35 486 0 l 486 106 q 493 136 486 122 l 483 146 q 453 139 469 139 l 451 139 q 417 174 417 139 l 417 243 q 424 275 417 261 l 414 285 q 382 278 400 278 l 313 278 q 281 285 294 278 l 271 275 q 278 243 278 261 l 278 174 q 243 139 278 139 l 242 139 q 211 146 225 139 l 201 136 q 208 106 208 122 l 208 35 q 174 0 208 0 l 104 0 q 69 35 69 0 l 69 106 q 103 139 69 139 l 104 139 q 136 132 122 139 l 146 142 q 139 174 139 156 z "},"y":{"ha":694,"x_min":69,"x_max":625,"o":"m 278 172 l 278 244 q 285 275 278 261 l 275 285 q 244 278 261 278 l 243 278 q 208 313 208 278 l 208 383 q 215 414 208 400 l 206 424 q 175 417 192 417 l 174 417 q 139 451 139 417 l 139 521 q 146 553 139 539 l 136 563 q 104 556 122 556 l 103 556 q 69 589 69 556 l 69 660 q 104 694 69 694 l 174 694 q 208 660 208 694 l 208 589 q 201 558 208 572 l 211 549 q 242 556 225 556 l 243 556 q 278 521 278 556 l 278 451 q 271 419 278 433 l 281 410 q 313 417 294 417 l 382 417 q 414 410 400 417 l 424 419 q 417 451 417 433 l 417 521 q 451 556 417 556 l 453 556 q 483 549 469 556 l 493 558 q 486 589 486 572 l 486 660 q 521 694 486 694 l 590 694 q 625 660 625 694 l 625 589 q 592 556 625 556 l 590 556 q 558 563 572 556 l 549 553 q 556 521 556 539 l 556 451 q 521 417 556 417 l 519 417 q 489 424 503 417 l 479 414 q 486 383 486 400 l 486 313 q 451 278 486 278 l 450 278 q 419 285 433 278 l 410 275 q 417 244 417 261 l 417 174 q 382 139 417 139 l 381 139 q 350 146 364 139 l 340 136 q 347 106 347 122 l 347 35 q 313 0 347 0 l 311 0 q 281 7 294 0 l 271 -3 q 278 -33 278 -17 l 278 -104 q 243 -139 278 -139 l 242 -139 q 211 -132 225 -139 l 201 -142 q 208 -172 208 -156 l 208 -243 q 174 -278 208 -278 l 104 -278 q 69 -243 69 -278 l 69 -172 q 103 -139 69 -139 l 104 -139 q 136 -146 122 -139 l 146 -136 q 139 -104 139 -122 l 139 -35 q 174 0 139 0 l 175 0 q 206 -7 192 0 l 215 3 q 208 33 208 17 l 208 104 q 243 139 208 139 l 244 139 q 275 132 261 139 l 285 142 q 278 172 278 156 z "},"":{"ha":694,"x_min":69,"x_max":625,"o":"m 278 172 l 278 244 q 285 275 278 261 l 275 285 q 244 278 261 278 l 243 278 q 208 313 208 278 l 208 383 q 215 414 208 400 l 206 424 q 175 417 192 417 l 174 417 q 139 451 139 417 l 139 521 q 146 553 139 539 l 136 563 q 104 556 122 556 l 103 556 q 69 589 69 556 l 69 660 q 104 694 69 694 l 174 694 q 208 660 208 694 l 208 589 q 201 558 208 572 l 211 549 q 242 556 225 556 l 243 556 q 278 521 278 556 l 278 451 q 271 419 278 433 l 281 410 q 313 417 294 417 l 382 417 q 414 410 400 417 l 424 419 q 417 451 417 433 l 417 521 q 451 556 417 556 l 453 556 q 483 549 469 556 l 493 558 q 486 589 486 572 l 486 660 q 521 694 486 694 l 590 694 q 625 660 625 694 l 625 589 q 592 556 625 556 l 590 556 q 558 563 572 556 l 549 553 q 556 521 556 539 l 556 451 q 521 417 556 417 l 519 417 q 489 424 503 417 l 479 414 q 486 383 486 400 l 486 313 q 451 278 486 278 l 450 278 q 419 285 433 278 l 410 275 q 417 244 417 261 l 417 174 q 382 139 417 139 l 381 139 q 350 146 364 139 l 340 136 q 347 106 347 122 l 347 35 q 313 0 347 0 l 311 0 q 281 7 294 0 l 271 -3 q 278 -33 278 -17 l 278 -104 q 243 -139 278 -139 l 242 -139 q 211 -132 225 -139 l 201 -142 q 208 -172 208 -156 l 208 -243 q 174 -278 208 -278 l 104 -278 q 69 -243 69 -278 l 69 -172 q 103 -139 69 -139 l 104 -139 q 136 -146 122 -139 l 146 -136 q 139 -104 139 -122 l 139 -35 q 174 0 139 0 l 175 0 q 206 -7 192 0 l 215 3 q 208 33 208 17 l 208 104 q 243 139 208 139 l 244 139 q 275 132 261 139 l 285 142 q 278 172 278 156 z "},"z":{"ha":694,"x_min":69,"x_max":625,"o":"m 625 35 q 590 0 625 0 l 104 0 q 69 35 69 0 l 69 106 q 103 139 69 139 l 104 139 q 136 132 122 139 l 146 142 q 139 174 139 156 l 139 243 q 174 278 139 278 l 175 278 q 206 271 192 278 l 215 281 q 208 311 208 294 l 208 382 q 243 417 208 417 l 382 417 q 414 410 400 417 l 424 419 q 417 451 417 433 l 417 521 q 424 553 417 539 l 414 563 q 382 556 400 556 l 104 556 q 69 590 69 556 l 69 660 q 104 694 69 694 l 590 694 q 625 660 625 694 l 625 589 q 592 556 625 556 l 590 556 q 558 563 572 556 l 549 553 q 556 521 556 539 l 556 451 q 521 417 556 417 l 519 417 q 489 424 503 417 l 479 414 q 486 383 486 400 l 486 313 q 451 278 486 278 l 313 278 q 281 285 294 278 l 271 275 q 278 243 278 261 l 278 174 q 271 142 278 156 l 281 132 q 313 139 294 139 l 590 139 q 625 104 625 139 l 625 35 z "},"{":{"ha":694,"x_min":139,"x_max":556,"o":"m 417 383 l 417 174 q 410 142 417 156 l 419 132 q 451 139 433 139 l 521 139 q 556 104 556 139 l 556 35 q 521 0 556 0 l 382 0 q 347 35 347 0 l 347 106 q 354 136 347 122 l 344 146 q 314 139 331 139 l 313 139 q 278 174 278 139 l 278 382 q 285 414 278 400 l 275 424 q 243 417 261 417 l 174 417 q 139 451 139 417 l 139 521 q 174 556 139 556 l 243 556 q 275 549 261 556 l 285 558 q 278 590 278 572 l 278 799 q 313 833 278 833 l 314 833 q 344 826 331 833 l 354 836 q 347 867 347 850 l 347 938 q 382 972 347 972 l 521 972 q 556 938 556 972 l 556 868 q 521 833 556 833 l 451 833 q 419 840 433 833 l 410 831 q 417 799 417 817 l 417 589 q 383 556 417 556 l 382 556 q 350 563 364 556 l 340 553 q 347 521 347 539 l 347 451 q 340 419 347 433 l 350 410 q 382 417 364 417 l 383 417 q 417 383 417 417 z "},"|":{"ha":694,"x_min":278,"x_max":417,"o":"m 382 1111 q 417 1076 417 1111 l 417 -104 q 382 -139 417 -139 l 313 -139 q 278 -104 278 -139 l 278 1076 q 313 1111 278 1111 l 382 1111 z "},"}":{"ha":694,"x_min":139,"x_max":556,"o":"m 278 589 l 278 799 q 285 831 278 817 l 275 840 q 243 833 261 833 l 174 833 q 139 868 139 833 l 139 938 q 174 972 139 972 l 313 972 q 347 938 347 972 l 347 867 q 340 836 347 850 l 350 826 q 381 833 364 833 l 382 833 q 417 799 417 833 l 417 590 q 410 558 417 572 l 419 549 q 451 556 433 556 l 521 556 q 556 521 556 556 l 556 451 q 521 417 556 417 l 451 417 q 419 424 433 417 l 410 414 q 417 382 417 400 l 417 174 q 382 139 417 139 l 381 139 q 350 146 364 139 l 340 136 q 347 106 347 122 l 347 35 q 313 0 347 0 l 174 0 q 139 35 139 0 l 139 104 q 174 139 139 139 l 243 139 q 275 132 261 139 l 285 142 q 278 174 278 156 l 278 383 q 311 417 278 417 l 313 417 q 344 410 331 417 l 354 419 q 347 451 347 433 l 347 521 q 354 553 347 539 l 344 563 q 313 556 331 556 l 311 556 q 278 589 278 556 z "},"~":{"ha":694,"x_min":69,"x_max":625,"o":"m 139 521 q 174 556 139 556 l 382 556 q 417 521 417 556 l 417 450 q 410 419 417 433 l 419 410 q 450 417 433 417 l 453 417 q 483 410 469 417 l 493 419 q 486 450 486 433 l 486 521 q 521 556 486 556 l 590 556 q 625 521 625 556 l 625 450 q 592 417 625 417 l 590 417 q 558 424 572 417 l 549 414 q 556 382 556 400 l 556 313 q 521 278 556 278 l 313 278 q 278 313 278 278 l 278 383 q 285 414 278 400 l 275 424 q 244 417 261 417 l 242 417 q 211 424 225 417 l 201 414 q 208 383 208 400 l 208 313 q 174 278 208 278 l 104 278 q 69 313 69 278 l 69 383 q 103 417 69 417 l 104 417 q 136 410 122 417 l 146 419 q 139 451 139 433 l 139 521 z "}," ":{"ha":694,"x_min":0,"x_max":0,"o":""},"¡":{"ha":694,"x_min":208,"x_max":486,"o":"m 313 -278 q 278 -243 278 -278 l 278 243 q 313 278 278 278 l 382 278 q 417 243 417 278 l 417 -243 q 382 -278 417 -278 l 313 -278 m 243 417 q 208 451 208 417 l 208 660 q 243 694 208 694 l 451 694 q 486 660 486 694 l 486 451 q 451 417 486 417 l 243 417 z "},"¢":{"ha":694,"x_min":69,"x_max":625,"o":"m 278 660 l 278 589 q 244 556 278 556 l 243 556 q 211 563 225 556 l 201 553 q 208 521 208 539 l 208 451 q 201 419 208 433 l 211 410 q 243 417 225 417 l 244 417 q 278 383 278 417 l 278 313 q 271 281 278 294 l 281 271 q 313 278 294 278 l 590 278 q 625 243 625 278 l 625 174 q 590 139 625 139 l 521 139 q 489 146 503 139 l 479 136 q 486 104 486 122 l 486 35 q 451 0 486 0 l 382 0 q 347 35 347 0 l 347 104 q 354 136 347 122 l 344 146 q 313 139 331 139 l 243 139 q 208 174 208 139 l 208 244 q 215 275 208 261 l 206 285 q 175 278 192 278 l 174 278 q 139 313 139 278 l 139 382 q 146 414 139 400 l 136 424 q 104 417 122 417 l 103 417 q 69 450 69 417 l 69 522 q 103 556 69 556 l 104 556 q 136 549 122 556 l 146 558 q 139 590 139 572 l 139 660 q 174 694 139 694 l 175 694 q 206 688 192 694 l 215 697 q 208 728 208 711 l 208 799 q 243 833 208 833 l 313 833 q 344 826 331 833 l 354 836 q 347 868 347 850 l 347 938 q 382 972 347 972 l 451 972 q 486 938 486 972 l 486 868 q 479 836 486 850 l 489 826 q 521 833 503 833 l 590 833 q 625 799 625 833 l 625 729 q 590 694 625 694 l 313 694 q 281 701 294 694 l 271 692 q 278 660 278 678 z "},"£":{"ha":694,"x_min":69,"x_max":625,"o":"m 208 382 q 215 414 208 400 l 206 424 q 174 417 192 417 l 104 417 q 69 451 69 417 l 69 521 q 104 556 69 556 l 174 556 q 206 549 192 556 l 215 558 q 208 590 208 572 l 208 799 q 243 833 208 833 l 244 833 q 275 826 261 833 l 285 836 q 278 867 278 850 l 278 938 q 313 972 278 972 l 590 972 q 625 938 625 972 l 625 868 q 590 833 625 833 l 382 833 q 350 840 364 833 l 340 831 q 347 799 347 817 l 347 590 q 340 558 347 572 l 350 549 q 382 556 364 556 l 521 556 q 556 521 556 556 l 556 451 q 521 417 556 417 l 382 417 q 350 424 364 417 l 340 414 q 347 382 347 400 l 347 311 q 314 278 347 278 l 313 278 q 281 285 294 278 l 271 275 q 278 243 278 261 l 278 174 q 271 142 278 156 l 281 132 q 313 139 294 139 l 590 139 q 625 104 625 139 l 625 35 q 590 0 625 0 l 104 0 q 69 35 69 0 l 69 106 q 103 139 69 139 l 104 139 q 136 132 122 139 l 146 142 q 139 174 139 156 l 139 244 q 172 278 139 278 l 174 278 q 206 271 192 278 l 215 281 q 208 313 208 294 l 208 382 z "},"¤":{"ha":694,"x_min":69,"x_max":625,"o":"m 590 139 q 625 104 625 139 l 625 35 q 590 0 625 0 l 313 0 q 278 35 278 0 l 278 106 q 285 136 278 122 l 275 146 q 244 139 261 139 l 243 139 q 208 174 208 139 l 208 243 q 215 275 208 261 l 206 285 q 174 278 192 278 l 104 278 q 69 313 69 278 l 69 382 q 104 417 69 417 l 174 417 q 206 410 192 417 l 215 419 q 208 451 208 433 l 208 521 q 215 553 208 539 l 206 563 q 174 556 192 556 l 104 556 q 69 590 69 556 l 69 660 q 104 694 69 694 l 174 694 q 206 688 192 694 l 215 697 q 208 729 208 711 l 208 799 q 243 833 208 833 l 244 833 q 275 826 261 833 l 285 836 q 278 867 278 850 l 278 938 q 313 972 278 972 l 590 972 q 625 938 625 972 l 625 868 q 590 833 625 833 l 382 833 q 350 840 364 833 l 340 831 q 347 799 347 817 l 347 729 q 340 697 347 711 l 350 688 q 382 694 364 694 l 521 694 q 556 660 556 694 l 556 590 q 521 556 556 556 l 382 556 q 350 563 364 556 l 340 553 q 347 521 347 539 l 347 451 q 340 419 347 433 l 350 410 q 382 417 364 417 l 521 417 q 556 382 556 417 l 556 313 q 521 278 556 278 l 382 278 q 350 285 364 278 l 340 275 q 347 243 347 261 l 347 174 q 340 142 347 156 l 350 132 q 382 139 364 139 l 590 139 z "},"¥":{"ha":694,"x_min":69,"x_max":625,"o":"m 486 522 l 486 451 q 479 419 486 433 l 489 410 q 521 417 503 417 l 590 417 q 625 382 625 417 l 625 313 q 590 278 625 278 l 451 278 q 419 285 433 278 l 410 275 q 417 243 417 261 l 417 174 q 410 142 417 156 l 419 132 q 451 139 433 139 l 590 139 q 625 104 625 139 l 625 35 q 590 0 625 0 l 104 0 q 69 35 69 0 l 69 104 q 104 139 69 139 l 243 139 q 275 132 261 139 l 285 142 q 278 174 278 156 l 278 243 q 285 275 278 261 l 275 285 q 243 278 261 278 l 104 278 q 69 313 69 278 l 69 382 q 104 417 69 417 l 174 417 q 206 410 192 417 l 215 419 q 208 451 208 433 l 208 521 q 215 553 208 539 l 206 563 q 174 556 192 556 l 172 556 q 139 590 139 556 l 139 660 q 146 692 139 678 l 136 701 q 104 694 122 694 l 103 694 q 69 728 69 694 l 69 938 q 104 972 69 972 l 174 972 q 208 938 208 972 l 208 728 q 201 697 208 711 l 211 688 q 242 694 225 694 l 243 694 q 278 660 278 694 l 278 590 q 271 558 278 572 l 281 549 q 313 556 294 556 l 382 556 q 414 549 400 556 l 424 558 q 417 590 417 572 l 417 660 q 451 694 417 694 l 453 694 q 483 688 469 694 l 493 697 q 486 728 486 711 l 486 938 q 521 972 486 972 l 590 972 q 625 938 625 972 l 625 728 q 592 694 625 694 l 590 694 q 558 701 572 694 l 549 692 q 556 660 556 678 l 556 590 q 522 557 556 557 l 521 557 q 489 564 503 557 l 479 554 q 486 522 486 540 z "},"¦":{"ha":694,"x_min":278,"x_max":417,"o":"m 382 1111 q 417 1076 417 1111 l 417 590 q 382 556 417 556 l 313 556 q 278 590 278 556 l 278 1076 q 313 1111 278 1111 l 382 1111 m 313 -139 q 278 -104 278 -139 l 278 382 q 313 417 278 417 l 382 417 q 417 382 417 417 l 417 -104 q 382 -139 417 -139 l 313 -139 z "},"§":{"ha":694,"x_min":69,"x_max":625,"o":"m 208 521 l 208 451 q 201 419 208 433 l 211 410 q 243 417 225 417 l 451 417 q 483 410 469 417 l 493 419 q 486 451 486 433 l 486 521 q 493 553 486 539 l 483 563 q 451 556 469 556 l 243 556 q 211 563 225 556 l 201 553 q 208 521 208 539 m 69 728 l 69 800 q 103 833 69 833 l 104 833 q 136 826 122 833 l 146 836 q 139 868 139 850 l 139 938 q 174 972 139 972 l 590 972 q 625 938 625 972 l 625 868 q 590 833 625 833 l 243 833 q 211 840 225 833 l 201 831 q 208 799 208 817 l 208 729 q 201 697 208 711 l 211 688 q 243 694 225 694 l 521 694 q 556 660 556 694 l 556 590 q 549 558 556 572 l 558 549 q 590 556 572 556 l 592 556 q 625 522 625 556 l 625 450 q 592 417 625 417 l 590 417 q 558 424 572 417 l 549 414 q 556 382 556 400 l 556 313 q 549 281 556 294 l 558 271 q 590 278 572 278 l 592 278 q 625 244 625 278 l 625 172 q 592 139 625 139 l 590 139 q 558 146 572 139 l 549 136 q 556 104 556 122 l 556 35 q 521 0 556 0 l 104 0 q 69 35 69 0 l 69 104 q 104 139 69 139 l 451 139 q 483 132 469 139 l 493 142 q 486 174 486 156 l 486 243 q 493 275 486 261 l 483 285 q 451 278 469 278 l 174 278 q 139 313 139 278 l 139 382 q 146 414 139 400 l 136 424 q 104 417 122 417 l 103 417 q 69 450 69 417 l 69 522 q 103 556 69 556 l 104 556 q 136 549 122 556 l 146 558 q 139 590 139 572 l 139 660 q 146 692 139 678 l 136 701 q 104 694 122 694 l 103 694 q 69 728 69 694 z "},"¨":{"ha":694,"x_min":139,"x_max":556,"o":"m 278 868 q 243 833 278 833 l 174 833 q 139 868 139 833 l 139 938 q 174 972 139 972 l 243 972 q 278 938 278 972 l 278 868 m 556 868 q 521 833 556 833 l 451 833 q 417 868 417 833 l 417 938 q 451 972 417 972 l 521 972 q 556 938 556 972 l 556 868 z "},"©":{"ha":694,"x_min":0,"x_max":694,"o":"m 661 139 l 660 139 q 628 146 642 139 l 618 136 q 625 104 625 122 l 625 35 q 590 0 625 0 l 104 0 q 69 35 69 0 l 69 104 q 76 136 69 122 l 67 146 q 35 139 53 139 l 33 139 q 0 172 0 139 l 0 800 q 33 833 0 833 l 35 833 q 67 826 53 833 l 76 836 q 69 868 69 850 l 69 938 q 104 972 69 972 l 590 972 q 625 938 625 972 l 625 868 q 618 836 625 850 l 628 826 q 660 833 642 833 l 661 833 q 694 800 694 833 l 694 172 q 661 139 694 139 m 139 799 l 139 174 q 132 142 139 156 l 142 132 q 174 139 156 139 l 521 139 q 553 132 539 139 l 563 142 q 556 174 556 156 l 556 799 q 563 831 556 817 l 553 840 q 521 833 539 833 l 174 833 q 142 840 156 833 l 132 831 q 139 799 139 817 m 486 313 q 451 278 486 278 l 243 278 q 208 313 208 278 l 208 660 q 243 694 208 694 l 451 694 q 486 660 486 694 l 486 590 q 451 556 486 556 l 382 556 q 350 563 364 556 l 340 553 q 347 521 347 539 l 347 451 q 340 419 347 433 l 350 410 q 382 417 364 417 l 451 417 q 486 382 486 417 l 486 313 z "},"ª":{"ha":694,"x_min":139,"x_max":556,"o":"m 521 972 q 556 938 556 972 l 556 590 q 521 556 556 556 l 243 556 q 208 590 208 556 l 208 660 q 215 692 208 678 l 206 701 q 174 694 192 694 l 172 694 q 139 728 139 694 l 139 800 q 172 833 139 833 l 174 833 q 206 826 192 833 l 215 836 q 208 868 208 850 l 208 938 q 243 972 208 972 l 521 972 m 521 417 q 556 382 556 417 l 556 313 q 521 278 556 278 l 174 278 q 139 313 139 278 l 139 382 q 174 417 139 417 l 521 417 m 278 799 l 278 729 q 271 697 278 711 l 281 688 q 313 694 294 694 l 382 694 q 414 688 400 694 l 424 697 q 417 729 417 711 l 417 799 q 424 831 417 817 l 414 840 q 382 833 400 833 l 313 833 q 281 840 294 833 l 271 831 q 278 799 278 817 z "},"«":{"ha":694,"x_min":69,"x_max":625,"o":"m 208 383 l 208 313 q 201 281 208 294 l 211 271 q 243 278 225 278 l 244 278 q 278 244 278 278 l 278 174 q 271 142 278 156 l 281 132 q 313 139 294 139 l 314 139 q 347 106 347 139 l 347 35 q 313 0 347 0 l 243 0 q 208 35 208 0 l 208 106 q 215 136 208 122 l 206 146 q 175 139 192 139 l 174 139 q 139 174 139 139 l 139 243 q 146 275 139 261 l 136 285 q 104 278 122 278 l 103 278 q 69 311 69 278 l 69 383 q 103 417 69 417 l 104 417 q 136 410 122 417 l 146 419 q 139 451 139 433 l 139 521 q 174 556 139 556 l 175 556 q 206 549 192 556 l 215 558 q 208 589 208 572 l 208 660 q 243 694 208 694 l 313 694 q 347 660 347 694 l 347 589 q 314 556 347 556 l 313 556 q 281 563 294 556 l 271 553 q 278 521 278 539 l 278 451 q 244 418 278 418 l 243 418 q 211 425 225 418 l 201 415 q 208 383 208 401 m 486 383 l 486 313 q 479 281 486 294 l 489 271 q 521 278 503 278 l 522 278 q 556 244 556 278 l 556 174 q 549 142 556 156 l 558 132 q 590 139 572 139 l 592 139 q 625 106 625 139 l 625 35 q 590 0 625 0 l 521 0 q 486 35 486 0 l 486 106 q 493 136 486 122 l 483 146 q 453 139 469 139 l 451 139 q 417 174 417 139 l 417 243 q 424 275 417 261 l 414 285 q 382 278 400 278 l 381 278 q 347 311 347 278 l 347 383 q 381 417 347 417 l 382 417 q 414 410 400 417 l 424 419 q 417 451 417 433 l 417 521 q 451 556 417 556 l 453 556 q 483 549 469 556 l 493 558 q 486 589 486 572 l 486 660 q 521 694 486 694 l 590 694 q 625 660 625 694 l 625 589 q 592 556 625 556 l 590 556 q 558 563 572 556 l 549 553 q 556 521 556 539 l 556 451 q 522 418 556 418 l 521 418 q 489 425 503 418 l 479 415 q 486 383 486 401 z "},"¬":{"ha":694,"x_min":69,"x_max":625,"o":"m 625 35 q 590 0 625 0 l 521 0 q 486 35 486 0 l 486 243 q 493 275 486 261 l 483 285 q 451 278 469 278 l 104 278 q 69 313 69 278 l 69 382 q 104 417 69 417 l 590 417 q 625 382 625 417 l 625 35 z "},"­":{"ha":694,"x_min":139,"x_max":556,"o":"m 521 417 q 556 382 556 417 l 556 313 q 521 278 556 278 l 174 278 q 139 313 139 278 l 139 382 q 174 417 139 417 l 521 417 z "},"®":{"ha":694,"x_min":139,"x_max":556,"o":"m 556 800 l 556 728 q 522 694 556 694 l 521 694 q 489 701 503 694 l 479 692 q 486 660 486 678 l 486 590 q 479 558 486 572 l 489 549 q 521 556 503 556 l 522 556 q 556 522 556 556 l 556 451 q 521 417 556 417 l 451 417 q 417 451 417 417 l 417 521 q 424 553 417 539 l 414 563 q 382 556 400 556 l 313 556 q 281 563 294 556 l 271 553 q 278 521 278 539 l 278 451 q 243 417 278 417 l 174 417 q 139 451 139 417 l 139 938 q 174 972 139 972 l 451 972 q 486 938 486 972 l 486 868 q 479 836 486 850 l 489 826 q 521 833 503 833 l 522 833 q 556 800 556 833 m 278 799 l 278 729 q 271 697 278 711 l 281 688 q 313 694 294 694 l 382 694 q 414 688 400 694 l 424 697 q 417 729 417 711 l 417 799 q 424 831 417 817 l 414 840 q 382 833 400 833 l 313 833 q 281 840 294 833 l 271 831 q 278 799 278 817 m 521 278 q 556 243 556 278 l 556 174 q 521 139 556 139 l 174 139 q 139 174 139 139 l 139 243 q 174 278 139 278 l 521 278 z "},"¯":{"ha":694,"x_min":139,"x_max":556,"o":"m 139 938 q 174 972 139 972 l 521 972 q 556 938 556 972 l 556 868 q 521 833 556 833 l 174 833 q 139 868 139 833 l 139 938 z "},"°":{"ha":694,"x_min":139,"x_max":556,"o":"m 522 833 q 556 800 556 833 l 556 728 q 522 694 556 694 l 521 694 q 489 701 503 694 l 479 692 q 486 660 486 678 l 486 590 q 451 556 486 556 l 243 556 q 208 590 208 556 l 208 660 q 215 692 208 678 l 206 701 q 174 694 192 694 l 172 694 q 139 728 139 694 l 139 800 q 172 833 139 833 l 174 833 q 206 826 192 833 l 215 836 q 208 868 208 850 l 208 938 q 243 972 208 972 l 451 972 q 486 938 486 972 l 486 868 q 479 836 486 850 l 489 826 q 521 833 503 833 l 522 833 m 278 799 l 278 729 q 271 697 278 711 l 281 688 q 313 694 294 694 l 382 694 q 414 688 400 694 l 424 697 q 417 729 417 711 l 417 799 q 424 831 417 817 l 414 840 q 382 833 400 833 l 313 833 q 281 840 294 833 l 271 831 q 278 799 278 817 z "},"±":{"ha":694,"x_min":69,"x_max":625,"o":"m 590 139 q 625 104 625 139 l 625 35 q 590 0 625 0 l 104 0 q 69 35 69 0 l 69 104 q 104 139 69 139 l 590 139 m 278 938 q 313 972 278 972 l 382 972 q 417 938 417 972 l 417 729 q 410 697 417 711 l 419 688 q 451 694 433 694 l 590 694 q 625 660 625 694 l 625 590 q 590 556 625 556 l 451 556 q 419 563 433 556 l 410 553 q 417 521 417 539 l 417 313 q 382 278 417 278 l 313 278 q 278 313 278 278 l 278 521 q 285 553 278 539 l 275 563 q 243 556 261 556 l 104 556 q 69 590 69 556 l 69 660 q 104 694 69 694 l 243 694 q 275 688 261 694 l 285 697 q 278 729 278 711 l 278 938 z "},"²":{"ha":694,"x_min":69,"x_max":625,"o":"m 590 417 q 625 382 625 417 l 625 313 q 590 278 625 278 l 104 278 q 69 313 69 278 l 69 522 q 103 556 69 556 l 104 556 q 136 549 122 556 l 146 558 q 139 590 139 572 l 139 660 q 174 694 139 694 l 451 694 q 483 688 469 694 l 493 697 q 486 729 486 711 l 486 799 q 493 831 486 817 l 483 840 q 451 833 469 833 l 104 833 q 69 868 69 833 l 69 938 q 104 972 69 972 l 521 972 q 556 938 556 972 l 556 868 q 549 836 556 850 l 558 826 q 590 833 572 833 l 592 833 q 625 800 625 833 l 625 728 q 592 694 625 694 l 590 694 q 558 701 572 694 l 549 692 q 556 660 556 678 l 556 590 q 521 556 556 556 l 243 556 q 211 563 225 556 l 201 553 q 208 521 208 539 l 208 451 q 201 419 208 433 l 211 410 q 243 417 225 417 l 590 417 z "},"³":{"ha":694,"x_min":69,"x_max":625,"o":"m 625 522 l 625 450 q 592 417 625 417 l 590 417 q 558 424 572 417 l 549 414 q 556 382 556 400 l 556 313 q 521 278 556 278 l 174 278 q 139 313 139 278 l 139 382 q 146 414 139 400 l 136 424 q 104 417 122 417 l 103 417 q 69 450 69 417 l 69 521 q 104 556 69 556 l 174 556 q 208 521 208 556 l 208 451 q 201 419 208 433 l 211 410 q 243 417 225 417 l 451 417 q 483 410 469 417 l 493 419 q 486 451 486 433 l 486 521 q 493 553 486 539 l 483 563 q 451 556 469 556 l 313 556 q 278 590 278 556 l 278 660 q 313 694 278 694 l 451 694 q 483 688 469 694 l 493 697 q 486 729 486 711 l 486 799 q 493 831 486 817 l 483 840 q 451 833 469 833 l 243 833 q 211 840 225 833 l 201 831 q 208 799 208 817 l 208 729 q 174 694 208 694 l 104 694 q 69 729 69 694 l 69 800 q 103 833 69 833 l 104 833 q 136 826 122 833 l 146 836 q 139 868 139 850 l 139 938 q 174 972 139 972 l 521 972 q 556 938 556 972 l 556 868 q 549 836 556 850 l 558 826 q 590 833 572 833 l 592 833 q 625 800 625 833 l 625 728 q 592 694 625 694 l 590 694 q 558 701 572 694 l 549 692 q 556 660 556 678 l 556 590 q 549 558 556 572 l 558 549 q 590 556 572 556 l 592 556 q 625 522 625 556 z "},"´":{"ha":694,"x_min":278,"x_max":486,"o":"m 417 868 q 382 833 417 833 l 313 833 q 278 868 278 833 l 278 939 q 311 972 278 972 l 313 972 q 344 965 331 972 l 354 975 q 347 1007 347 989 l 347 1076 q 382 1111 347 1111 l 451 1111 q 486 1076 486 1111 l 486 1006 q 453 972 486 972 l 451 972 q 419 979 433 972 l 410 969 q 417 938 417 956 l 417 868 z "},"µ":{"ha":694,"x_min":69,"x_max":625,"o":"m 208 -243 q 174 -278 208 -278 l 104 -278 q 69 -243 69 -278 l 69 660 q 104 694 69 694 l 174 694 q 208 660 208 694 l 208 174 q 201 142 208 156 l 211 132 q 243 139 225 139 l 451 139 q 483 132 469 139 l 493 142 q 486 174 486 156 l 486 660 q 521 694 486 694 l 590 694 q 625 660 625 694 l 625 35 q 590 0 625 0 l 243 0 q 211 7 225 0 l 201 -3 q 208 -35 208 -17 l 208 -243 z "},"¶":{"ha":694,"x_min":69,"x_max":625,"o":"m 453 833 l 450 833 q 419 840 433 833 l 410 831 q 417 800 417 817 l 417 35 q 382 0 417 0 l 313 0 q 278 35 278 0 l 278 382 q 285 414 278 400 l 275 424 q 243 417 261 417 l 174 417 q 139 451 139 417 l 139 521 q 146 553 139 539 l 136 563 q 104 556 122 556 l 103 556 q 69 589 69 556 l 69 800 q 103 833 69 833 l 104 833 q 136 826 122 833 l 146 836 q 139 868 139 850 l 139 938 q 174 972 139 972 l 590 972 q 625 938 625 972 l 625 35 q 590 0 625 0 l 521 0 q 486 35 486 0 l 486 800 q 493 831 486 817 l 483 840 q 453 833 469 833 z "},"·":{"ha":694,"x_min":208,"x_max":486,"o":"m 451 556 q 486 521 486 556 l 486 313 q 451 278 486 278 l 243 278 q 208 313 208 278 l 208 521 q 243 556 208 556 l 451 556 z "},"¸":{"ha":694,"x_min":139,"x_max":417,"o":"m 383 -139 l 382 -139 q 350 -132 364 -139 l 340 -142 q 347 -174 347 -156 l 347 -243 q 313 -278 347 -278 l 174 -278 q 139 -243 139 -278 l 139 -174 q 174 -139 139 -139 l 243 -139 q 275 -146 261 -139 l 285 -136 q 278 -104 278 -122 l 278 -35 q 313 0 278 0 l 382 0 q 417 -35 417 0 l 417 -106 q 383 -139 417 -139 z "},"¹":{"ha":694,"x_min":69,"x_max":625,"o":"m 208 729 q 174 694 208 694 l 104 694 q 69 729 69 694 l 69 800 q 103 833 69 833 l 104 833 q 136 826 122 833 l 146 836 q 139 868 139 850 l 139 938 q 174 972 139 972 l 382 972 q 417 938 417 972 l 417 451 q 410 419 417 433 l 419 410 q 451 417 433 417 l 590 417 q 625 382 625 417 l 625 313 q 590 278 625 278 l 104 278 q 69 313 69 278 l 69 382 q 104 417 69 417 l 243 417 q 275 410 261 417 l 285 419 q 278 451 278 433 l 278 800 q 285 831 278 817 l 275 840 q 244 833 261 833 l 242 833 q 211 840 225 833 l 201 831 q 208 800 208 817 l 208 729 z "},"º":{"ha":694,"x_min":139,"x_max":556,"o":"m 521 417 q 556 382 556 417 l 556 313 q 521 278 556 278 l 174 278 q 139 313 139 278 l 139 382 q 174 417 139 417 l 521 417 m 522 833 q 556 800 556 833 l 556 728 q 522 694 556 694 l 521 694 q 489 701 503 694 l 479 692 q 486 660 486 678 l 486 590 q 451 556 486 556 l 243 556 q 208 590 208 556 l 208 660 q 215 692 208 678 l 206 701 q 174 694 192 694 l 172 694 q 139 728 139 694 l 139 800 q 172 833 139 833 l 174 833 q 206 826 192 833 l 215 836 q 208 868 208 850 l 208 938 q 243 972 208 972 l 451 972 q 486 938 486 972 l 486 868 q 479 836 486 850 l 489 826 q 521 833 503 833 l 522 833 m 278 799 l 278 729 q 271 697 278 711 l 281 688 q 313 694 294 694 l 382 694 q 414 688 400 694 l 424 697 q 417 729 417 711 l 417 799 q 424 831 417 817 l 414 840 q 382 833 400 833 l 313 833 q 281 840 294 833 l 271 831 q 278 799 278 817 z "},"»":{"ha":694,"x_min":69,"x_max":625,"o":"m 208 311 l 208 382 q 215 414 208 400 l 206 424 q 174 417 192 417 l 172 417 q 139 450 139 417 l 139 521 q 146 553 139 539 l 136 563 q 104 556 122 556 l 103 556 q 69 589 69 556 l 69 660 q 104 694 69 694 l 174 694 q 208 660 208 694 l 208 589 q 201 558 208 572 l 211 549 q 242 556 225 556 l 243 556 q 278 521 278 556 l 278 451 q 271 419 278 433 l 281 410 q 313 417 294 417 l 314 417 q 347 383 347 417 l 347 311 q 314 278 347 278 l 313 278 q 281 285 294 278 l 271 275 q 278 243 278 261 l 278 174 q 243 139 278 139 l 242 139 q 211 146 225 139 l 201 136 q 208 106 208 122 l 208 35 q 174 0 208 0 l 104 0 q 69 35 69 0 l 69 106 q 103 139 69 139 l 104 139 q 136 132 122 139 l 146 142 q 139 174 139 156 l 139 243 q 172 276 139 276 l 174 276 q 206 269 192 276 l 215 279 q 208 311 208 293 m 486 311 l 486 382 q 493 414 486 400 l 483 424 q 451 417 469 417 l 450 417 q 417 450 417 417 l 417 521 q 424 553 417 539 l 414 563 q 382 556 400 556 l 381 556 q 347 589 347 556 l 347 660 q 382 694 347 694 l 451 694 q 486 660 486 694 l 486 589 q 479 558 486 572 l 489 549 q 519 556 503 556 l 521 556 q 556 521 556 556 l 556 451 q 549 419 556 433 l 558 410 q 590 417 572 417 l 592 417 q 625 383 625 417 l 625 311 q 592 278 625 278 l 590 278 q 558 285 572 278 l 549 275 q 556 243 556 261 l 556 174 q 521 139 556 139 l 519 139 q 489 146 503 139 l 479 136 q 486 106 486 122 l 486 35 q 451 0 486 0 l 382 0 q 347 35 347 0 l 347 106 q 381 139 347 139 l 382 139 q 414 132 400 139 l 424 142 q 417 174 417 156 l 417 243 q 450 276 417 276 l 451 276 q 483 269 469 276 l 493 279 q 486 311 486 293 z "},"¼":{"ha":694,"x_min":69,"x_max":625,"o":"m 417 521 q 451 556 417 556 l 453 556 q 483 549 469 556 l 493 558 q 486 589 486 572 l 486 660 q 521 694 486 694 l 590 694 q 625 660 625 694 l 625 35 q 590 0 625 0 l 521 0 q 486 35 486 0 l 486 104 q 493 136 486 122 l 483 146 q 451 139 469 139 l 313 139 q 278 174 278 139 l 278 244 q 311 278 278 278 l 313 278 q 344 271 331 278 l 354 281 q 347 313 347 294 l 347 382 q 382 417 347 417 l 383 417 q 414 410 400 417 l 424 419 q 417 450 417 433 l 417 521 m 174 972 q 208 938 208 972 l 208 313 q 174 278 208 278 l 104 278 q 69 313 69 278 l 69 938 q 104 972 69 972 l 174 972 z "},"½":{"ha":694,"x_min":69,"x_max":625,"o":"m 486 521 q 493 553 486 539 l 483 563 q 451 556 469 556 l 382 556 q 347 590 347 556 l 347 660 q 382 694 347 694 l 521 694 q 556 660 556 694 l 556 590 q 549 558 556 572 l 558 549 q 590 556 572 556 l 592 556 q 625 522 625 556 l 625 450 q 592 417 625 417 l 590 417 q 558 424 572 417 l 549 414 q 556 382 556 400 l 556 313 q 521 278 556 278 l 503 278 q 486 282 494 278 l 482 278 q 486 263 486 269 l 486 174 q 479 142 486 156 l 489 132 q 521 139 503 139 l 590 139 q 625 104 625 139 l 625 35 q 590 0 625 0 l 382 0 q 347 35 347 0 l 347 244 q 381 278 347 278 l 382 278 q 414 271 400 278 l 424 281 q 417 313 417 294 l 417 383 q 450 417 417 417 l 451 417 q 483 410 469 417 l 493 419 q 486 451 486 433 l 486 521 m 174 972 q 208 938 208 972 l 208 313 q 174 278 208 278 l 104 278 q 69 313 69 278 l 69 938 q 104 972 69 972 l 174 972 z "},"¾":{"ha":694,"x_min":69,"x_max":625,"o":"m 278 244 q 311 278 278 278 l 313 278 q 344 271 331 278 l 354 281 q 347 313 347 294 l 347 382 q 382 417 347 417 l 383 417 q 414 410 400 417 l 424 419 q 417 450 417 433 l 417 521 q 451 556 417 556 l 453 556 q 483 549 469 556 l 493 558 q 486 589 486 572 l 486 660 q 521 694 486 694 l 590 694 q 625 660 625 694 l 625 35 q 590 0 625 0 l 521 0 q 486 35 486 0 l 486 104 q 493 136 486 122 l 483 146 q 451 139 469 139 l 313 139 q 278 174 278 139 l 278 244 m 347 522 l 347 450 q 314 417 347 417 l 313 417 q 281 424 294 417 l 271 414 q 278 382 278 400 l 278 313 q 243 278 278 278 l 104 278 q 69 313 69 278 l 69 382 q 104 417 69 417 l 174 417 q 206 410 192 417 l 215 419 q 208 451 208 433 l 208 521 q 215 553 208 539 l 206 563 q 174 556 192 556 l 104 556 q 69 590 69 556 l 69 660 q 104 694 69 694 l 174 694 q 206 688 192 694 l 215 697 q 208 729 208 711 l 208 799 q 215 831 208 817 l 206 840 q 174 833 192 833 l 104 833 q 69 868 69 833 l 69 938 q 104 972 69 972 l 243 972 q 278 938 278 972 l 278 868 q 271 836 278 850 l 281 826 q 313 833 294 833 l 314 833 q 347 800 347 833 l 347 728 q 314 694 347 694 l 313 694 q 281 701 294 694 l 271 692 q 278 660 278 678 l 278 590 q 271 558 278 572 l 281 549 q 313 556 294 556 l 314 556 q 347 522 347 556 z "},"¿":{"ha":694,"x_min":139,"x_max":556,"o":"m 347 33 q 314 0 347 0 l 313 0 q 281 7 294 0 l 271 -3 q 278 -35 278 -17 l 278 -104 q 271 -136 278 -122 l 281 -146 q 313 -139 294 -139 l 382 -139 q 414 -146 400 -139 l 424 -136 q 417 -104 417 -122 l 417 -35 q 451 0 417 0 l 521 0 q 556 -35 556 0 l 556 -106 q 522 -139 556 -139 l 521 -139 q 489 -132 503 -139 l 479 -142 q 486 -174 486 -156 l 486 -243 q 451 -278 486 -278 l 243 -278 q 208 -243 208 -278 l 208 -174 q 215 -142 208 -156 l 206 -132 q 174 -139 192 -139 l 172 -139 q 139 -106 139 -139 l 139 -33 q 172 0 139 0 l 174 0 q 206 -7 192 0 l 215 3 q 208 35 208 17 l 208 104 q 243 139 208 139 l 244 139 q 275 132 261 139 l 285 142 q 278 172 278 156 l 278 243 q 313 278 278 278 l 382 278 q 417 243 417 278 l 417 172 q 383 139 417 139 l 382 139 q 350 146 364 139 l 340 136 q 347 104 347 122 l 347 33 m 243 417 q 208 451 208 417 l 208 660 q 243 694 208 694 l 451 694 q 486 660 486 694 l 486 451 q 451 417 486 417 l 243 417 z "},"À":{"ha":694,"x_min":69,"x_max":625,"o":"m 243 417 l 451 417 q 483 410 469 417 l 493 419 q 486 451 486 433 l 486 521 q 493 553 486 539 l 483 563 q 451 556 469 556 q 417 590 417 556 l 417 660 q 424 692 417 678 l 414 701 q 382 694 400 694 l 313 694 q 281 701 294 694 l 271 692 q 278 660 278 678 l 278 590 q 243 556 278 556 q 211 563 225 556 l 201 553 q 208 521 208 539 l 208 451 q 201 419 208 433 l 211 410 q 243 417 225 417 m 486 35 l 486 243 q 493 275 486 261 l 483 285 q 451 278 469 278 l 243 278 q 211 285 225 278 l 201 275 q 208 243 208 261 l 208 35 q 174 0 208 0 l 104 0 q 69 35 69 0 l 69 522 q 103 556 69 556 l 104 556 q 136 549 122 556 l 146 558 q 139 590 139 572 l 139 660 q 174 694 139 694 l 175 694 q 206 688 192 694 l 215 697 q 208 728 208 711 l 208 799 q 243 833 208 833 l 244 833 q 275 826 261 833 l 285 836 q 278 867 278 850 l 278 938 q 313 972 278 972 l 382 972 q 417 938 417 972 l 417 867 q 410 836 417 850 l 419 826 q 450 833 433 833 l 451 833 q 486 799 486 833 l 486 728 q 479 697 486 711 l 489 688 q 519 694 503 694 l 521 694 q 556 660 556 694 l 556 590 q 549 558 556 572 l 558 549 q 590 556 572 556 l 592 556 q 625 522 625 556 l 625 35 q 590 0 625 0 l 521 0 q 486 35 486 0 m 208 1354 q 243 1389 208 1389 l 313 1389 q 347 1354 347 1389 l 347 1285 q 340 1253 347 1267 l 350 1243 q 382 1250 364 1250 l 383 1250 q 417 1217 417 1250 l 417 1146 q 382 1111 417 1111 l 313 1111 q 278 1146 278 1111 l 278 1215 q 285 1247 278 1233 l 275 1257 q 243 1250 261 1250 l 242 1250 q 208 1283 208 1250 l 208 1354 z "},"Á":{"ha":694,"x_min":69,"x_max":625,"o":"m 243 417 l 451 417 q 483 410 469 417 l 493 419 q 486 451 486 433 l 486 521 q 493 553 486 539 l 483 563 q 451 556 469 556 q 417 590 417 556 l 417 660 q 424 692 417 678 l 414 701 q 382 694 400 694 l 313 694 q 281 701 294 694 l 271 692 q 278 660 278 678 l 278 590 q 243 556 278 556 q 211 563 225 556 l 201 553 q 208 521 208 539 l 208 451 q 201 419 208 433 l 211 410 q 243 417 225 417 m 486 35 l 486 243 q 493 275 486 261 l 483 285 q 451 278 469 278 l 243 278 q 211 285 225 278 l 201 275 q 208 243 208 261 l 208 35 q 174 0 208 0 l 104 0 q 69 35 69 0 l 69 522 q 103 556 69 556 l 104 556 q 136 549 122 556 l 146 558 q 139 590 139 572 l 139 660 q 174 694 139 694 l 175 694 q 206 688 192 694 l 215 697 q 208 728 208 711 l 208 799 q 243 833 208 833 l 244 833 q 275 826 261 833 l 285 836 q 278 867 278 850 l 278 938 q 313 972 278 972 l 382 972 q 417 938 417 972 l 417 867 q 410 836 417 850 l 419 826 q 450 833 433 833 l 451 833 q 486 799 486 833 l 486 728 q 479 697 486 711 l 489 688 q 519 694 503 694 l 521 694 q 556 660 556 694 l 556 590 q 549 558 556 572 l 558 549 q 590 556 572 556 l 592 556 q 625 522 625 556 l 625 35 q 590 0 625 0 l 521 0 q 486 35 486 0 m 417 1146 q 382 1111 417 1111 l 313 1111 q 278 1146 278 1111 l 278 1217 q 311 1250 278 1250 l 313 1250 q 344 1243 331 1250 l 354 1253 q 347 1285 347 1267 l 347 1354 q 382 1389 347 1389 l 451 1389 q 486 1354 486 1389 l 486 1283 q 453 1250 486 1250 l 451 1250 q 419 1257 433 1250 l 410 1247 q 417 1215 417 1233 l 417 1146 z "},"Â":{"ha":694,"x_min":69,"x_max":625,"o":"m 243 417 l 451 417 q 483 410 469 417 l 493 419 q 486 451 486 433 l 486 521 q 493 553 486 539 l 483 563 q 451 556 469 556 q 417 590 417 556 l 417 660 q 424 692 417 678 l 414 701 q 382 694 400 694 l 313 694 q 281 701 294 694 l 271 692 q 278 660 278 678 l 278 590 q 243 556 278 556 q 211 563 225 556 l 201 553 q 208 521 208 539 l 208 451 q 201 419 208 433 l 211 410 q 243 417 225 417 m 486 35 l 486 243 q 493 275 486 261 l 483 285 q 451 278 469 278 l 243 278 q 211 285 225 278 l 201 275 q 208 243 208 261 l 208 35 q 174 0 208 0 l 104 0 q 69 35 69 0 l 69 522 q 103 556 69 556 l 104 556 q 136 549 122 556 l 146 558 q 139 590 139 572 l 139 660 q 174 694 139 694 l 175 694 q 206 688 192 694 l 215 697 q 208 728 208 711 l 208 799 q 243 833 208 833 l 244 833 q 275 826 261 833 l 285 836 q 278 867 278 850 l 278 938 q 313 972 278 972 l 382 972 q 417 938 417 972 l 417 867 q 410 836 417 850 l 419 826 q 450 833 433 833 l 451 833 q 486 799 486 833 l 486 728 q 479 697 486 711 l 489 688 q 519 694 503 694 l 521 694 q 556 660 556 694 l 556 590 q 549 558 556 572 l 558 549 q 590 556 572 556 l 592 556 q 625 522 625 556 l 625 35 q 590 0 625 0 l 521 0 q 486 35 486 0 m 417 1354 l 417 1285 q 410 1253 417 1267 l 419 1243 q 451 1250 433 1250 l 521 1250 q 556 1215 556 1250 l 556 1146 q 521 1111 556 1111 l 174 1111 q 139 1146 139 1111 l 139 1215 q 174 1250 139 1250 l 243 1250 q 275 1243 261 1250 l 285 1253 q 278 1285 278 1267 l 278 1354 q 313 1389 278 1389 l 382 1389 q 417 1354 417 1389 z "},"Ã":{"ha":694,"x_min":69,"x_max":625,"o":"m 243 417 l 451 417 q 483 410 469 417 l 493 419 q 486 451 486 433 l 486 521 q 493 553 486 539 l 483 563 q 451 556 469 556 q 417 590 417 556 l 417 660 q 424 692 417 678 l 414 701 q 382 694 400 694 l 313 694 q 281 701 294 694 l 271 692 q 278 660 278 678 l 278 590 q 243 556 278 556 q 211 563 225 556 l 201 553 q 208 521 208 539 l 208 451 q 201 419 208 433 l 211 410 q 243 417 225 417 m 486 35 l 486 243 q 493 275 486 261 l 483 285 q 451 278 469 278 l 243 278 q 211 285 225 278 l 201 275 q 208 243 208 261 l 208 35 q 174 0 208 0 l 104 0 q 69 35 69 0 l 69 522 q 103 556 69 556 l 104 556 q 136 549 122 556 l 146 558 q 139 590 139 572 l 139 660 q 174 694 139 694 l 175 694 q 206 688 192 694 l 215 697 q 208 728 208 711 l 208 799 q 243 833 208 833 l 244 833 q 275 826 261 833 l 285 836 q 278 867 278 850 l 278 938 q 313 972 278 972 l 382 972 q 417 938 417 972 l 417 867 q 410 836 417 850 l 419 826 q 450 833 433 833 l 451 833 q 486 799 486 833 l 486 728 q 479 697 486 711 l 489 688 q 519 694 503 694 l 521 694 q 556 660 556 694 l 556 590 q 549 558 556 572 l 558 549 q 590 556 572 556 l 592 556 q 625 522 625 556 l 625 35 q 590 0 625 0 l 521 0 q 486 35 486 0 m 278 1146 q 243 1111 278 1111 l 174 1111 q 139 1146 139 1111 l 139 1217 q 172 1250 139 1250 l 174 1250 q 206 1243 192 1250 l 215 1253 q 208 1285 208 1267 l 208 1354 q 243 1389 208 1389 l 382 1389 q 417 1354 417 1389 l 417 1285 q 410 1253 417 1267 l 419 1243 q 451 1250 433 1250 q 483 1243 469 1250 l 493 1253 q 486 1285 486 1267 l 486 1354 q 521 1389 486 1389 l 590 1389 q 625 1354 625 1389 l 625 1283 q 592 1250 625 1250 l 590 1250 q 558 1257 572 1250 l 549 1247 q 556 1215 556 1233 l 556 1146 q 521 1111 556 1111 l 382 1111 q 347 1146 347 1111 l 347 1215 q 354 1247 347 1233 l 344 1257 q 313 1250 331 1250 q 281 1257 294 1250 l 271 1247 q 278 1215 278 1233 l 278 1146 z "},"Ä":{"ha":694,"x_min":69,"x_max":625,"o":"m 243 417 l 451 417 q 483 410 469 417 l 493 419 q 486 451 486 433 l 486 521 q 493 553 486 539 l 483 563 q 451 556 469 556 q 417 590 417 556 l 417 660 q 424 692 417 678 l 414 701 q 382 694 400 694 l 313 694 q 281 701 294 694 l 271 692 q 278 660 278 678 l 278 590 q 243 556 278 556 q 211 563 225 556 l 201 553 q 208 521 208 539 l 208 451 q 201 419 208 433 l 211 410 q 243 417 225 417 m 486 35 l 486 243 q 493 275 486 261 l 483 285 q 451 278 469 278 l 243 278 q 211 285 225 278 l 201 275 q 208 243 208 261 l 208 35 q 174 0 208 0 l 104 0 q 69 35 69 0 l 69 522 q 103 556 69 556 l 104 556 q 136 549 122 556 l 146 558 q 139 590 139 572 l 139 660 q 174 694 139 694 l 175 694 q 206 688 192 694 l 215 697 q 208 728 208 711 l 208 799 q 243 833 208 833 l 244 833 q 275 826 261 833 l 285 836 q 278 867 278 850 l 278 938 q 313 972 278 972 l 382 972 q 417 938 417 972 l 417 867 q 410 836 417 850 l 419 826 q 450 833 433 833 l 451 833 q 486 799 486 833 l 486 728 q 479 697 486 711 l 489 688 q 519 694 503 694 l 521 694 q 556 660 556 694 l 556 590 q 549 558 556 572 l 558 549 q 590 556 572 556 l 592 556 q 625 522 625 556 l 625 35 q 590 0 625 0 l 521 0 q 486 35 486 0 m 278 1146 q 243 1111 278 1111 l 174 1111 q 139 1146 139 1111 l 139 1215 q 174 1250 139 1250 l 243 1250 q 278 1215 278 1250 l 278 1146 m 556 1146 q 521 1111 556 1111 l 451 1111 q 417 1146 417 1111 l 417 1215 q 451 1250 417 1250 l 521 1250 q 556 1215 556 1250 l 556 1146 z "},"Å":{"ha":694,"x_min":69,"x_max":625,"o":"m 278 1215 l 278 1146 q 271 1114 278 1128 l 281 1104 q 313 1111 294 1111 l 382 1111 q 414 1104 400 1111 l 424 1114 q 417 1146 417 1128 l 417 1215 q 424 1247 417 1233 l 414 1257 q 382 1250 400 1250 l 313 1250 q 281 1257 294 1250 l 271 1247 q 278 1215 278 1233 m 243 417 l 451 417 q 483 410 469 417 l 493 419 q 486 451 486 433 l 486 521 q 493 553 486 539 l 483 563 q 451 556 469 556 q 417 590 417 556 l 417 660 q 424 692 417 678 l 414 701 q 382 694 400 694 l 313 694 q 281 701 294 694 l 271 692 q 278 660 278 678 l 278 590 q 243 556 278 556 q 211 563 225 556 l 201 553 q 208 521 208 539 l 208 451 q 201 419 208 433 l 211 410 q 243 417 225 417 m 208 1006 l 208 1076 q 215 1108 208 1094 l 206 1118 q 174 1111 192 1111 l 172 1111 q 139 1144 139 1111 l 139 1217 q 172 1250 139 1250 l 174 1250 q 206 1243 192 1250 l 215 1253 q 208 1285 208 1267 l 208 1354 q 243 1389 208 1389 l 451 1389 q 486 1354 486 1389 l 486 1285 q 479 1253 486 1267 l 489 1243 q 521 1250 503 1250 l 522 1250 q 556 1217 556 1250 l 556 1144 q 522 1111 556 1111 l 521 1111 q 489 1118 503 1111 l 479 1108 q 486 1076 486 1094 l 486 1006 q 453 972 486 972 l 451 972 q 419 979 433 972 l 410 969 q 417 938 417 956 l 417 868 q 410 836 417 850 l 419 826 q 451 833 433 833 l 453 833 q 486 800 486 833 l 486 728 q 479 697 486 711 l 489 688 q 519 694 503 694 l 521 694 q 556 660 556 694 l 556 590 q 549 558 556 572 l 558 549 q 590 556 572 556 l 592 556 q 625 522 625 556 l 625 35 q 590 0 625 0 l 521 0 q 486 35 486 0 l 486 243 q 493 275 486 261 l 483 285 q 451 278 469 278 l 243 278 q 211 285 225 278 l 201 275 q 208 243 208 261 l 208 35 q 174 0 208 0 l 104 0 q 69 35 69 0 l 69 522 q 103 556 69 556 l 104 556 q 136 549 122 556 l 146 558 q 139 590 139 572 l 139 660 q 174 694 139 694 l 175 694 q 206 688 192 694 l 215 697 q 208 728 208 711 l 208 800 q 242 833 208 833 l 243 833 q 275 826 261 833 l 285 836 q 278 868 278 850 l 278 938 q 285 969 278 956 l 275 979 q 243 972 261 972 l 242 972 q 208 1006 208 972 z "},"Æ":{"ha":694,"x_min":69,"x_max":625,"o":"m 347 35 l 347 243 q 354 275 347 261 l 344 285 q 313 278 331 278 l 243 278 q 211 285 225 278 l 201 275 q 208 243 208 261 l 208 35 q 174 0 208 0 l 104 0 q 69 35 69 0 l 69 661 q 103 694 69 694 l 104 694 q 136 688 122 694 l 146 697 q 139 729 139 711 l 139 799 q 174 833 139 833 l 175 833 q 206 826 192 833 l 215 836 q 208 867 208 850 l 208 938 q 243 972 208 972 l 590 972 q 625 938 625 972 l 625 868 q 590 833 625 833 l 521 833 q 489 840 503 833 l 479 831 q 486 799 486 817 l 486 660 q 479 628 486 642 l 489 618 q 521 625 503 625 l 590 625 q 625 590 625 625 l 625 521 q 590 486 625 486 l 521 486 q 489 493 503 486 l 479 483 q 486 451 486 469 l 486 174 q 479 142 486 156 l 489 132 q 521 139 503 139 l 590 139 q 625 104 625 139 l 625 35 q 590 0 625 0 l 382 0 q 347 35 347 0 m 208 660 l 208 451 q 201 419 208 433 l 211 410 q 243 417 225 417 l 313 417 q 344 410 331 417 l 354 419 q 347 451 347 433 l 347 800 q 354 831 347 817 l 344 840 q 314 833 331 833 l 311 833 q 281 840 294 833 l 271 831 q 278 800 278 817 l 278 729 q 243 694 278 694 q 211 701 225 694 l 201 692 q 208 660 208 678 z "},"Ç":{"ha":694,"x_min":69,"x_max":625,"o":"m 243 -139 q 275 -146 261 -139 l 285 -136 q 278 -104 278 -122 l 278 -35 q 285 -3 278 -17 l 275 7 q 243 0 261 0 l 242 0 q 208 33 208 0 l 208 106 q 215 136 208 122 l 206 146 q 175 139 192 139 l 174 139 q 139 174 139 139 l 139 243 q 146 275 139 261 l 136 285 q 104 278 122 278 l 103 278 q 69 311 69 278 l 69 661 q 103 694 69 694 l 104 694 q 136 688 122 694 l 146 697 q 139 729 139 711 l 139 799 q 174 833 139 833 l 175 833 q 206 826 192 833 l 215 836 q 208 867 208 850 l 208 938 q 243 972 208 972 l 451 972 q 486 938 486 972 l 486 867 q 479 836 486 850 l 489 826 q 519 833 503 833 l 521 833 q 556 799 556 833 l 556 729 q 549 697 556 711 l 558 688 q 590 694 572 694 l 592 694 q 625 661 625 694 l 625 590 q 590 556 625 556 l 521 556 q 486 590 486 556 l 486 661 q 493 692 486 678 l 483 701 q 453 694 469 694 l 451 694 q 417 729 417 694 l 417 799 q 424 831 417 817 l 414 840 q 382 833 400 833 l 313 833 q 281 840 294 833 l 271 831 q 278 799 278 817 l 278 729 q 243 694 278 694 q 211 701 225 694 l 201 692 q 208 660 208 678 l 208 313 q 201 281 208 294 l 211 271 q 243 278 225 278 q 278 243 278 278 l 278 174 q 271 142 278 156 l 281 132 q 313 139 294 139 l 382 139 q 414 132 400 139 l 424 142 q 417 174 417 156 l 417 243 q 451 278 417 278 l 453 278 q 483 271 469 278 l 493 281 q 486 311 486 294 l 486 382 q 521 417 486 417 l 590 417 q 625 382 625 417 l 625 311 q 592 278 625 278 l 590 278 q 558 285 572 278 l 549 275 q 556 243 556 261 l 556 174 q 521 139 556 139 l 519 139 q 489 146 503 139 l 479 136 q 486 106 486 122 l 486 35 q 451 0 486 0 l 450 0 q 419 7 433 0 l 410 -3 q 417 -33 417 -17 l 417 -104 q 382 -139 417 -139 l 381 -139 q 350 -132 364 -139 l 340 -142 q 347 -172 347 -156 l 347 -243 q 313 -278 347 -278 l 174 -278 q 139 -243 139 -278 l 139 -174 q 174 -139 139 -139 l 243 -139 z "},"È":{"ha":694,"x_min":69,"x_max":625,"o":"m 590 139 q 625 104 625 139 l 625 35 q 590 0 625 0 l 104 0 q 69 35 69 0 l 69 938 q 104 972 69 972 l 590 972 q 625 938 625 972 l 625 868 q 590 833 625 833 l 243 833 q 211 840 225 833 l 201 831 q 208 799 208 817 l 208 660 q 201 628 208 642 l 211 618 q 243 625 225 625 l 451 625 q 486 590 486 625 l 486 521 q 451 486 486 486 l 243 486 q 211 493 225 486 l 201 483 q 208 451 208 469 l 208 174 q 201 142 208 156 l 211 132 q 243 139 225 139 l 590 139 m 208 1354 q 243 1389 208 1389 l 313 1389 q 347 1354 347 1389 l 347 1285 q 340 1253 347 1267 l 350 1243 q 382 1250 364 1250 l 383 1250 q 417 1217 417 1250 l 417 1146 q 382 1111 417 1111 l 313 1111 q 278 1146 278 1111 l 278 1215 q 285 1247 278 1233 l 275 1257 q 243 1250 261 1250 l 242 1250 q 208 1283 208 1250 l 208 1354 z "},"É":{"ha":694,"x_min":69,"x_max":625,"o":"m 590 139 q 625 104 625 139 l 625 35 q 590 0 625 0 l 104 0 q 69 35 69 0 l 69 938 q 104 972 69 972 l 590 972 q 625 938 625 972 l 625 868 q 590 833 625 833 l 243 833 q 211 840 225 833 l 201 831 q 208 799 208 817 l 208 660 q 201 628 208 642 l 211 618 q 243 625 225 625 l 451 625 q 486 590 486 625 l 486 521 q 451 486 486 486 l 243 486 q 211 493 225 486 l 201 483 q 208 451 208 469 l 208 174 q 201 142 208 156 l 211 132 q 243 139 225 139 l 590 139 m 417 1146 q 382 1111 417 1111 l 313 1111 q 278 1146 278 1111 l 278 1217 q 311 1250 278 1250 l 313 1250 q 344 1243 331 1250 l 354 1253 q 347 1285 347 1267 l 347 1354 q 382 1389 347 1389 l 451 1389 q 486 1354 486 1389 l 486 1283 q 453 1250 486 1250 l 451 1250 q 419 1257 433 1250 l 410 1247 q 417 1215 417 1233 l 417 1146 z "},"Ê":{"ha":694,"x_min":69,"x_max":625,"o":"m 590 139 q 625 104 625 139 l 625 35 q 590 0 625 0 l 104 0 q 69 35 69 0 l 69 938 q 104 972 69 972 l 590 972 q 625 938 625 972 l 625 868 q 590 833 625 833 l 243 833 q 211 840 225 833 l 201 831 q 208 799 208 817 l 208 660 q 201 628 208 642 l 211 618 q 243 625 225 625 l 451 625 q 486 590 486 625 l 486 521 q 451 486 486 486 l 243 486 q 211 493 225 486 l 201 483 q 208 451 208 469 l 208 174 q 201 142 208 156 l 211 132 q 243 139 225 139 l 590 139 m 417 1354 l 417 1285 q 410 1253 417 1267 l 419 1243 q 451 1250 433 1250 l 521 1250 q 556 1215 556 1250 l 556 1146 q 521 1111 556 1111 l 174 1111 q 139 1146 139 1111 l 139 1215 q 174 1250 139 1250 l 243 1250 q 275 1243 261 1250 l 285 1253 q 278 1285 278 1267 l 278 1354 q 313 1389 278 1389 l 382 1389 q 417 1354 417 1389 z "},"Ë":{"ha":694,"x_min":69,"x_max":625,"o":"m 590 139 q 625 104 625 139 l 625 35 q 590 0 625 0 l 104 0 q 69 35 69 0 l 69 938 q 104 972 69 972 l 590 972 q 625 938 625 972 l 625 868 q 590 833 625 833 l 243 833 q 211 840 225 833 l 201 831 q 208 799 208 817 l 208 660 q 201 628 208 642 l 211 618 q 243 625 225 625 l 451 625 q 486 590 486 625 l 486 521 q 451 486 486 486 l 243 486 q 211 493 225 486 l 201 483 q 208 451 208 469 l 208 174 q 201 142 208 156 l 211 132 q 243 139 225 139 l 590 139 m 278 1146 q 243 1111 278 1111 l 174 1111 q 139 1146 139 1111 l 139 1215 q 174 1250 139 1250 l 243 1250 q 278 1215 278 1250 l 278 1146 m 556 1146 q 521 1111 556 1111 l 451 1111 q 417 1146 417 1111 l 417 1215 q 451 1250 417 1250 l 521 1250 q 556 1215 556 1250 l 556 1146 z "},"Ì":{"ha":694,"x_min":139,"x_max":556,"o":"m 521 139 q 556 104 556 139 l 556 35 q 521 0 556 0 l 174 0 q 139 35 139 0 l 139 104 q 174 139 139 139 l 243 139 q 275 132 261 139 l 285 142 q 278 174 278 156 l 278 799 q 285 831 278 817 l 275 840 q 243 833 261 833 l 174 833 q 139 868 139 833 l 139 938 q 174 972 139 972 l 521 972 q 556 938 556 972 l 556 868 q 521 833 556 833 l 451 833 q 419 840 433 833 l 410 831 q 417 799 417 817 l 417 174 q 410 142 417 156 l 419 132 q 451 139 433 139 l 521 139 m 208 1354 q 243 1389 208 1389 l 313 1389 q 347 1354 347 1389 l 347 1285 q 340 1253 347 1267 l 350 1243 q 382 1250 364 1250 l 383 1250 q 417 1217 417 1250 l 417 1146 q 382 1111 417 1111 l 313 1111 q 278 1146 278 1111 l 278 1215 q 285 1247 278 1233 l 275 1257 q 243 1250 261 1250 l 242 1250 q 208 1283 208 1250 l 208 1354 z "},"Í":{"ha":694,"x_min":139,"x_max":556,"o":"m 521 139 q 556 104 556 139 l 556 35 q 521 0 556 0 l 174 0 q 139 35 139 0 l 139 104 q 174 139 139 139 l 243 139 q 275 132 261 139 l 285 142 q 278 174 278 156 l 278 799 q 285 831 278 817 l 275 840 q 243 833 261 833 l 174 833 q 139 868 139 833 l 139 938 q 174 972 139 972 l 521 972 q 556 938 556 972 l 556 868 q 521 833 556 833 l 451 833 q 419 840 433 833 l 410 831 q 417 799 417 817 l 417 174 q 410 142 417 156 l 419 132 q 451 139 433 139 l 521 139 m 417 1146 q 382 1111 417 1111 l 313 1111 q 278 1146 278 1111 l 278 1217 q 311 1250 278 1250 l 313 1250 q 344 1243 331 1250 l 354 1253 q 347 1285 347 1267 l 347 1354 q 382 1389 347 1389 l 451 1389 q 486 1354 486 1389 l 486 1283 q 453 1250 486 1250 l 451 1250 q 419 1257 433 1250 l 410 1247 q 417 1215 417 1233 l 417 1146 z "},"Î":{"ha":694,"x_min":139,"x_max":556,"o":"m 521 139 q 556 104 556 139 l 556 35 q 521 0 556 0 l 174 0 q 139 35 139 0 l 139 104 q 174 139 139 139 l 243 139 q 275 132 261 139 l 285 142 q 278 174 278 156 l 278 799 q 285 831 278 817 l 275 840 q 243 833 261 833 l 174 833 q 139 868 139 833 l 139 938 q 174 972 139 972 l 521 972 q 556 938 556 972 l 556 868 q 521 833 556 833 l 451 833 q 419 840 433 833 l 410 831 q 417 799 417 817 l 417 174 q 410 142 417 156 l 419 132 q 451 139 433 139 l 521 139 m 417 1354 l 417 1285 q 410 1253 417 1267 l 419 1243 q 451 1250 433 1250 l 521 1250 q 556 1215 556 1250 l 556 1146 q 521 1111 556 1111 l 174 1111 q 139 1146 139 1111 l 139 1215 q 174 1250 139 1250 l 243 1250 q 275 1243 261 1250 l 285 1253 q 278 1285 278 1267 l 278 1354 q 313 1389 278 1389 l 382 1389 q 417 1354 417 1389 z "},"Ï":{"ha":694,"x_min":139,"x_max":556,"o":"m 521 139 q 556 104 556 139 l 556 35 q 521 0 556 0 l 174 0 q 139 35 139 0 l 139 104 q 174 139 139 139 l 243 139 q 275 132 261 139 l 285 142 q 278 174 278 156 l 278 799 q 285 831 278 817 l 275 840 q 243 833 261 833 l 174 833 q 139 868 139 833 l 139 938 q 174 972 139 972 l 521 972 q 556 938 556 972 l 556 868 q 521 833 556 833 l 451 833 q 419 840 433 833 l 410 831 q 417 799 417 817 l 417 174 q 410 142 417 156 l 419 132 q 451 139 433 139 l 521 139 m 278 1146 q 243 1111 278 1111 l 174 1111 q 139 1146 139 1111 l 139 1215 q 174 1250 139 1250 l 243 1250 q 278 1215 278 1250 l 278 1146 m 556 1146 q 521 1111 556 1111 l 451 1111 q 417 1146 417 1111 l 417 1215 q 451 1250 417 1250 l 521 1250 q 556 1215 556 1250 l 556 1146 z "},"Ð":{"ha":694,"x_min":0,"x_max":625,"o":"m 69 35 l 69 382 q 76 414 69 400 l 67 424 q 35 417 53 417 l 33 417 q 0 450 0 417 l 0 522 q 33 556 0 556 l 35 556 q 67 549 53 556 l 76 558 q 69 590 69 572 l 69 938 q 104 972 69 972 l 451 972 q 486 938 486 972 l 486 867 q 479 836 486 850 l 489 826 q 519 833 503 833 l 521 833 q 556 799 556 833 l 556 729 q 549 697 556 711 l 558 688 q 590 694 572 694 l 592 694 q 625 661 625 694 l 625 311 q 592 278 625 278 l 590 278 q 558 285 572 278 l 549 275 q 556 243 556 261 l 556 174 q 521 139 556 139 l 519 139 q 489 146 503 139 l 479 136 q 486 106 486 122 l 486 35 q 451 0 486 0 l 104 0 q 69 35 69 0 m 417 729 l 417 799 q 424 831 417 817 l 414 840 q 382 833 400 833 l 243 833 q 211 840 225 833 l 201 831 q 208 799 208 817 l 208 590 q 201 558 208 572 l 211 549 q 243 556 225 556 l 313 556 q 347 521 347 556 l 347 451 q 313 417 347 417 l 243 417 q 211 424 225 417 l 201 414 q 208 382 208 400 l 208 174 q 201 142 208 156 l 211 132 q 243 139 225 139 l 382 139 q 414 132 400 139 l 424 142 q 417 174 417 156 l 417 243 q 451 278 417 278 q 483 271 469 278 l 493 281 q 486 313 486 294 l 486 660 q 493 692 486 678 l 483 701 q 451 694 469 694 q 417 729 417 694 z "},"Ñ":{"ha":694,"x_min":69,"x_max":625,"o":"m 69 938 q 104 972 69 972 l 174 972 q 208 938 208 972 l 208 867 q 201 836 208 850 l 211 826 q 242 833 225 833 l 243 833 q 278 799 278 833 l 278 728 q 271 697 278 711 l 281 688 q 311 694 294 694 l 313 694 q 347 660 347 694 l 347 589 q 340 558 347 572 l 350 549 q 381 556 364 556 l 382 556 q 417 521 417 556 l 417 450 q 410 419 417 433 l 419 410 q 450 417 433 417 l 453 417 q 483 410 469 417 l 493 419 q 486 450 486 433 l 486 938 q 521 972 486 972 l 590 972 q 625 938 625 972 l 625 35 q 590 0 625 0 l 521 0 q 486 35 486 0 l 486 106 q 493 136 486 122 l 483 146 q 453 139 469 139 l 451 139 q 417 174 417 139 l 417 244 q 424 275 417 261 l 414 285 q 383 278 400 278 l 382 278 q 347 313 347 278 l 347 383 q 354 414 347 400 l 344 424 q 314 417 331 417 l 313 417 q 278 451 278 417 l 278 522 q 285 553 278 539 l 275 563 q 244 556 261 556 l 242 556 q 211 563 225 556 l 201 553 q 208 522 208 539 l 208 35 q 174 0 208 0 l 104 0 q 69 35 69 0 l 69 938 m 278 1146 q 243 1111 278 1111 l 174 1111 q 139 1146 139 1111 l 139 1217 q 172 1250 139 1250 l 174 1250 q 206 1243 192 1250 l 215 1253 q 208 1285 208 1267 l 208 1354 q 243 1389 208 1389 l 382 1389 q 417 1354 417 1389 l 417 1285 q 410 1253 417 1267 l 419 1243 q 451 1250 433 1250 q 483 1243 469 1250 l 493 1253 q 486 1285 486 1267 l 486 1354 q 521 1389 486 1389 l 590 1389 q 625 1354 625 1389 l 625 1283 q 592 1250 625 1250 l 590 1250 q 558 1257 572 1250 l 549 1247 q 556 1215 556 1233 l 556 1146 q 521 1111 556 1111 l 382 1111 q 347 1146 347 1111 l 347 1215 q 354 1247 347 1233 l 344 1257 q 313 1250 331 1250 q 281 1257 294 1250 l 271 1247 q 278 1215 278 1233 l 278 1146 z "},"Ò":{"ha":694,"x_min":69,"x_max":625,"o":"m 592 694 q 625 661 625 694 l 625 311 q 592 278 625 278 l 590 278 q 558 285 572 278 l 549 275 q 556 243 556 261 l 556 174 q 521 139 556 139 l 519 139 q 489 146 503 139 l 479 136 q 486 106 486 122 l 486 35 q 451 0 486 0 l 243 0 q 208 35 208 0 l 208 106 q 215 136 208 122 l 206 146 q 175 139 192 139 l 174 139 q 139 174 139 139 l 139 243 q 146 275 139 261 l 136 285 q 104 278 122 278 l 103 278 q 69 311 69 278 l 69 661 q 103 694 69 694 l 104 694 q 136 688 122 694 l 146 697 q 139 729 139 711 l 139 799 q 174 833 139 833 l 175 833 q 206 826 192 833 l 215 836 q 208 867 208 850 l 208 938 q 243 972 208 972 l 451 972 q 486 938 486 972 l 486 867 q 479 836 486 850 l 489 826 q 519 833 503 833 l 521 833 q 556 799 556 833 l 556 729 q 549 697 556 711 l 558 688 q 590 694 572 694 l 592 694 m 451 278 q 483 271 469 278 l 493 281 q 486 313 486 294 l 486 660 q 493 692 486 678 l 483 701 q 451 694 469 694 q 417 729 417 694 l 417 799 q 424 831 417 817 l 414 840 q 382 833 400 833 l 313 833 q 281 840 294 833 l 271 831 q 278 799 278 817 l 278 729 q 243 694 278 694 q 211 701 225 694 l 201 692 q 208 660 208 678 l 208 313 q 201 281 208 294 l 211 271 q 243 278 225 278 q 278 243 278 278 l 278 174 q 271 142 278 156 l 281 132 q 313 139 294 139 l 382 139 q 414 132 400 139 l 424 142 q 417 174 417 156 l 417 243 q 451 278 417 278 m 208 1354 q 243 1389 208 1389 l 313 1389 q 347 1354 347 1389 l 347 1285 q 340 1253 347 1267 l 350 1243 q 382 1250 364 1250 l 383 1250 q 417 1217 417 1250 l 417 1146 q 382 1111 417 1111 l 313 1111 q 278 1146 278 1111 l 278 1215 q 285 1247 278 1233 l 275 1257 q 243 1250 261 1250 l 242 1250 q 208 1283 208 1250 l 208 1354 z "},"Ó":{"ha":694,"x_min":69,"x_max":625,"o":"m 592 694 q 625 661 625 694 l 625 311 q 592 278 625 278 l 590 278 q 558 285 572 278 l 549 275 q 556 243 556 261 l 556 174 q 521 139 556 139 l 519 139 q 489 146 503 139 l 479 136 q 486 106 486 122 l 486 35 q 451 0 486 0 l 243 0 q 208 35 208 0 l 208 106 q 215 136 208 122 l 206 146 q 175 139 192 139 l 174 139 q 139 174 139 139 l 139 243 q 146 275 139 261 l 136 285 q 104 278 122 278 l 103 278 q 69 311 69 278 l 69 661 q 103 694 69 694 l 104 694 q 136 688 122 694 l 146 697 q 139 729 139 711 l 139 799 q 174 833 139 833 l 175 833 q 206 826 192 833 l 215 836 q 208 867 208 850 l 208 938 q 243 972 208 972 l 451 972 q 486 938 486 972 l 486 867 q 479 836 486 850 l 489 826 q 519 833 503 833 l 521 833 q 556 799 556 833 l 556 729 q 549 697 556 711 l 558 688 q 590 694 572 694 l 592 694 m 451 278 q 483 271 469 278 l 493 281 q 486 313 486 294 l 486 660 q 493 692 486 678 l 483 701 q 451 694 469 694 q 417 729 417 694 l 417 799 q 424 831 417 817 l 414 840 q 382 833 400 833 l 313 833 q 281 840 294 833 l 271 831 q 278 799 278 817 l 278 729 q 243 694 278 694 q 211 701 225 694 l 201 692 q 208 660 208 678 l 208 313 q 201 281 208 294 l 211 271 q 243 278 225 278 q 278 243 278 278 l 278 174 q 271 142 278 156 l 281 132 q 313 139 294 139 l 382 139 q 414 132 400 139 l 424 142 q 417 174 417 156 l 417 243 q 451 278 417 278 m 417 1146 q 382 1111 417 1111 l 313 1111 q 278 1146 278 1111 l 278 1217 q 311 1250 278 1250 l 313 1250 q 344 1243 331 1250 l 354 1253 q 347 1285 347 1267 l 347 1354 q 382 1389 347 1389 l 451 1389 q 486 1354 486 1389 l 486 1283 q 453 1250 486 1250 l 451 1250 q 419 1257 433 1250 l 410 1247 q 417 1215 417 1233 l 417 1146 z "},"Ô":{"ha":694,"x_min":69,"x_max":625,"o":"m 592 694 q 625 661 625 694 l 625 311 q 592 278 625 278 l 590 278 q 558 285 572 278 l 549 275 q 556 243 556 261 l 556 174 q 521 139 556 139 l 519 139 q 489 146 503 139 l 479 136 q 486 106 486 122 l 486 35 q 451 0 486 0 l 243 0 q 208 35 208 0 l 208 106 q 215 136 208 122 l 206 146 q 175 139 192 139 l 174 139 q 139 174 139 139 l 139 243 q 146 275 139 261 l 136 285 q 104 278 122 278 l 103 278 q 69 311 69 278 l 69 661 q 103 694 69 694 l 104 694 q 136 688 122 694 l 146 697 q 139 729 139 711 l 139 799 q 174 833 139 833 l 175 833 q 206 826 192 833 l 215 836 q 208 867 208 850 l 208 938 q 243 972 208 972 l 451 972 q 486 938 486 972 l 486 867 q 479 836 486 850 l 489 826 q 519 833 503 833 l 521 833 q 556 799 556 833 l 556 729 q 549 697 556 711 l 558 688 q 590 694 572 694 l 592 694 m 451 278 q 483 271 469 278 l 493 281 q 486 313 486 294 l 486 660 q 493 692 486 678 l 483 701 q 451 694 469 694 q 417 729 417 694 l 417 799 q 424 831 417 817 l 414 840 q 382 833 400 833 l 313 833 q 281 840 294 833 l 271 831 q 278 799 278 817 l 278 729 q 243 694 278 694 q 211 701 225 694 l 201 692 q 208 660 208 678 l 208 313 q 201 281 208 294 l 211 271 q 243 278 225 278 q 278 243 278 278 l 278 174 q 271 142 278 156 l 281 132 q 313 139 294 139 l 382 139 q 414 132 400 139 l 424 142 q 417 174 417 156 l 417 243 q 451 278 417 278 m 417 1354 l 417 1285 q 410 1253 417 1267 l 419 1243 q 451 1250 433 1250 l 521 1250 q 556 1215 556 1250 l 556 1146 q 521 1111 556 1111 l 174 1111 q 139 1146 139 1111 l 139 1215 q 174 1250 139 1250 l 243 1250 q 275 1243 261 1250 l 285 1253 q 278 1285 278 1267 l 278 1354 q 313 1389 278 1389 l 382 1389 q 417 1354 417 1389 z "},"Õ":{"ha":694,"x_min":69,"x_max":625,"o":"m 592 694 q 625 661 625 694 l 625 311 q 592 278 625 278 l 590 278 q 558 285 572 278 l 549 275 q 556 243 556 261 l 556 174 q 521 139 556 139 l 519 139 q 489 146 503 139 l 479 136 q 486 106 486 122 l 486 35 q 451 0 486 0 l 243 0 q 208 35 208 0 l 208 106 q 215 136 208 122 l 206 146 q 175 139 192 139 l 174 139 q 139 174 139 139 l 139 243 q 146 275 139 261 l 136 285 q 104 278 122 278 l 103 278 q 69 311 69 278 l 69 661 q 103 694 69 694 l 104 694 q 136 688 122 694 l 146 697 q 139 729 139 711 l 139 799 q 174 833 139 833 l 175 833 q 206 826 192 833 l 215 836 q 208 867 208 850 l 208 938 q 243 972 208 972 l 451 972 q 486 938 486 972 l 486 867 q 479 836 486 850 l 489 826 q 519 833 503 833 l 521 833 q 556 799 556 833 l 556 729 q 549 697 556 711 l 558 688 q 590 694 572 694 l 592 694 m 451 278 q 483 271 469 278 l 493 281 q 486 313 486 294 l 486 660 q 493 692 486 678 l 483 701 q 451 694 469 694 q 417 729 417 694 l 417 799 q 424 831 417 817 l 414 840 q 382 833 400 833 l 313 833 q 281 840 294 833 l 271 831 q 278 799 278 817 l 278 729 q 243 694 278 694 q 211 701 225 694 l 201 692 q 208 660 208 678 l 208 313 q 201 281 208 294 l 211 271 q 243 278 225 278 q 278 243 278 278 l 278 174 q 271 142 278 156 l 281 132 q 313 139 294 139 l 382 139 q 414 132 400 139 l 424 142 q 417 174 417 156 l 417 243 q 451 278 417 278 m 278 1146 q 243 1111 278 1111 l 174 1111 q 139 1146 139 1111 l 139 1217 q 172 1250 139 1250 l 174 1250 q 206 1243 192 1250 l 215 1253 q 208 1285 208 1267 l 208 1354 q 243 1389 208 1389 l 382 1389 q 417 1354 417 1389 l 417 1285 q 410 1253 417 1267 l 419 1243 q 451 1250 433 1250 q 483 1243 469 1250 l 493 1253 q 486 1285 486 1267 l 486 1354 q 521 1389 486 1389 l 590 1389 q 625 1354 625 1389 l 625 1283 q 592 1250 625 1250 l 590 1250 q 558 1257 572 1250 l 549 1247 q 556 1215 556 1233 l 556 1146 q 521 1111 556 1111 l 382 1111 q 347 1146 347 1111 l 347 1215 q 354 1247 347 1233 l 344 1257 q 313 1250 331 1250 q 281 1257 294 1250 l 271 1247 q 278 1215 278 1233 l 278 1146 z "},"Ö":{"ha":694,"x_min":69,"x_max":625,"o":"m 592 694 q 625 661 625 694 l 625 311 q 592 278 625 278 l 590 278 q 558 285 572 278 l 549 275 q 556 243 556 261 l 556 174 q 521 139 556 139 l 519 139 q 489 146 503 139 l 479 136 q 486 106 486 122 l 486 35 q 451 0 486 0 l 243 0 q 208 35 208 0 l 208 106 q 215 136 208 122 l 206 146 q 175 139 192 139 l 174 139 q 139 174 139 139 l 139 243 q 146 275 139 261 l 136 285 q 104 278 122 278 l 103 278 q 69 311 69 278 l 69 661 q 103 694 69 694 l 104 694 q 136 688 122 694 l 146 697 q 139 729 139 711 l 139 799 q 174 833 139 833 l 175 833 q 206 826 192 833 l 215 836 q 208 867 208 850 l 208 938 q 243 972 208 972 l 451 972 q 486 938 486 972 l 486 867 q 479 836 486 850 l 489 826 q 519 833 503 833 l 521 833 q 556 799 556 833 l 556 729 q 549 697 556 711 l 558 688 q 590 694 572 694 l 592 694 m 451 278 q 483 271 469 278 l 493 281 q 486 313 486 294 l 486 660 q 493 692 486 678 l 483 701 q 451 694 469 694 q 417 729 417 694 l 417 799 q 424 831 417 817 l 414 840 q 382 833 400 833 l 313 833 q 281 840 294 833 l 271 831 q 278 799 278 817 l 278 729 q 243 694 278 694 q 211 701 225 694 l 201 692 q 208 660 208 678 l 208 313 q 201 281 208 294 l 211 271 q 243 278 225 278 q 278 243 278 278 l 278 174 q 271 142 278 156 l 281 132 q 313 139 294 139 l 382 139 q 414 132 400 139 l 424 142 q 417 174 417 156 l 417 243 q 451 278 417 278 m 278 1146 q 243 1111 278 1111 l 174 1111 q 139 1146 139 1111 l 139 1215 q 174 1250 139 1250 l 243 1250 q 278 1215 278 1250 l 278 1146 m 556 1146 q 521 1111 556 1111 l 451 1111 q 417 1146 417 1111 l 417 1215 q 451 1250 417 1250 l 521 1250 q 556 1215 556 1250 l 556 1146 z "},"×":{"ha":694,"x_min":69,"x_max":625,"o":"m 139 174 l 139 243 q 174 278 139 278 q 206 271 192 278 l 215 281 q 208 313 208 294 l 208 382 q 215 414 208 400 l 206 424 q 174 417 192 417 q 139 451 139 417 l 139 521 q 146 553 139 539 l 136 563 q 104 556 122 556 l 103 556 q 69 589 69 556 l 69 660 q 104 694 69 694 l 174 694 q 208 660 208 694 l 208 589 q 201 558 208 572 l 211 549 q 242 556 225 556 l 243 556 q 278 521 278 556 l 278 451 q 271 419 278 433 l 281 410 q 313 417 294 417 l 382 417 q 414 410 400 417 l 424 419 q 417 451 417 433 l 417 521 q 451 556 417 556 l 453 556 q 483 549 469 556 l 493 558 q 486 589 486 572 l 486 660 q 521 694 486 694 l 590 694 q 625 660 625 694 l 625 589 q 592 556 625 556 l 590 556 q 558 563 572 556 l 549 553 q 556 521 556 539 l 556 451 q 521 417 556 417 q 489 424 503 417 l 479 414 q 486 382 486 400 l 486 313 q 479 281 486 294 l 489 271 q 521 278 503 278 q 556 243 556 278 l 556 174 q 549 142 556 156 l 558 132 q 590 139 572 139 l 592 139 q 625 106 625 139 l 625 35 q 590 0 625 0 l 521 0 q 486 35 486 0 l 486 106 q 493 136 486 122 l 483 146 q 453 139 469 139 l 451 139 q 417 174 417 139 l 417 243 q 424 275 417 261 l 414 285 q 382 278 400 278 l 313 278 q 281 285 294 278 l 271 275 q 278 243 278 261 l 278 174 q 243 139 278 139 l 242 139 q 211 146 225 139 l 201 136 q 208 106 208 122 l 208 35 q 174 0 208 0 l 104 0 q 69 35 69 0 l 69 106 q 103 139 69 139 l 104 139 q 136 132 122 139 l 146 142 q 139 174 139 156 z "},"Ø":{"ha":694,"x_min":69,"x_max":625,"o":"m 417 313 q 382 278 417 278 l 313 278 q 278 313 278 278 l 278 660 q 313 694 278 694 l 382 694 q 417 660 417 694 l 417 313 m 451 278 q 483 271 469 278 l 493 281 q 486 313 486 294 l 486 660 q 493 692 486 678 l 483 701 q 451 694 469 694 q 417 729 417 694 l 417 799 q 424 831 417 817 l 414 840 q 382 833 400 833 l 313 833 q 281 840 294 833 l 271 831 q 278 799 278 817 l 278 729 q 243 694 278 694 q 211 701 225 694 l 201 692 q 208 660 208 678 l 208 313 q 201 281 208 294 l 211 271 q 243 278 225 278 q 278 243 278 278 l 278 174 q 271 142 278 156 l 281 132 q 313 139 294 139 l 382 139 q 414 132 400 139 l 424 142 q 417 174 417 156 l 417 243 q 451 278 417 278 m 139 -33 q 172 0 139 0 l 174 0 q 206 -7 192 0 l 215 3 q 208 35 208 17 l 208 104 q 215 136 208 122 l 206 146 q 174 139 192 139 l 172 139 q 139 172 139 139 l 139 243 q 146 275 139 261 l 136 285 q 104 278 122 278 l 103 278 q 69 311 69 278 l 69 661 q 103 694 69 694 l 104 694 q 136 688 122 694 l 146 697 q 139 729 139 711 l 139 799 q 174 833 139 833 l 175 833 q 206 826 192 833 l 215 836 q 208 867 208 850 l 208 938 q 243 972 208 972 l 382 972 q 414 965 400 972 l 424 975 q 417 1007 417 989 l 417 1076 q 451 1111 417 1111 l 521 1111 q 556 1076 556 1111 l 556 1006 q 522 972 556 972 l 521 972 q 489 979 503 972 l 479 969 q 486 938 486 956 l 486 868 q 479 836 486 850 l 489 826 q 521 833 503 833 l 522 833 q 556 800 556 833 l 556 729 q 549 697 556 711 l 558 688 q 590 694 572 694 l 592 694 q 625 661 625 694 l 625 311 q 592 278 625 278 l 590 278 q 558 285 572 278 l 549 275 q 556 243 556 261 l 556 174 q 521 139 556 139 l 519 139 q 489 146 503 139 l 479 136 q 486 106 486 122 l 486 35 q 451 0 486 0 l 313 0 q 281 7 294 0 l 271 -3 q 278 -35 278 -17 l 278 -104 q 243 -139 278 -139 l 174 -139 q 139 -104 139 -139 l 139 -33 z "},"Ù":{"ha":694,"x_min":69,"x_max":625,"o":"m 590 972 q 625 938 625 972 l 625 172 q 592 139 625 139 l 590 139 q 558 146 572 139 l 549 136 q 556 104 556 122 l 556 35 q 521 0 556 0 l 174 0 q 139 35 139 0 l 139 104 q 146 136 139 122 l 136 146 q 104 139 122 139 l 103 139 q 69 172 69 139 l 69 938 q 104 972 69 972 l 174 972 q 208 938 208 972 l 208 174 q 201 142 208 156 l 211 132 q 243 139 225 139 l 451 139 q 483 132 469 139 l 493 142 q 486 174 486 156 l 486 938 q 521 972 486 972 l 590 972 m 208 1354 q 243 1389 208 1389 l 313 1389 q 347 1354 347 1389 l 347 1285 q 340 1253 347 1267 l 350 1243 q 382 1250 364 1250 l 383 1250 q 417 1217 417 1250 l 417 1146 q 382 1111 417 1111 l 313 1111 q 278 1146 278 1111 l 278 1215 q 285 1247 278 1233 l 275 1257 q 243 1250 261 1250 l 242 1250 q 208 1283 208 1250 l 208 1354 z "},"Ú":{"ha":694,"x_min":69,"x_max":625,"o":"m 590 972 q 625 938 625 972 l 625 172 q 592 139 625 139 l 590 139 q 558 146 572 139 l 549 136 q 556 104 556 122 l 556 35 q 521 0 556 0 l 174 0 q 139 35 139 0 l 139 104 q 146 136 139 122 l 136 146 q 104 139 122 139 l 103 139 q 69 172 69 139 l 69 938 q 104 972 69 972 l 174 972 q 208 938 208 972 l 208 174 q 201 142 208 156 l 211 132 q 243 139 225 139 l 451 139 q 483 132 469 139 l 493 142 q 486 174 486 156 l 486 938 q 521 972 486 972 l 590 972 m 417 1146 q 382 1111 417 1111 l 313 1111 q 278 1146 278 1111 l 278 1217 q 311 1250 278 1250 l 313 1250 q 344 1243 331 1250 l 354 1253 q 347 1285 347 1267 l 347 1354 q 382 1389 347 1389 l 451 1389 q 486 1354 486 1389 l 486 1283 q 453 1250 486 1250 l 451 1250 q 419 1257 433 1250 l 410 1247 q 417 1215 417 1233 l 417 1146 z "},"Û":{"ha":694,"x_min":69,"x_max":625,"o":"m 590 972 q 625 938 625 972 l 625 172 q 592 139 625 139 l 590 139 q 558 146 572 139 l 549 136 q 556 104 556 122 l 556 35 q 521 0 556 0 l 174 0 q 139 35 139 0 l 139 104 q 146 136 139 122 l 136 146 q 104 139 122 139 l 103 139 q 69 172 69 139 l 69 938 q 104 972 69 972 l 174 972 q 208 938 208 972 l 208 174 q 201 142 208 156 l 211 132 q 243 139 225 139 l 451 139 q 483 132 469 139 l 493 142 q 486 174 486 156 l 486 938 q 521 972 486 972 l 590 972 m 417 1354 l 417 1285 q 410 1253 417 1267 l 419 1243 q 451 1250 433 1250 l 521 1250 q 556 1215 556 1250 l 556 1146 q 521 1111 556 1111 l 174 1111 q 139 1146 139 1111 l 139 1215 q 174 1250 139 1250 l 243 1250 q 275 1243 261 1250 l 285 1253 q 278 1285 278 1267 l 278 1354 q 313 1389 278 1389 l 382 1389 q 417 1354 417 1389 z "},"Ü":{"ha":694,"x_min":69,"x_max":625,"o":"m 590 972 q 625 938 625 972 l 625 172 q 592 139 625 139 l 590 139 q 558 146 572 139 l 549 136 q 556 104 556 122 l 556 35 q 521 0 556 0 l 174 0 q 139 35 139 0 l 139 104 q 146 136 139 122 l 136 146 q 104 139 122 139 l 103 139 q 69 172 69 139 l 69 938 q 104 972 69 972 l 174 972 q 208 938 208 972 l 208 174 q 201 142 208 156 l 211 132 q 243 139 225 139 l 451 139 q 483 132 469 139 l 493 142 q 486 174 486 156 l 486 938 q 521 972 486 972 l 590 972 m 278 1146 q 243 1111 278 1111 l 174 1111 q 139 1146 139 1111 l 139 1215 q 174 1250 139 1250 l 243 1250 q 278 1215 278 1250 l 278 1146 m 556 1146 q 521 1111 556 1111 l 451 1111 q 417 1146 417 1111 l 417 1215 q 451 1250 417 1250 l 521 1250 q 556 1215 556 1250 l 556 1146 z "},"Ý":{"ha":694,"x_min":69,"x_max":625,"o":"m 590 972 q 625 938 625 972 l 625 728 q 592 694 625 694 l 590 694 q 558 701 572 694 l 549 692 q 556 660 556 678 l 556 590 q 521 556 556 556 l 519 556 q 489 563 503 556 l 479 553 q 486 522 486 539 l 486 451 q 451 417 486 417 l 450 417 q 419 424 433 417 l 410 414 q 417 383 417 400 l 417 35 q 382 0 417 0 l 313 0 q 278 35 278 0 l 278 383 q 285 414 278 400 l 275 424 q 244 417 261 417 l 243 417 q 208 451 208 417 l 208 522 q 215 553 208 539 l 206 563 q 175 556 192 556 l 174 556 q 139 590 139 556 l 139 660 q 146 692 139 678 l 136 701 q 104 694 122 694 l 103 694 q 69 728 69 694 l 69 938 q 104 972 69 972 l 174 972 q 208 938 208 972 l 208 728 q 201 697 208 711 l 211 688 q 242 694 225 694 l 243 694 q 278 660 278 694 l 278 590 q 271 558 278 572 l 281 549 q 313 556 294 556 l 382 556 q 414 549 400 556 l 424 558 q 417 590 417 572 l 417 660 q 451 694 417 694 l 453 694 q 483 688 469 694 l 493 697 q 486 728 486 711 l 486 938 q 521 972 486 972 l 590 972 m 417 1146 q 382 1111 417 1111 l 313 1111 q 278 1146 278 1111 l 278 1217 q 311 1250 278 1250 l 313 1250 q 344 1243 331 1250 l 354 1253 q 347 1285 347 1267 l 347 1354 q 382 1389 347 1389 l 451 1389 q 486 1354 486 1389 l 486 1283 q 453 1250 486 1250 l 451 1250 q 419 1257 433 1250 l 410 1247 q 417 1215 417 1233 l 417 1146 z "},"Þ":{"ha":694,"x_min":69,"x_max":625,"o":"m 592 556 q 625 522 625 556 l 625 450 q 592 417 625 417 l 590 417 q 558 424 572 417 l 549 414 q 556 382 556 400 l 556 313 q 521 278 556 278 l 519 278 q 489 285 503 278 l 479 275 q 486 244 486 261 l 486 174 q 451 139 486 139 l 243 139 q 211 146 225 139 l 201 136 q 208 104 208 122 l 208 35 q 174 0 208 0 l 104 0 q 69 35 69 0 l 69 938 q 104 972 69 972 l 174 972 q 208 938 208 972 l 208 868 q 201 836 208 850 l 211 826 q 243 833 225 833 l 451 833 q 486 799 486 833 l 486 728 q 479 697 486 711 l 489 688 q 519 694 503 694 l 521 694 q 556 660 556 694 l 556 590 q 549 558 556 572 l 558 549 q 590 556 572 556 l 592 556 m 451 556 q 417 590 417 556 l 417 660 q 424 692 417 678 l 414 701 q 382 694 400 694 l 243 694 q 211 701 225 694 l 201 692 q 208 660 208 678 l 208 313 q 201 281 208 294 l 211 271 q 243 278 225 278 l 382 278 q 414 271 400 278 l 424 281 q 417 313 417 294 l 417 382 q 451 417 417 417 q 483 410 469 417 l 493 419 q 486 451 486 433 l 486 521 q 493 553 486 539 l 483 563 q 451 556 469 556 z "},"ß":{"ha":694,"x_min":69,"x_max":625,"o":"m 556 800 l 556 589 q 522 556 556 556 l 521 556 q 489 563 503 556 l 479 553 q 486 521 486 539 l 486 451 q 479 419 486 433 l 489 410 q 521 417 503 417 l 522 417 q 556 383 556 417 l 556 313 q 549 281 556 294 l 558 271 q 590 278 572 278 l 592 278 q 625 244 625 278 l 625 172 q 592 139 625 139 l 590 139 q 558 146 572 139 l 549 136 q 556 104 556 122 l 556 35 q 521 0 556 0 l 382 0 q 347 35 347 0 l 347 104 q 382 139 347 139 l 451 139 q 483 132 469 139 l 493 142 q 486 174 486 156 l 486 243 q 493 275 486 261 l 483 285 q 451 278 469 278 l 450 278 q 417 311 417 278 l 417 382 q 424 414 417 400 l 414 424 q 382 417 400 417 l 381 417 q 347 450 347 417 l 347 522 q 381 556 347 556 l 382 556 q 414 549 400 556 l 424 558 q 417 590 417 572 l 417 799 q 424 831 417 817 l 414 840 q 382 833 400 833 l 243 833 q 211 840 225 833 l 201 831 q 208 799 208 817 l 208 35 q 174 0 208 0 l 104 0 q 69 35 69 0 l 69 800 q 103 833 69 833 l 104 833 q 136 826 122 833 l 146 836 q 139 868 139 850 l 139 938 q 174 972 139 972 l 451 972 q 486 938 486 972 l 486 868 q 479 836 486 850 l 489 826 q 521 833 503 833 l 522 833 q 556 800 556 833 z "},"à":{"ha":694,"x_min":69,"x_max":625,"o":"m 486 451 l 486 521 q 493 553 486 539 l 483 563 q 451 556 469 556 l 174 556 q 139 590 139 556 l 139 660 q 174 694 139 694 l 521 694 q 556 660 556 694 l 556 590 q 549 558 556 572 l 558 549 q 590 556 572 556 l 592 556 q 625 522 625 556 l 625 35 q 590 0 625 0 l 174 0 q 139 35 139 0 l 139 104 q 146 136 139 122 l 136 146 q 104 139 122 139 l 103 139 q 69 172 69 139 l 69 244 q 103 278 69 278 l 104 278 q 136 271 122 278 l 146 281 q 139 313 139 294 l 139 382 q 174 417 139 417 l 451 417 q 483 410 469 417 l 493 419 q 486 451 486 433 m 208 243 l 208 174 q 201 142 208 156 l 211 132 q 243 139 225 139 l 451 139 q 483 132 469 139 l 493 142 q 486 174 486 156 l 486 243 q 493 275 486 261 l 483 285 q 451 278 469 278 l 243 278 q 211 285 225 278 l 201 275 q 208 243 208 261 m 208 1076 q 243 1111 208 1111 l 313 1111 q 347 1076 347 1111 l 347 1007 q 340 975 347 989 l 350 965 q 382 972 364 972 l 383 972 q 417 939 417 972 l 417 868 q 382 833 417 833 l 313 833 q 278 868 278 833 l 278 938 q 285 969 278 956 l 275 979 q 243 972 261 972 l 242 972 q 208 1006 208 972 l 208 1076 z "},"á":{"ha":694,"x_min":69,"x_max":625,"o":"m 486 451 l 486 521 q 493 553 486 539 l 483 563 q 451 556 469 556 l 174 556 q 139 590 139 556 l 139 660 q 174 694 139 694 l 521 694 q 556 660 556 694 l 556 590 q 549 558 556 572 l 558 549 q 590 556 572 556 l 592 556 q 625 522 625 556 l 625 35 q 590 0 625 0 l 174 0 q 139 35 139 0 l 139 104 q 146 136 139 122 l 136 146 q 104 139 122 139 l 103 139 q 69 172 69 139 l 69 244 q 103 278 69 278 l 104 278 q 136 271 122 278 l 146 281 q 139 313 139 294 l 139 382 q 174 417 139 417 l 451 417 q 483 410 469 417 l 493 419 q 486 451 486 433 m 208 243 l 208 174 q 201 142 208 156 l 211 132 q 243 139 225 139 l 451 139 q 483 132 469 139 l 493 142 q 486 174 486 156 l 486 243 q 493 275 486 261 l 483 285 q 451 278 469 278 l 243 278 q 211 285 225 278 l 201 275 q 208 243 208 261 m 417 868 q 382 833 417 833 l 313 833 q 278 868 278 833 l 278 939 q 311 972 278 972 l 313 972 q 344 965 331 972 l 354 975 q 347 1007 347 989 l 347 1076 q 382 1111 347 1111 l 451 1111 q 486 1076 486 1111 l 486 1006 q 453 972 486 972 l 451 972 q 419 979 433 972 l 410 969 q 417 938 417 956 l 417 868 z "},"â":{"ha":694,"x_min":69,"x_max":625,"o":"m 486 451 l 486 521 q 493 553 486 539 l 483 563 q 451 556 469 556 l 174 556 q 139 590 139 556 l 139 660 q 174 694 139 694 l 521 694 q 556 660 556 694 l 556 590 q 549 558 556 572 l 558 549 q 590 556 572 556 l 592 556 q 625 522 625 556 l 625 35 q 590 0 625 0 l 174 0 q 139 35 139 0 l 139 104 q 146 136 139 122 l 136 146 q 104 139 122 139 l 103 139 q 69 172 69 139 l 69 244 q 103 278 69 278 l 104 278 q 136 271 122 278 l 146 281 q 139 313 139 294 l 139 382 q 174 417 139 417 l 451 417 q 483 410 469 417 l 493 419 q 486 451 486 433 m 208 243 l 208 174 q 201 142 208 156 l 211 132 q 243 139 225 139 l 451 139 q 483 132 469 139 l 493 142 q 486 174 486 156 l 486 243 q 493 275 486 261 l 483 285 q 451 278 469 278 l 243 278 q 211 285 225 278 l 201 275 q 208 243 208 261 m 417 1076 l 417 1007 q 410 975 417 989 l 419 965 q 451 972 433 972 l 521 972 q 556 938 556 972 l 556 868 q 521 833 556 833 l 174 833 q 139 868 139 833 l 139 938 q 174 972 139 972 l 243 972 q 275 965 261 972 l 285 975 q 278 1007 278 989 l 278 1076 q 313 1111 278 1111 l 382 1111 q 417 1076 417 1111 z "},"ã":{"ha":694,"x_min":69,"x_max":625,"o":"m 486 451 l 486 521 q 493 553 486 539 l 483 563 q 451 556 469 556 l 174 556 q 139 590 139 556 l 139 660 q 174 694 139 694 l 521 694 q 556 660 556 694 l 556 590 q 549 558 556 572 l 558 549 q 590 556 572 556 l 592 556 q 625 522 625 556 l 625 35 q 590 0 625 0 l 174 0 q 139 35 139 0 l 139 104 q 146 136 139 122 l 136 146 q 104 139 122 139 l 103 139 q 69 172 69 139 l 69 244 q 103 278 69 278 l 104 278 q 136 271 122 278 l 146 281 q 139 313 139 294 l 139 382 q 174 417 139 417 l 451 417 q 483 410 469 417 l 493 419 q 486 451 486 433 m 208 243 l 208 174 q 201 142 208 156 l 211 132 q 243 139 225 139 l 451 139 q 483 132 469 139 l 493 142 q 486 174 486 156 l 486 243 q 493 275 486 261 l 483 285 q 451 278 469 278 l 243 278 q 211 285 225 278 l 201 275 q 208 243 208 261 m 278 868 q 243 833 278 833 l 174 833 q 139 868 139 833 l 139 939 q 172 972 139 972 l 174 972 q 206 965 192 972 l 215 975 q 208 1007 208 989 l 208 1076 q 243 1111 208 1111 l 382 1111 q 417 1076 417 1111 l 417 1007 q 410 975 417 989 l 419 965 q 451 972 433 972 q 483 965 469 972 l 493 975 q 486 1007 486 989 l 486 1076 q 521 1111 486 1111 l 590 1111 q 625 1076 625 1111 l 625 1006 q 592 972 625 972 l 590 972 q 558 979 572 972 l 549 969 q 556 938 556 956 l 556 868 q 521 833 556 833 l 382 833 q 347 868 347 833 l 347 938 q 354 969 347 956 l 344 979 q 313 972 331 972 q 281 979 294 972 l 271 969 q 278 938 278 956 l 278 868 z "},"ä":{"ha":694,"x_min":69,"x_max":625,"o":"m 486 451 l 486 521 q 493 553 486 539 l 483 563 q 451 556 469 556 l 174 556 q 139 590 139 556 l 139 660 q 174 694 139 694 l 521 694 q 556 660 556 694 l 556 590 q 549 558 556 572 l 558 549 q 590 556 572 556 l 592 556 q 625 522 625 556 l 625 35 q 590 0 625 0 l 174 0 q 139 35 139 0 l 139 104 q 146 136 139 122 l 136 146 q 104 139 122 139 l 103 139 q 69 172 69 139 l 69 244 q 103 278 69 278 l 104 278 q 136 271 122 278 l 146 281 q 139 313 139 294 l 139 382 q 174 417 139 417 l 451 417 q 483 410 469 417 l 493 419 q 486 451 486 433 m 208 243 l 208 174 q 201 142 208 156 l 211 132 q 243 139 225 139 l 451 139 q 483 132 469 139 l 493 142 q 486 174 486 156 l 486 243 q 493 275 486 261 l 483 285 q 451 278 469 278 l 243 278 q 211 285 225 278 l 201 275 q 208 243 208 261 m 278 868 q 243 833 278 833 l 174 833 q 139 868 139 833 l 139 938 q 174 972 139 972 l 243 972 q 278 938 278 972 l 278 868 m 556 868 q 521 833 556 833 l 451 833 q 417 868 417 833 l 417 938 q 451 972 417 972 l 521 972 q 556 938 556 972 l 556 868 z "},"å":{"ha":694,"x_min":69,"x_max":625,"o":"m 556 867 q 522 833 556 833 l 521 833 q 489 840 503 833 l 479 831 q 486 799 486 817 l 486 729 q 479 697 486 711 l 489 688 q 521 694 503 694 l 522 694 q 556 661 556 694 l 556 590 q 549 558 556 572 l 558 549 q 590 556 572 556 l 592 556 q 625 522 625 556 l 625 35 q 590 0 625 0 l 174 0 q 139 35 139 0 l 139 104 q 146 136 139 122 l 136 146 q 104 139 122 139 l 103 139 q 69 172 69 139 l 69 244 q 103 278 69 278 l 104 278 q 136 271 122 278 l 146 281 q 139 313 139 294 l 139 382 q 174 417 139 417 l 451 417 q 483 410 469 417 l 493 419 q 486 451 486 433 l 486 521 q 493 553 486 539 l 483 563 q 451 556 469 556 l 174 556 q 139 590 139 556 l 139 661 q 172 694 139 694 l 174 694 q 206 688 192 694 l 215 697 q 208 729 208 711 l 208 799 q 215 831 208 817 l 206 840 q 174 833 192 833 l 172 833 q 139 867 139 833 l 139 939 q 172 972 139 972 l 174 972 q 206 965 192 972 l 215 975 q 208 1007 208 989 l 208 1076 q 243 1111 208 1111 l 451 1111 q 486 1076 486 1111 l 486 1007 q 479 975 486 989 l 489 965 q 521 972 503 972 l 522 972 q 556 939 556 972 l 556 867 m 208 243 l 208 174 q 201 142 208 156 l 211 132 q 243 139 225 139 l 451 139 q 483 132 469 139 l 493 142 q 486 174 486 156 l 486 243 q 493 275 486 261 l 483 285 q 451 278 469 278 l 243 278 q 211 285 225 278 l 201 275 q 208 243 208 261 m 278 938 l 278 868 q 271 836 278 850 l 281 826 q 313 833 294 833 l 382 833 q 414 826 400 833 l 424 836 q 417 868 417 850 l 417 938 q 424 969 417 956 l 414 979 q 382 972 400 972 l 313 972 q 281 979 294 972 l 271 969 q 278 938 278 956 z "},"æ":{"ha":694,"x_min":0,"x_max":694,"o":"m 104 694 l 590 694 q 625 660 625 694 l 625 590 q 618 558 625 572 l 628 549 q 660 556 642 556 l 661 556 q 694 522 694 556 l 694 313 q 660 278 694 278 l 451 278 q 419 285 433 278 l 410 275 q 417 243 417 261 l 417 174 q 410 142 417 156 l 419 132 q 451 139 433 139 l 660 139 q 694 104 694 139 l 694 35 q 660 0 694 0 l 104 0 q 69 35 69 0 l 69 104 q 76 136 69 122 l 67 146 q 35 139 53 139 l 33 139 q 0 172 0 139 l 0 244 q 33 278 0 278 l 35 278 q 67 271 53 278 l 76 281 q 69 313 69 294 l 69 382 q 104 417 69 417 l 243 417 q 275 410 261 417 l 285 419 q 278 451 278 433 l 278 521 q 285 553 278 539 l 275 563 q 243 556 261 556 l 104 556 q 69 590 69 556 l 69 660 q 104 694 69 694 m 139 243 l 139 174 q 132 142 139 156 l 142 132 q 174 139 156 139 l 243 139 q 275 132 261 139 l 285 142 q 278 174 278 156 l 278 243 q 285 275 278 261 l 275 285 q 243 278 261 278 l 174 278 q 142 285 156 278 l 132 275 q 139 243 139 261 m 556 451 l 556 521 q 563 553 556 539 l 553 563 q 521 556 539 556 l 451 556 q 419 563 433 556 l 410 553 q 417 521 417 539 l 417 451 q 410 419 417 433 l 419 410 q 451 417 433 417 l 521 417 q 553 410 539 417 l 563 419 q 556 451 556 433 z "},"ç":{"ha":694,"x_min":69,"x_max":625,"o":"m 278 521 l 278 451 q 243 417 278 417 q 211 424 225 417 l 201 414 q 208 382 208 400 l 208 313 q 201 281 208 294 l 211 271 q 243 278 225 278 q 278 243 278 278 l 278 174 q 271 142 278 156 l 281 132 q 313 139 294 139 l 451 139 q 483 132 469 139 l 493 142 q 486 174 486 156 l 486 243 q 521 278 486 278 l 590 278 q 625 243 625 278 l 625 172 q 592 139 625 139 l 590 139 q 558 146 572 139 l 549 136 q 556 104 556 122 l 556 35 q 521 0 556 0 l 519 0 q 489 7 503 0 l 479 -3 q 486 -33 486 -17 l 486 -104 q 451 -139 486 -139 l 450 -139 q 419 -132 433 -139 l 410 -142 q 417 -172 417 -156 l 417 -243 q 382 -278 417 -278 l 243 -278 q 208 -243 208 -278 l 208 -174 q 243 -139 208 -139 l 313 -139 q 344 -146 331 -139 l 354 -136 q 347 -104 347 -122 l 347 -35 q 354 -3 347 -17 l 344 7 q 313 0 331 0 l 243 0 q 208 35 208 0 l 208 106 q 215 136 208 122 l 206 146 q 175 139 192 139 l 174 139 q 139 174 139 139 l 139 243 q 146 275 139 261 l 136 285 q 104 278 122 278 l 103 278 q 69 311 69 278 l 69 383 q 103 417 69 417 l 104 417 q 136 410 122 417 l 146 419 q 139 451 139 433 l 139 521 q 174 556 139 556 l 175 556 q 206 549 192 556 l 215 558 q 208 589 208 572 l 208 660 q 243 694 208 694 l 521 694 q 556 660 556 694 l 556 590 q 549 558 556 572 l 558 549 q 590 556 572 556 l 592 556 q 625 522 625 556 l 625 451 q 590 417 625 417 l 521 417 q 486 451 486 417 l 486 521 q 493 553 486 539 l 483 563 q 451 556 469 556 l 313 556 q 281 563 294 556 l 271 553 q 278 521 278 539 z "},"è":{"ha":694,"x_min":69,"x_max":625,"o":"m 625 313 q 590 278 625 278 l 313 278 q 281 285 294 278 l 271 275 q 278 243 278 261 l 278 174 q 271 142 278 156 l 281 132 q 313 139 294 139 l 590 139 q 625 104 625 139 l 625 35 q 590 0 625 0 l 243 0 q 208 35 208 0 l 208 106 q 215 136 208 122 l 206 146 q 175 139 192 139 l 174 139 q 139 174 139 139 l 139 243 q 146 275 139 261 l 136 285 q 104 278 122 278 l 103 278 q 69 311 69 278 l 69 383 q 103 417 69 417 l 104 417 q 136 410 122 417 l 146 419 q 139 451 139 433 l 139 521 q 174 556 139 556 l 175 556 q 206 549 192 556 l 215 558 q 208 589 208 572 l 208 660 q 243 694 208 694 l 451 694 q 486 660 486 694 l 486 589 q 479 558 486 572 l 489 549 q 519 556 503 556 l 521 556 q 556 521 556 556 l 556 451 q 549 419 556 433 l 558 410 q 590 417 572 417 l 592 417 q 625 383 625 417 l 625 313 m 417 451 l 417 521 q 424 553 417 539 l 414 563 q 382 556 400 556 l 313 556 q 281 563 294 556 l 271 553 q 278 521 278 539 l 278 451 q 271 419 278 433 l 281 410 q 313 417 294 417 l 382 417 q 414 410 400 417 l 424 419 q 417 451 417 433 m 208 1076 q 243 1111 208 1111 l 313 1111 q 347 1076 347 1111 l 347 1007 q 340 975 347 989 l 350 965 q 382 972 364 972 l 383 972 q 417 939 417 972 l 417 868 q 382 833 417 833 l 313 833 q 278 868 278 833 l 278 938 q 285 969 278 956 l 275 979 q 243 972 261 972 l 242 972 q 208 1006 208 972 l 208 1076 z "},"é":{"ha":694,"x_min":69,"x_max":625,"o":"m 625 313 q 590 278 625 278 l 313 278 q 281 285 294 278 l 271 275 q 278 243 278 261 l 278 174 q 271 142 278 156 l 281 132 q 313 139 294 139 l 590 139 q 625 104 625 139 l 625 35 q 590 0 625 0 l 243 0 q 208 35 208 0 l 208 106 q 215 136 208 122 l 206 146 q 175 139 192 139 l 174 139 q 139 174 139 139 l 139 243 q 146 275 139 261 l 136 285 q 104 278 122 278 l 103 278 q 69 311 69 278 l 69 383 q 103 417 69 417 l 104 417 q 136 410 122 417 l 146 419 q 139 451 139 433 l 139 521 q 174 556 139 556 l 175 556 q 206 549 192 556 l 215 558 q 208 589 208 572 l 208 660 q 243 694 208 694 l 451 694 q 486 660 486 694 l 486 589 q 479 558 486 572 l 489 549 q 519 556 503 556 l 521 556 q 556 521 556 556 l 556 451 q 549 419 556 433 l 558 410 q 590 417 572 417 l 592 417 q 625 383 625 417 l 625 313 m 417 451 l 417 521 q 424 553 417 539 l 414 563 q 382 556 400 556 l 313 556 q 281 563 294 556 l 271 553 q 278 521 278 539 l 278 451 q 271 419 278 433 l 281 410 q 313 417 294 417 l 382 417 q 414 410 400 417 l 424 419 q 417 451 417 433 m 417 868 q 382 833 417 833 l 313 833 q 278 868 278 833 l 278 939 q 311 972 278 972 l 313 972 q 344 965 331 972 l 354 975 q 347 1007 347 989 l 347 1076 q 382 1111 347 1111 l 451 1111 q 486 1076 486 1111 l 486 1006 q 453 972 486 972 l 451 972 q 419 979 433 972 l 410 969 q 417 938 417 956 l 417 868 z "},"ê":{"ha":694,"x_min":69,"x_max":625,"o":"m 625 313 q 590 278 625 278 l 313 278 q 281 285 294 278 l 271 275 q 278 243 278 261 l 278 174 q 271 142 278 156 l 281 132 q 313 139 294 139 l 590 139 q 625 104 625 139 l 625 35 q 590 0 625 0 l 243 0 q 208 35 208 0 l 208 106 q 215 136 208 122 l 206 146 q 175 139 192 139 l 174 139 q 139 174 139 139 l 139 243 q 146 275 139 261 l 136 285 q 104 278 122 278 l 103 278 q 69 311 69 278 l 69 383 q 103 417 69 417 l 104 417 q 136 410 122 417 l 146 419 q 139 451 139 433 l 139 521 q 174 556 139 556 l 175 556 q 206 549 192 556 l 215 558 q 208 589 208 572 l 208 660 q 243 694 208 694 l 451 694 q 486 660 486 694 l 486 589 q 479 558 486 572 l 489 549 q 519 556 503 556 l 521 556 q 556 521 556 556 l 556 451 q 549 419 556 433 l 558 410 q 590 417 572 417 l 592 417 q 625 383 625 417 l 625 313 m 417 451 l 417 521 q 424 553 417 539 l 414 563 q 382 556 400 556 l 313 556 q 281 563 294 556 l 271 553 q 278 521 278 539 l 278 451 q 271 419 278 433 l 281 410 q 313 417 294 417 l 382 417 q 414 410 400 417 l 424 419 q 417 451 417 433 m 417 1076 l 417 1007 q 410 975 417 989 l 419 965 q 451 972 433 972 l 521 972 q 556 938 556 972 l 556 868 q 521 833 556 833 l 174 833 q 139 868 139 833 l 139 938 q 174 972 139 972 l 243 972 q 275 965 261 972 l 285 975 q 278 1007 278 989 l 278 1076 q 313 1111 278 1111 l 382 1111 q 417 1076 417 1111 z "},"ë":{"ha":694,"x_min":69,"x_max":625,"o":"m 625 313 q 590 278 625 278 l 313 278 q 281 285 294 278 l 271 275 q 278 243 278 261 l 278 174 q 271 142 278 156 l 281 132 q 313 139 294 139 l 590 139 q 625 104 625 139 l 625 35 q 590 0 625 0 l 243 0 q 208 35 208 0 l 208 106 q 215 136 208 122 l 206 146 q 175 139 192 139 l 174 139 q 139 174 139 139 l 139 243 q 146 275 139 261 l 136 285 q 104 278 122 278 l 103 278 q 69 311 69 278 l 69 383 q 103 417 69 417 l 104 417 q 136 410 122 417 l 146 419 q 139 451 139 433 l 139 521 q 174 556 139 556 l 175 556 q 206 549 192 556 l 215 558 q 208 589 208 572 l 208 660 q 243 694 208 694 l 451 694 q 486 660 486 694 l 486 589 q 479 558 486 572 l 489 549 q 519 556 503 556 l 521 556 q 556 521 556 556 l 556 451 q 549 419 556 433 l 558 410 q 590 417 572 417 l 592 417 q 625 383 625 417 l 625 313 m 417 451 l 417 521 q 424 553 417 539 l 414 563 q 382 556 400 556 l 313 556 q 281 563 294 556 l 271 553 q 278 521 278 539 l 278 451 q 271 419 278 433 l 281 410 q 313 417 294 417 l 382 417 q 414 410 400 417 l 424 419 q 417 451 417 433 m 278 868 q 243 833 278 833 l 174 833 q 139 868 139 833 l 139 938 q 174 972 139 972 l 243 972 q 278 938 278 972 l 278 868 m 556 868 q 521 833 556 833 l 451 833 q 417 868 417 833 l 417 938 q 451 972 417 972 l 521 972 q 556 938 556 972 l 556 868 z "},"ì":{"ha":694,"x_min":69,"x_max":625,"o":"m 625 35 q 590 0 625 0 l 104 0 q 69 35 69 0 l 69 104 q 104 139 69 139 l 243 139 q 275 132 261 139 l 285 142 q 278 174 278 156 l 278 521 q 285 553 278 539 l 275 563 q 243 556 261 556 l 104 556 q 69 590 69 556 l 69 660 q 104 694 69 694 l 382 694 q 417 660 417 694 l 417 174 q 410 142 417 156 l 419 132 q 451 139 433 139 l 590 139 q 625 104 625 139 l 625 35 m 208 1076 q 243 1111 208 1111 l 313 1111 q 347 1076 347 1111 l 347 1007 q 340 975 347 989 l 350 965 q 382 972 364 972 l 383 972 q 417 939 417 972 l 417 868 q 382 833 417 833 l 313 833 q 278 868 278 833 l 278 938 q 285 969 278 956 l 275 979 q 243 972 261 972 l 242 972 q 208 1006 208 972 l 208 1076 z "},"í":{"ha":694,"x_min":69,"x_max":625,"o":"m 625 35 q 590 0 625 0 l 104 0 q 69 35 69 0 l 69 104 q 104 139 69 139 l 243 139 q 275 132 261 139 l 285 142 q 278 174 278 156 l 278 521 q 285 553 278 539 l 275 563 q 243 556 261 556 l 104 556 q 69 590 69 556 l 69 660 q 104 694 69 694 l 382 694 q 417 660 417 694 l 417 174 q 410 142 417 156 l 419 132 q 451 139 433 139 l 590 139 q 625 104 625 139 l 625 35 m 417 868 q 382 833 417 833 l 313 833 q 278 868 278 833 l 278 939 q 311 972 278 972 l 313 972 q 344 965 331 972 l 354 975 q 347 1007 347 989 l 347 1076 q 382 1111 347 1111 l 451 1111 q 486 1076 486 1111 l 486 1006 q 453 972 486 972 l 451 972 q 419 979 433 972 l 410 969 q 417 938 417 956 l 417 868 z "},"î":{"ha":694,"x_min":69,"x_max":625,"o":"m 625 35 q 590 0 625 0 l 104 0 q 69 35 69 0 l 69 104 q 104 139 69 139 l 243 139 q 275 132 261 139 l 285 142 q 278 174 278 156 l 278 521 q 285 553 278 539 l 275 563 q 243 556 261 556 l 104 556 q 69 590 69 556 l 69 660 q 104 694 69 694 l 382 694 q 417 660 417 694 l 417 174 q 410 142 417 156 l 419 132 q 451 139 433 139 l 590 139 q 625 104 625 139 l 625 35 m 417 1076 l 417 1007 q 410 975 417 989 l 419 965 q 451 972 433 972 l 521 972 q 556 938 556 972 l 556 868 q 521 833 556 833 l 174 833 q 139 868 139 833 l 139 938 q 174 972 139 972 l 243 972 q 275 965 261 972 l 285 975 q 278 1007 278 989 l 278 1076 q 313 1111 278 1111 l 382 1111 q 417 1076 417 1111 z "},"ï":{"ha":694,"x_min":69,"x_max":625,"o":"m 625 35 q 590 0 625 0 l 104 0 q 69 35 69 0 l 69 104 q 104 139 69 139 l 243 139 q 275 132 261 139 l 285 142 q 278 174 278 156 l 278 521 q 285 553 278 539 l 275 563 q 243 556 261 556 l 104 556 q 69 590 69 556 l 69 660 q 104 694 69 694 l 382 694 q 417 660 417 694 l 417 174 q 410 142 417 156 l 419 132 q 451 139 433 139 l 590 139 q 625 104 625 139 l 625 35 m 278 868 q 243 833 278 833 l 174 833 q 139 868 139 833 l 139 938 q 174 972 139 972 l 243 972 q 278 938 278 972 l 278 868 m 556 868 q 521 833 556 833 l 451 833 q 417 868 417 833 l 417 938 q 451 972 417 972 l 521 972 q 556 938 556 972 l 556 868 z "},"ð":{"ha":694,"x_min":69,"x_max":625,"o":"m 486 660 l 486 590 q 479 558 486 572 l 489 549 q 521 556 503 556 l 522 556 q 556 522 556 556 l 556 451 q 549 419 556 433 l 558 410 q 590 417 572 417 l 592 417 q 625 383 625 417 l 625 172 q 592 139 625 139 l 590 139 q 558 146 572 139 l 549 136 q 556 104 556 122 l 556 35 q 521 0 556 0 l 174 0 q 139 35 139 0 l 139 104 q 146 136 139 122 l 136 146 q 104 139 122 139 l 103 139 q 69 172 69 139 l 69 383 q 103 417 69 417 l 104 417 q 136 410 122 417 l 146 419 q 139 451 139 433 l 139 521 q 174 556 139 556 l 313 556 q 344 549 331 556 l 354 558 q 347 590 347 572 l 347 660 q 354 692 347 678 l 344 701 q 313 694 331 694 l 104 694 q 69 729 69 694 l 69 799 q 104 833 69 833 l 174 833 q 206 826 192 833 l 215 836 q 208 868 208 850 l 208 938 q 243 972 208 972 l 313 972 q 347 938 347 972 l 347 868 q 340 836 347 850 l 350 826 q 382 833 364 833 l 590 833 q 625 799 625 833 l 625 729 q 590 694 625 694 l 521 694 q 489 701 503 694 l 479 692 q 486 660 486 678 m 486 174 l 486 382 q 493 414 486 400 l 483 424 q 451 417 469 417 l 243 417 q 211 424 225 417 l 201 414 q 208 382 208 400 l 208 174 q 201 142 208 156 l 211 132 q 243 139 225 139 l 451 139 q 483 132 469 139 l 493 142 q 486 174 486 156 z "},"ñ":{"ha":694,"x_min":69,"x_max":625,"o":"m 208 35 q 174 0 208 0 l 104 0 q 69 35 69 0 l 69 660 q 104 694 69 694 l 521 694 q 556 660 556 694 l 556 590 q 549 558 556 572 l 558 549 q 590 556 572 556 l 592 556 q 625 522 625 556 l 625 35 q 590 0 625 0 l 521 0 q 486 35 486 0 l 486 521 q 493 553 486 539 l 483 563 q 451 556 469 556 l 243 556 q 211 563 225 556 l 201 553 q 208 521 208 539 l 208 35 m 278 868 q 243 833 278 833 l 174 833 q 139 868 139 833 l 139 939 q 172 972 139 972 l 174 972 q 206 965 192 972 l 215 975 q 208 1007 208 989 l 208 1076 q 243 1111 208 1111 l 382 1111 q 417 1076 417 1111 l 417 1007 q 410 975 417 989 l 419 965 q 451 972 433 972 q 483 965 469 972 l 493 975 q 486 1007 486 989 l 486 1076 q 521 1111 486 1111 l 590 1111 q 625 1076 625 1111 l 625 1006 q 592 972 625 972 l 590 972 q 558 979 572 972 l 549 969 q 556 938 556 956 l 556 868 q 521 833 556 833 l 382 833 q 347 868 347 833 l 347 938 q 354 969 347 956 l 344 979 q 313 972 331 972 q 281 979 294 972 l 271 969 q 278 938 278 956 l 278 868 z "},"ò":{"ha":694,"x_min":69,"x_max":625,"o":"m 592 417 q 625 383 625 417 l 625 311 q 592 278 625 278 l 590 278 q 558 285 572 278 l 549 275 q 556 243 556 261 l 556 174 q 521 139 556 139 l 519 139 q 489 146 503 139 l 479 136 q 486 106 486 122 l 486 35 q 451 0 486 0 l 243 0 q 208 35 208 0 l 208 106 q 215 136 208 122 l 206 146 q 175 139 192 139 l 174 139 q 139 174 139 139 l 139 243 q 146 275 139 261 l 136 285 q 104 278 122 278 l 103 278 q 69 311 69 278 l 69 383 q 103 417 69 417 l 104 417 q 136 410 122 417 l 146 419 q 139 451 139 433 l 139 521 q 174 556 139 556 l 175 556 q 206 549 192 556 l 215 558 q 208 589 208 572 l 208 660 q 243 694 208 694 l 451 694 q 486 660 486 694 l 486 589 q 479 558 486 572 l 489 549 q 519 556 503 556 l 521 556 q 556 521 556 556 l 556 451 q 549 419 556 433 l 558 410 q 590 417 572 417 l 592 417 m 382 556 l 313 556 q 281 563 294 556 l 271 553 q 278 521 278 539 l 278 451 q 243 417 278 417 q 211 424 225 417 l 201 414 q 208 382 208 400 l 208 313 q 201 281 208 294 l 211 271 q 243 278 225 278 q 278 243 278 278 l 278 174 q 271 142 278 156 l 281 132 q 313 139 294 139 l 382 139 q 414 132 400 139 l 424 142 q 417 174 417 156 l 417 243 q 451 278 417 278 q 483 271 469 278 l 493 281 q 486 313 486 294 l 486 382 q 493 414 486 400 l 483 424 q 451 417 469 417 q 417 451 417 417 l 417 521 q 424 553 417 539 l 414 563 q 382 556 400 556 m 208 1076 q 243 1111 208 1111 l 313 1111 q 347 1076 347 1111 l 347 1007 q 340 975 347 989 l 350 965 q 382 972 364 972 l 383 972 q 417 939 417 972 l 417 868 q 382 833 417 833 l 313 833 q 278 868 278 833 l 278 938 q 285 969 278 956 l 275 979 q 243 972 261 972 l 242 972 q 208 1006 208 972 l 208 1076 z "},"ó":{"ha":694,"x_min":69,"x_max":625,"o":"m 592 417 q 625 383 625 417 l 625 311 q 592 278 625 278 l 590 278 q 558 285 572 278 l 549 275 q 556 243 556 261 l 556 174 q 521 139 556 139 l 519 139 q 489 146 503 139 l 479 136 q 486 106 486 122 l 486 35 q 451 0 486 0 l 243 0 q 208 35 208 0 l 208 106 q 215 136 208 122 l 206 146 q 175 139 192 139 l 174 139 q 139 174 139 139 l 139 243 q 146 275 139 261 l 136 285 q 104 278 122 278 l 103 278 q 69 311 69 278 l 69 383 q 103 417 69 417 l 104 417 q 136 410 122 417 l 146 419 q 139 451 139 433 l 139 521 q 174 556 139 556 l 175 556 q 206 549 192 556 l 215 558 q 208 589 208 572 l 208 660 q 243 694 208 694 l 451 694 q 486 660 486 694 l 486 589 q 479 558 486 572 l 489 549 q 519 556 503 556 l 521 556 q 556 521 556 556 l 556 451 q 549 419 556 433 l 558 410 q 590 417 572 417 l 592 417 m 382 556 l 313 556 q 281 563 294 556 l 271 553 q 278 521 278 539 l 278 451 q 243 417 278 417 q 211 424 225 417 l 201 414 q 208 382 208 400 l 208 313 q 201 281 208 294 l 211 271 q 243 278 225 278 q 278 243 278 278 l 278 174 q 271 142 278 156 l 281 132 q 313 139 294 139 l 382 139 q 414 132 400 139 l 424 142 q 417 174 417 156 l 417 243 q 451 278 417 278 q 483 271 469 278 l 493 281 q 486 313 486 294 l 486 382 q 493 414 486 400 l 483 424 q 451 417 469 417 q 417 451 417 417 l 417 521 q 424 553 417 539 l 414 563 q 382 556 400 556 m 417 868 q 382 833 417 833 l 313 833 q 278 868 278 833 l 278 939 q 311 972 278 972 l 313 972 q 344 965 331 972 l 354 975 q 347 1007 347 989 l 347 1076 q 382 1111 347 1111 l 451 1111 q 486 1076 486 1111 l 486 1006 q 453 972 486 972 l 451 972 q 419 979 433 972 l 410 969 q 417 938 417 956 l 417 868 z "},"ô":{"ha":694,"x_min":69,"x_max":625,"o":"m 592 417 q 625 383 625 417 l 625 311 q 592 278 625 278 l 590 278 q 558 285 572 278 l 549 275 q 556 243 556 261 l 556 174 q 521 139 556 139 l 519 139 q 489 146 503 139 l 479 136 q 486 106 486 122 l 486 35 q 451 0 486 0 l 243 0 q 208 35 208 0 l 208 106 q 215 136 208 122 l 206 146 q 175 139 192 139 l 174 139 q 139 174 139 139 l 139 243 q 146 275 139 261 l 136 285 q 104 278 122 278 l 103 278 q 69 311 69 278 l 69 383 q 103 417 69 417 l 104 417 q 136 410 122 417 l 146 419 q 139 451 139 433 l 139 521 q 174 556 139 556 l 175 556 q 206 549 192 556 l 215 558 q 208 589 208 572 l 208 660 q 243 694 208 694 l 451 694 q 486 660 486 694 l 486 589 q 479 558 486 572 l 489 549 q 519 556 503 556 l 521 556 q 556 521 556 556 l 556 451 q 549 419 556 433 l 558 410 q 590 417 572 417 l 592 417 m 382 556 l 313 556 q 281 563 294 556 l 271 553 q 278 521 278 539 l 278 451 q 243 417 278 417 q 211 424 225 417 l 201 414 q 208 382 208 400 l 208 313 q 201 281 208 294 l 211 271 q 243 278 225 278 q 278 243 278 278 l 278 174 q 271 142 278 156 l 281 132 q 313 139 294 139 l 382 139 q 414 132 400 139 l 424 142 q 417 174 417 156 l 417 243 q 451 278 417 278 q 483 271 469 278 l 493 281 q 486 313 486 294 l 486 382 q 493 414 486 400 l 483 424 q 451 417 469 417 q 417 451 417 417 l 417 521 q 424 553 417 539 l 414 563 q 382 556 400 556 m 417 1076 l 417 1007 q 410 975 417 989 l 419 965 q 451 972 433 972 l 521 972 q 556 938 556 972 l 556 868 q 521 833 556 833 l 174 833 q 139 868 139 833 l 139 938 q 174 972 139 972 l 243 972 q 275 965 261 972 l 285 975 q 278 1007 278 989 l 278 1076 q 313 1111 278 1111 l 382 1111 q 417 1076 417 1111 z "},"õ":{"ha":694,"x_min":69,"x_max":625,"o":"m 592 417 q 625 383 625 417 l 625 311 q 592 278 625 278 l 590 278 q 558 285 572 278 l 549 275 q 556 243 556 261 l 556 174 q 521 139 556 139 l 519 139 q 489 146 503 139 l 479 136 q 486 106 486 122 l 486 35 q 451 0 486 0 l 243 0 q 208 35 208 0 l 208 106 q 215 136 208 122 l 206 146 q 175 139 192 139 l 174 139 q 139 174 139 139 l 139 243 q 146 275 139 261 l 136 285 q 104 278 122 278 l 103 278 q 69 311 69 278 l 69 383 q 103 417 69 417 l 104 417 q 136 410 122 417 l 146 419 q 139 451 139 433 l 139 521 q 174 556 139 556 l 175 556 q 206 549 192 556 l 215 558 q 208 589 208 572 l 208 660 q 243 694 208 694 l 451 694 q 486 660 486 694 l 486 589 q 479 558 486 572 l 489 549 q 519 556 503 556 l 521 556 q 556 521 556 556 l 556 451 q 549 419 556 433 l 558 410 q 590 417 572 417 l 592 417 m 382 556 l 313 556 q 281 563 294 556 l 271 553 q 278 521 278 539 l 278 451 q 243 417 278 417 q 211 424 225 417 l 201 414 q 208 382 208 400 l 208 313 q 201 281 208 294 l 211 271 q 243 278 225 278 q 278 243 278 278 l 278 174 q 271 142 278 156 l 281 132 q 313 139 294 139 l 382 139 q 414 132 400 139 l 424 142 q 417 174 417 156 l 417 243 q 451 278 417 278 q 483 271 469 278 l 493 281 q 486 313 486 294 l 486 382 q 493 414 486 400 l 483 424 q 451 417 469 417 q 417 451 417 417 l 417 521 q 424 553 417 539 l 414 563 q 382 556 400 556 m 278 868 q 243 833 278 833 l 174 833 q 139 868 139 833 l 139 939 q 172 972 139 972 l 174 972 q 206 965 192 972 l 215 975 q 208 1007 208 989 l 208 1076 q 243 1111 208 1111 l 382 1111 q 417 1076 417 1111 l 417 1007 q 410 975 417 989 l 419 965 q 451 972 433 972 q 483 965 469 972 l 493 975 q 486 1007 486 989 l 486 1076 q 521 1111 486 1111 l 590 1111 q 625 1076 625 1111 l 625 1006 q 592 972 625 972 l 590 972 q 558 979 572 972 l 549 969 q 556 938 556 956 l 556 868 q 521 833 556 833 l 382 833 q 347 868 347 833 l 347 938 q 354 969 347 956 l 344 979 q 313 972 331 972 q 281 979 294 972 l 271 969 q 278 938 278 956 l 278 868 z "},"ö":{"ha":694,"x_min":69,"x_max":625,"o":"m 592 417 q 625 383 625 417 l 625 311 q 592 278 625 278 l 590 278 q 558 285 572 278 l 549 275 q 556 243 556 261 l 556 174 q 521 139 556 139 l 519 139 q 489 146 503 139 l 479 136 q 486 106 486 122 l 486 35 q 451 0 486 0 l 243 0 q 208 35 208 0 l 208 106 q 215 136 208 122 l 206 146 q 175 139 192 139 l 174 139 q 139 174 139 139 l 139 243 q 146 275 139 261 l 136 285 q 104 278 122 278 l 103 278 q 69 311 69 278 l 69 383 q 103 417 69 417 l 104 417 q 136 410 122 417 l 146 419 q 139 451 139 433 l 139 521 q 174 556 139 556 l 175 556 q 206 549 192 556 l 215 558 q 208 589 208 572 l 208 660 q 243 694 208 694 l 451 694 q 486 660 486 694 l 486 589 q 479 558 486 572 l 489 549 q 519 556 503 556 l 521 556 q 556 521 556 556 l 556 451 q 549 419 556 433 l 558 410 q 590 417 572 417 l 592 417 m 382 556 l 313 556 q 281 563 294 556 l 271 553 q 278 521 278 539 l 278 451 q 243 417 278 417 q 211 424 225 417 l 201 414 q 208 382 208 400 l 208 313 q 201 281 208 294 l 211 271 q 243 278 225 278 q 278 243 278 278 l 278 174 q 271 142 278 156 l 281 132 q 313 139 294 139 l 382 139 q 414 132 400 139 l 424 142 q 417 174 417 156 l 417 243 q 451 278 417 278 q 483 271 469 278 l 493 281 q 486 313 486 294 l 486 382 q 493 414 486 400 l 483 424 q 451 417 469 417 q 417 451 417 417 l 417 521 q 424 553 417 539 l 414 563 q 382 556 400 556 m 278 868 q 243 833 278 833 l 174 833 q 139 868 139 833 l 139 938 q 174 972 139 972 l 243 972 q 278 938 278 972 l 278 868 m 556 868 q 521 833 556 833 l 451 833 q 417 868 417 833 l 417 938 q 451 972 417 972 l 521 972 q 556 938 556 972 l 556 868 z "},"÷":{"ha":694,"x_min":69,"x_max":625,"o":"m 590 417 q 625 382 625 417 l 625 313 q 590 278 625 278 l 104 278 q 69 313 69 278 l 69 382 q 104 417 69 417 l 590 417 m 278 104 q 313 139 278 139 l 382 139 q 417 104 417 139 l 417 35 q 382 0 417 0 l 313 0 q 278 35 278 0 l 278 104 m 278 660 q 313 694 278 694 l 382 694 q 417 660 417 694 l 417 590 q 382 556 417 556 l 313 556 q 278 590 278 556 l 278 660 z "},"ø":{"ha":694,"x_min":69,"x_max":625,"o":"m 417 313 q 382 278 417 278 l 313 278 q 278 313 278 278 l 278 382 q 313 417 278 417 l 382 417 q 417 382 417 417 l 417 313 m 382 556 l 313 556 q 281 563 294 556 l 271 553 q 278 521 278 539 l 278 451 q 243 417 278 417 q 211 424 225 417 l 201 414 q 208 382 208 400 l 208 313 q 201 281 208 294 l 211 271 q 243 278 225 278 q 278 243 278 278 l 278 174 q 271 142 278 156 l 281 132 q 313 139 294 139 l 382 139 q 414 132 400 139 l 424 142 q 417 174 417 156 l 417 243 q 451 278 417 278 q 483 271 469 278 l 493 281 q 486 313 486 294 l 486 382 q 493 414 486 400 l 483 424 q 451 417 469 417 q 417 451 417 417 l 417 521 q 424 553 417 539 l 414 563 q 382 556 400 556 m 556 522 l 556 521 l 556 451 q 549 419 556 433 l 558 410 q 590 417 572 417 l 592 417 q 625 383 625 417 l 625 311 q 592 278 625 278 l 590 278 q 558 285 572 278 l 549 275 q 556 243 556 261 l 556 174 q 521 139 556 139 l 519 139 q 489 146 503 139 l 479 136 q 486 106 486 122 l 486 35 q 451 0 486 0 l 313 0 q 281 7 294 0 l 271 -3 q 278 -35 278 -17 l 278 -104 q 243 -139 278 -139 l 174 -139 q 139 -104 139 -139 l 139 -33 q 172 0 139 0 l 174 0 q 206 -7 192 0 l 215 3 q 208 35 208 17 l 208 104 q 215 136 208 122 l 206 146 q 174 139 192 139 l 172 139 q 139 172 139 139 l 139 243 q 146 275 139 261 l 136 285 q 104 278 122 278 l 103 278 q 69 311 69 278 l 69 383 q 103 417 69 417 l 104 417 q 136 410 122 417 l 146 419 q 139 451 139 433 l 139 521 q 174 556 139 556 l 175 556 q 206 549 192 556 l 215 558 q 208 589 208 572 l 208 660 q 243 694 208 694 l 382 694 q 414 688 400 694 l 424 697 q 417 729 417 711 l 417 799 q 451 833 417 833 l 521 833 q 556 799 556 833 l 556 728 q 522 694 556 694 l 521 694 q 489 701 503 694 l 479 692 q 486 660 486 678 l 486 590 q 479 558 486 572 l 489 549 q 521 556 503 556 l 522 556 q 556 522 556 556 z "},"ù":{"ha":694,"x_min":69,"x_max":625,"o":"m 486 660 q 521 694 486 694 l 590 694 q 625 660 625 694 l 625 35 q 590 0 625 0 l 174 0 q 139 35 139 0 l 139 104 q 146 136 139 122 l 136 146 q 104 139 122 139 l 103 139 q 69 172 69 139 l 69 660 q 104 694 69 694 l 174 694 q 208 660 208 694 l 208 174 q 201 142 208 156 l 211 132 q 243 139 225 139 l 451 139 q 483 132 469 139 l 493 142 q 486 174 486 156 l 486 660 m 208 1076 q 243 1111 208 1111 l 313 1111 q 347 1076 347 1111 l 347 1007 q 340 975 347 989 l 350 965 q 382 972 364 972 l 383 972 q 417 939 417 972 l 417 868 q 382 833 417 833 l 313 833 q 278 868 278 833 l 278 938 q 285 969 278 956 l 275 979 q 243 972 261 972 l 242 972 q 208 1006 208 972 l 208 1076 z "},"ú":{"ha":694,"x_min":69,"x_max":625,"o":"m 486 660 q 521 694 486 694 l 590 694 q 625 660 625 694 l 625 35 q 590 0 625 0 l 174 0 q 139 35 139 0 l 139 104 q 146 136 139 122 l 136 146 q 104 139 122 139 l 103 139 q 69 172 69 139 l 69 660 q 104 694 69 694 l 174 694 q 208 660 208 694 l 208 174 q 201 142 208 156 l 211 132 q 243 139 225 139 l 451 139 q 483 132 469 139 l 493 142 q 486 174 486 156 l 486 660 m 417 868 q 382 833 417 833 l 313 833 q 278 868 278 833 l 278 939 q 311 972 278 972 l 313 972 q 344 965 331 972 l 354 975 q 347 1007 347 989 l 347 1076 q 382 1111 347 1111 l 451 1111 q 486 1076 486 1111 l 486 1006 q 453 972 486 972 l 451 972 q 419 979 433 972 l 410 969 q 417 938 417 956 l 417 868 z "},"û":{"ha":694,"x_min":69,"x_max":625,"o":"m 486 660 q 521 694 486 694 l 590 694 q 625 660 625 694 l 625 35 q 590 0 625 0 l 174 0 q 139 35 139 0 l 139 104 q 146 136 139 122 l 136 146 q 104 139 122 139 l 103 139 q 69 172 69 139 l 69 660 q 104 694 69 694 l 174 694 q 208 660 208 694 l 208 174 q 201 142 208 156 l 211 132 q 243 139 225 139 l 451 139 q 483 132 469 139 l 493 142 q 486 174 486 156 l 486 660 m 417 1076 l 417 1007 q 410 975 417 989 l 419 965 q 451 972 433 972 l 521 972 q 556 938 556 972 l 556 868 q 521 833 556 833 l 174 833 q 139 868 139 833 l 139 938 q 174 972 139 972 l 243 972 q 275 965 261 972 l 285 975 q 278 1007 278 989 l 278 1076 q 313 1111 278 1111 l 382 1111 q 417 1076 417 1111 z "},"ü":{"ha":694,"x_min":69,"x_max":625,"o":"m 486 660 q 521 694 486 694 l 590 694 q 625 660 625 694 l 625 35 q 590 0 625 0 l 174 0 q 139 35 139 0 l 139 104 q 146 136 139 122 l 136 146 q 104 139 122 139 l 103 139 q 69 172 69 139 l 69 660 q 104 694 69 694 l 174 694 q 208 660 208 694 l 208 174 q 201 142 208 156 l 211 132 q 243 139 225 139 l 451 139 q 483 132 469 139 l 493 142 q 486 174 486 156 l 486 660 m 278 868 q 243 833 278 833 l 174 833 q 139 868 139 833 l 139 938 q 174 972 139 972 l 243 972 q 278 938 278 972 l 278 868 m 556 868 q 521 833 556 833 l 451 833 q 417 868 417 833 l 417 938 q 451 972 417 972 l 521 972 q 556 938 556 972 l 556 868 z "},"ý":{"ha":694,"x_min":69,"x_max":625,"o":"m 278 172 l 278 244 q 285 275 278 261 l 275 285 q 244 278 261 278 l 243 278 q 208 313 208 278 l 208 383 q 215 414 208 400 l 206 424 q 175 417 192 417 l 174 417 q 139 451 139 417 l 139 521 q 146 553 139 539 l 136 563 q 104 556 122 556 l 103 556 q 69 589 69 556 l 69 660 q 104 694 69 694 l 174 694 q 208 660 208 694 l 208 589 q 201 558 208 572 l 211 549 q 242 556 225 556 l 243 556 q 278 521 278 556 l 278 451 q 271 419 278 433 l 281 410 q 313 417 294 417 l 382 417 q 414 410 400 417 l 424 419 q 417 451 417 433 l 417 521 q 451 556 417 556 l 453 556 q 483 549 469 556 l 493 558 q 486 589 486 572 l 486 660 q 521 694 486 694 l 590 694 q 625 660 625 694 l 625 589 q 592 556 625 556 l 590 556 q 558 563 572 556 l 549 553 q 556 521 556 539 l 556 451 q 521 417 556 417 l 519 417 q 489 424 503 417 l 479 414 q 486 383 486 400 l 486 313 q 451 278 486 278 l 450 278 q 419 285 433 278 l 410 275 q 417 244 417 261 l 417 174 q 382 139 417 139 l 381 139 q 350 146 364 139 l 340 136 q 347 106 347 122 l 347 35 q 313 0 347 0 l 311 0 q 281 7 294 0 l 271 -3 q 278 -33 278 -17 l 278 -104 q 243 -139 278 -139 l 242 -139 q 211 -132 225 -139 l 201 -142 q 208 -172 208 -156 l 208 -243 q 174 -278 208 -278 l 104 -278 q 69 -243 69 -278 l 69 -172 q 103 -139 69 -139 l 104 -139 q 136 -146 122 -139 l 146 -136 q 139 -104 139 -122 l 139 -35 q 174 0 139 0 l 175 0 q 206 -7 192 0 l 215 3 q 208 33 208 17 l 208 104 q 243 139 208 139 l 244 139 q 275 132 261 139 l 285 142 q 278 172 278 156 m 417 868 q 382 833 417 833 l 313 833 q 278 868 278 833 l 278 939 q 311 972 278 972 l 313 972 q 344 965 331 972 l 354 975 q 347 1007 347 989 l 347 1076 q 382 1111 347 1111 l 451 1111 q 486 1076 486 1111 l 486 1006 q 453 972 486 972 l 451 972 q 419 979 433 972 l 410 969 q 417 938 417 956 l 417 868 z "},"þ":{"ha":694,"x_min":69,"x_max":625,"o":"m 208 -243 q 174 -278 208 -278 l 104 -278 q 69 -243 69 -278 l 69 938 q 104 972 69 972 l 174 972 q 208 938 208 972 l 208 729 q 201 697 208 711 l 211 688 q 243 694 225 694 l 451 694 q 486 660 486 694 l 486 589 q 479 558 486 572 l 489 549 q 519 556 503 556 l 521 556 q 556 521 556 556 l 556 451 q 549 419 556 433 l 558 410 q 590 417 572 417 l 592 417 q 625 383 625 417 l 625 311 q 592 278 625 278 l 590 278 q 558 285 572 278 l 549 275 q 556 243 556 261 l 556 174 q 521 139 556 139 l 519 139 q 489 146 503 139 l 479 136 q 486 106 486 122 l 486 35 q 451 0 486 0 l 243 0 q 211 7 225 0 l 201 -3 q 208 -35 208 -17 l 208 -243 m 451 417 q 417 451 417 417 l 417 521 q 424 553 417 539 l 414 563 q 382 556 400 556 l 243 556 q 211 563 225 556 l 201 553 q 208 521 208 539 l 208 174 q 201 142 208 156 l 211 132 q 243 139 225 139 l 382 139 q 414 132 400 139 l 424 142 q 417 174 417 156 l 417 243 q 451 278 417 278 q 483 271 469 278 l 493 281 q 486 313 486 294 l 486 382 q 493 414 486 400 l 483 424 q 451 417 469 417 z "},"ÿ":{"ha":694,"x_min":69,"x_max":625,"o":"m 278 172 l 278 244 q 285 275 278 261 l 275 285 q 244 278 261 278 l 243 278 q 208 313 208 278 l 208 383 q 215 414 208 400 l 206 424 q 175 417 192 417 l 174 417 q 139 451 139 417 l 139 521 q 146 553 139 539 l 136 563 q 104 556 122 556 l 103 556 q 69 589 69 556 l 69 660 q 104 694 69 694 l 174 694 q 208 660 208 694 l 208 589 q 201 558 208 572 l 211 549 q 242 556 225 556 l 243 556 q 278 521 278 556 l 278 451 q 271 419 278 433 l 281 410 q 313 417 294 417 l 382 417 q 414 410 400 417 l 424 419 q 417 451 417 433 l 417 521 q 451 556 417 556 l 453 556 q 483 549 469 556 l 493 558 q 486 589 486 572 l 486 660 q 521 694 486 694 l 590 694 q 625 660 625 694 l 625 589 q 592 556 625 556 l 590 556 q 558 563 572 556 l 549 553 q 556 521 556 539 l 556 451 q 521 417 556 417 l 519 417 q 489 424 503 417 l 479 414 q 486 383 486 400 l 486 313 q 451 278 486 278 l 450 278 q 419 285 433 278 l 410 275 q 417 244 417 261 l 417 174 q 382 139 417 139 l 381 139 q 350 146 364 139 l 340 136 q 347 106 347 122 l 347 35 q 313 0 347 0 l 311 0 q 281 7 294 0 l 271 -3 q 278 -33 278 -17 l 278 -104 q 243 -139 278 -139 l 242 -139 q 211 -132 225 -139 l 201 -142 q 208 -172 208 -156 l 208 -243 q 174 -278 208 -278 l 104 -278 q 69 -243 69 -278 l 69 -172 q 103 -139 69 -139 l 104 -139 q 136 -146 122 -139 l 146 -136 q 139 -104 139 -122 l 139 -35 q 174 0 139 0 l 175 0 q 206 -7 192 0 l 215 3 q 208 33 208 17 l 208 104 q 243 139 208 139 l 244 139 q 275 132 261 139 l 285 142 q 278 172 278 156 m 278 868 q 243 833 278 833 l 174 833 q 139 868 139 833 l 139 938 q 174 972 139 972 l 243 972 q 278 938 278 972 l 278 868 m 556 868 q 521 833 556 833 l 451 833 q 417 868 417 833 l 417 938 q 451 972 417 972 l 521 972 q 556 938 556 972 l 556 868 z "},"Œ":{"ha":694,"x_min":69,"x_max":625,"o":"m 347 174 l 347 799 q 354 831 347 817 l 344 840 q 313 833 331 833 q 281 840 294 833 l 271 831 q 278 799 278 817 l 278 729 q 243 694 278 694 q 211 701 225 694 l 201 692 q 208 660 208 678 l 208 313 q 201 281 208 294 l 211 271 q 243 278 225 278 q 278 243 278 278 l 278 174 q 271 142 278 156 l 281 132 q 313 139 294 139 q 344 132 331 139 l 354 142 q 347 174 347 156 m 590 139 q 625 104 625 139 l 625 35 q 590 0 625 0 l 243 0 q 208 35 208 0 l 208 106 q 215 136 208 122 l 206 146 q 175 139 192 139 l 174 139 q 139 174 139 139 l 139 243 q 146 275 139 261 l 136 285 q 104 278 122 278 l 103 278 q 69 311 69 278 l 69 661 q 103 694 69 694 l 104 694 q 136 688 122 694 l 146 697 q 139 729 139 711 l 139 799 q 174 833 139 833 l 175 833 q 206 826 192 833 l 215 836 q 208 867 208 850 l 208 938 q 243 972 208 972 l 590 972 q 625 938 625 972 l 625 868 q 590 833 625 833 l 521 833 q 489 840 503 833 l 479 831 q 486 799 486 817 l 486 660 q 479 628 486 642 l 489 618 q 521 625 503 625 l 590 625 q 625 590 625 625 l 625 521 q 590 486 625 486 l 521 486 q 489 493 503 486 l 479 483 q 486 451 486 469 l 486 174 q 479 142 486 156 l 489 132 q 521 139 503 139 l 590 139 z "},"œ":{"ha":694,"x_min":0,"x_max":694,"o":"m 33 556 l 35 556 q 67 549 53 556 l 76 558 q 69 590 69 572 l 69 660 q 104 694 69 694 l 590 694 q 625 660 625 694 l 625 590 q 618 558 625 572 l 628 549 q 660 556 642 556 l 661 556 q 694 522 694 556 l 694 313 q 660 278 694 278 l 451 278 q 419 285 433 278 l 410 275 q 417 243 417 261 l 417 174 q 410 142 417 156 l 419 132 q 451 139 433 139 l 660 139 q 694 104 694 139 l 694 35 q 660 0 694 0 l 104 0 q 69 35 69 0 l 69 104 q 76 136 69 122 l 67 146 q 35 139 53 139 l 33 139 q 0 172 0 139 l 0 522 q 33 556 0 556 m 174 139 l 243 139 q 275 132 261 139 l 285 142 q 278 174 278 156 l 278 521 q 285 553 278 539 l 275 563 q 243 556 261 556 l 174 556 q 142 563 156 556 l 132 553 q 139 521 139 539 l 139 174 q 132 142 139 156 l 142 132 q 174 139 156 139 m 556 451 l 556 521 q 563 553 556 539 l 553 563 q 521 556 539 556 l 451 556 q 419 563 433 556 l 410 553 q 417 521 417 539 l 417 451 q 410 419 417 433 l 419 410 q 451 417 433 417 l 521 417 q 553 410 539 417 l 563 419 q 556 451 556 433 z "},"Ÿ":{"ha":694,"x_min":69,"x_max":625,"o":"m 590 972 q 625 938 625 972 l 625 728 q 592 694 625 694 l 590 694 q 558 701 572 694 l 549 692 q 556 660 556 678 l 556 590 q 521 556 556 556 l 519 556 q 489 563 503 556 l 479 553 q 486 522 486 539 l 486 451 q 451 417 486 417 l 450 417 q 419 424 433 417 l 410 414 q 417 383 417 400 l 417 35 q 382 0 417 0 l 313 0 q 278 35 278 0 l 278 383 q 285 414 278 400 l 275 424 q 244 417 261 417 l 243 417 q 208 451 208 417 l 208 522 q 215 553 208 539 l 206 563 q 175 556 192 556 l 174 556 q 139 590 139 556 l 139 660 q 146 692 139 678 l 136 701 q 104 694 122 694 l 103 694 q 69 728 69 694 l 69 938 q 104 972 69 972 l 174 972 q 208 938 208 972 l 208 728 q 201 697 208 711 l 211 688 q 242 694 225 694 l 243 694 q 278 660 278 694 l 278 590 q 271 558 278 572 l 281 549 q 313 556 294 556 l 382 556 q 414 549 400 556 l 424 558 q 417 590 417 572 l 417 660 q 451 694 417 694 l 453 694 q 483 688 469 694 l 493 697 q 486 728 486 711 l 486 938 q 521 972 486 972 l 590 972 m 278 1146 q 243 1111 278 1111 l 174 1111 q 139 1146 139 1111 l 139 1215 q 174 1250 139 1250 l 243 1250 q 278 1215 278 1250 l 278 1146 m 556 1146 q 521 1111 556 1111 l 451 1111 q 417 1146 417 1111 l 417 1215 q 451 1250 417 1250 l 521 1250 q 556 1215 556 1250 l 556 1146 z "},"ʼ":{"ha":694,"x_min":278,"x_max":417,"o":"m 382 972 q 417 938 417 972 l 417 590 q 382 556 417 556 l 313 556 q 278 590 278 556 l 278 938 q 313 972 278 972 l 382 972 z "},"˜":{"ha":694,"x_min":139,"x_max":625,"o":"m 278 868 q 243 833 278 833 l 174 833 q 139 868 139 833 l 139 939 q 172 972 139 972 l 174 972 q 206 965 192 972 l 215 975 q 208 1007 208 989 l 208 1076 q 243 1111 208 1111 l 382 1111 q 417 1076 417 1111 l 417 1007 q 410 975 417 989 l 419 965 q 451 972 433 972 q 483 965 469 972 l 493 975 q 486 1007 486 989 l 486 1076 q 521 1111 486 1111 l 590 1111 q 625 1076 625 1111 l 625 1006 q 592 972 625 972 l 590 972 q 558 979 572 972 l 549 969 q 556 938 556 956 l 556 868 q 521 833 556 833 l 382 833 q 347 868 347 833 l 347 938 q 354 969 347 956 l 344 979 q 313 972 331 972 q 281 979 294 972 l 271 969 q 278 938 278 956 l 278 868 z "},"–":{"ha":694,"x_min":69,"x_max":625,"o":"m 590 417 q 625 382 625 417 l 625 313 q 590 278 625 278 l 104 278 q 69 313 69 278 l 69 382 q 104 417 69 417 l 590 417 z "},"—":{"ha":694,"x_min":0,"x_max":694,"o":"m 660 417 q 694 382 694 417 l 694 313 q 660 278 694 278 l 35 278 q 0 313 0 278 l 0 382 q 35 417 0 417 l 660 417 z "},"‘":{"ha":694,"x_min":208,"x_max":486,"o":"m 347 799 l 347 729 q 340 697 347 711 l 350 688 q 382 694 364 694 l 451 694 q 486 660 486 694 l 486 590 q 451 556 486 556 l 243 556 q 208 590 208 556 l 208 800 q 242 833 208 833 l 243 833 q 275 826 261 833 l 285 836 q 278 868 278 850 l 278 938 q 313 972 278 972 l 382 972 q 417 938 417 972 l 417 867 q 383 833 417 833 l 382 833 q 350 840 364 833 l 340 831 q 347 799 347 817 z "},"’":{"ha":694,"x_min":208,"x_max":486,"o":"m 347 729 l 347 799 q 354 831 347 817 l 344 840 q 313 833 331 833 l 243 833 q 208 868 208 833 l 208 938 q 243 972 208 972 l 451 972 q 486 938 486 972 l 486 728 q 453 694 486 694 l 451 694 q 419 701 433 694 l 410 692 q 417 660 417 678 l 417 590 q 382 556 417 556 l 313 556 q 278 590 278 556 l 278 661 q 311 694 278 694 l 313 694 q 344 688 331 694 l 354 697 q 347 729 347 711 z "},"“":{"ha":694,"x_min":0,"x_max":625,"o":"m 486 799 l 486 729 q 479 697 486 711 l 489 688 q 521 694 503 694 l 590 694 q 625 660 625 694 l 625 590 q 590 556 625 556 l 382 556 q 347 590 347 556 l 347 800 q 381 833 347 833 l 382 833 q 414 826 400 833 l 424 836 q 417 868 417 850 l 417 938 q 451 972 417 972 l 521 972 q 556 938 556 972 l 556 867 q 522 833 556 833 l 521 833 q 489 840 503 833 l 479 831 q 486 799 486 817 m 139 799 l 139 729 q 132 697 139 711 l 142 688 q 174 694 156 694 l 243 694 q 278 660 278 694 l 278 590 q 243 556 278 556 l 35 556 q 0 590 0 556 l 0 800 q 33 833 0 833 l 35 833 q 67 826 53 833 l 76 836 q 69 868 69 850 l 69 938 q 104 972 69 972 l 174 972 q 208 938 208 972 l 208 867 q 175 833 208 833 l 174 833 q 142 840 156 833 l 132 831 q 139 799 139 817 z "},"”":{"ha":694,"x_min":69,"x_max":694,"o":"m 208 729 l 208 799 q 215 831 208 817 l 206 840 q 174 833 192 833 l 104 833 q 69 868 69 833 l 69 938 q 104 972 69 972 l 313 972 q 347 938 347 972 l 347 728 q 314 694 347 694 l 313 694 q 281 701 294 694 l 271 692 q 278 660 278 678 l 278 590 q 243 556 278 556 l 174 556 q 139 590 139 556 l 139 661 q 172 694 139 694 l 174 694 q 206 688 192 694 l 215 697 q 208 729 208 711 m 556 729 l 556 799 q 563 831 556 817 l 553 840 q 521 833 539 833 l 451 833 q 417 868 417 833 l 417 938 q 451 972 417 972 l 660 972 q 694 938 694 972 l 694 728 q 661 694 694 694 l 660 694 q 628 701 642 694 l 618 692 q 625 660 625 678 l 625 590 q 590 556 625 556 l 521 556 q 486 590 486 556 l 486 661 q 519 694 486 694 l 521 694 q 553 688 539 694 l 563 697 q 556 729 556 711 z "}}}
